<svg id="Layer_3" data-name="Layer 3" xmlns="http://www.w3.org/2000/svg" viewBox="0 0 843.42 254.9"><defs><style>.cls-1{fill:#fff;}</style></defs><path class="cls-1" d="M178.75,471.52a7.13,7.13,0,0,0-4-4.11,7.06,7.06,0,0,0-5.43-.16,6.47,6.47,0,0,0-3.9,3.55,6.79,6.79,0,0,0-.19,5.46,7,7,0,0,0,3.74,4,7.09,7.09,0,0,0,5.48.34,6.8,6.8,0,0,0,4.12-3.45A6.59,6.59,0,0,0,178.75,471.52Zm0,0a7.13,7.13,0,0,0-4-4.11,7.06,7.06,0,0,0-5.43-.16,6.47,6.47,0,0,0-3.9,3.55,6.79,6.79,0,0,0-.19,5.46,7,7,0,0,0,3.74,4,7.09,7.09,0,0,0,5.48.34,6.8,6.8,0,0,0,4.12-3.45A6.59,6.59,0,0,0,178.75,471.52Zm0,0a7.13,7.13,0,0,0-4-4.11,7.06,7.06,0,0,0-5.43-.16,6.47,6.47,0,0,0-3.9,3.55,6.79,6.79,0,0,0-.19,5.46,7,7,0,0,0,3.74,4,7.09,7.09,0,0,0,5.48.34,6.8,6.8,0,0,0,4.12-3.45A6.59,6.59,0,0,0,178.75,471.52Zm0,0a7.13,7.13,0,0,0-4-4.11,7.06,7.06,0,0,0-5.43-.16,6.47,6.47,0,0,0-3.9,3.55,6.79,6.79,0,0,0-.19,5.46,7,7,0,0,0,3.74,4,7.09,7.09,0,0,0,5.48.34,6.8,6.8,0,0,0,4.12-3.45A6.59,6.59,0,0,0,178.75,471.52Zm0,0a7.13,7.13,0,0,0-4-4.11,7.06,7.06,0,0,0-5.43-.16,6.47,6.47,0,0,0-3.9,3.55,6.79,6.79,0,0,0-.19,5.46,7,7,0,0,0,3.74,4,7.09,7.09,0,0,0,5.48.34,6.8,6.8,0,0,0,4.12-3.45A6.59,6.59,0,0,0,178.75,471.52Zm0,0a7.13,7.13,0,0,0-4-4.11,7.06,7.06,0,0,0-5.43-.16,6.47,6.47,0,0,0-3.9,3.55,6.79,6.79,0,0,0-.19,5.46,7,7,0,0,0,3.74,4,7.09,7.09,0,0,0,5.48.34,6.8,6.8,0,0,0,4.12-3.45A6.59,6.59,0,0,0,178.75,471.52Zm0,0a7.13,7.13,0,0,0-4-4.11,7.06,7.06,0,0,0-5.43-.16,6.47,6.47,0,0,0-3.9,3.55,6.79,6.79,0,0,0-.19,5.46,7,7,0,0,0,3.74,4,7.09,7.09,0,0,0,5.48.34,6.8,6.8,0,0,0,4.12-3.45A6.59,6.59,0,0,0,178.75,471.52Zm0,0a7.13,7.13,0,0,0-4-4.11,7.06,7.06,0,0,0-5.43-.16,6.47,6.47,0,0,0-3.9,3.55,6.79,6.79,0,0,0-.19,5.46,7,7,0,0,0,3.74,4,7.09,7.09,0,0,0,5.48.34,6.8,6.8,0,0,0,4.12-3.45A6.59,6.59,0,0,0,178.75,471.52Zm0,0a7.13,7.13,0,0,0-4-4.11,7.06,7.06,0,0,0-5.43-.16,6.47,6.47,0,0,0-3.9,3.55,6.79,6.79,0,0,0-.19,5.46,7,7,0,0,0,3.74,4,7.09,7.09,0,0,0,5.48.34,6.8,6.8,0,0,0,4.12-3.45A6.59,6.59,0,0,0,178.75,471.52Zm31-68.35a7.57,7.57,0,0,0-9.46-4.27,6.56,6.56,0,0,0-3.93,3.58,6.72,6.72,0,0,0-.16,5.45,7.1,7.1,0,0,0,3.74,4,7.3,7.3,0,0,0,5.51.32,6.66,6.66,0,0,0,4.08-3.47A6.54,6.54,0,0,0,209.71,403.17Zm0,0a7.57,7.57,0,0,0-9.46-4.27,6.56,6.56,0,0,0-3.93,3.58,6.72,6.72,0,0,0-.16,5.45,7.1,7.1,0,0,0,3.74,4,7.3,7.3,0,0,0,5.51.32,6.66,6.66,0,0,0,4.08-3.47A6.54,6.54,0,0,0,209.71,403.17Zm-31,68.35a7.13,7.13,0,0,0-4-4.11,7.06,7.06,0,0,0-5.43-.16,6.47,6.47,0,0,0-3.9,3.55,6.79,6.79,0,0,0-.19,5.46,7,7,0,0,0,3.74,4,7.09,7.09,0,0,0,5.48.34,6.8,6.8,0,0,0,4.12-3.45A6.59,6.59,0,0,0,178.75,471.52Zm0,0a7.13,7.13,0,0,0-4-4.11,7.06,7.06,0,0,0-5.43-.16,6.47,6.47,0,0,0-3.9,3.55,6.79,6.79,0,0,0-.19,5.46,7,7,0,0,0,3.74,4,7.09,7.09,0,0,0,5.48.34,6.8,6.8,0,0,0,4.12-3.45A6.59,6.59,0,0,0,178.75,471.52Zm31-68.35a7.57,7.57,0,0,0-9.46-4.27,6.56,6.56,0,0,0-3.93,3.58,6.72,6.72,0,0,0-.16,5.45,7.1,7.1,0,0,0,3.74,4,7.3,7.3,0,0,0,5.51.32,6.66,6.66,0,0,0,4.08-3.47A6.54,6.54,0,0,0,209.71,403.17Zm.21-27a7.09,7.09,0,0,0-3.37,3.5,7.24,7.24,0,0,0-.48,4.92,7.16,7.16,0,0,0,2.86,4l5.83-12.94A7.18,7.18,0,0,0,209.92,376.15Zm0,0a7.09,7.09,0,0,0-3.37,3.5,7.24,7.24,0,0,0-.48,4.92,7.16,7.16,0,0,0,2.86,4l5.83-12.94A7.18,7.18,0,0,0,209.92,376.15Zm-.21,27a7.57,7.57,0,0,0-9.46-4.27,6.56,6.56,0,0,0-3.93,3.58,6.72,6.72,0,0,0-.16,5.45,7.1,7.1,0,0,0,3.74,4,7.3,7.3,0,0,0,5.51.32,6.66,6.66,0,0,0,4.08-3.47A6.54,6.54,0,0,0,209.71,403.17Zm-31,68.35a7.13,7.13,0,0,0-4-4.11,7.06,7.06,0,0,0-5.43-.16,6.47,6.47,0,0,0-3.9,3.55,6.79,6.79,0,0,0-.19,5.46,7,7,0,0,0,3.74,4,7.09,7.09,0,0,0,5.48.34,6.8,6.8,0,0,0,4.12-3.45A6.59,6.59,0,0,0,178.75,471.52Zm0,0a7.13,7.13,0,0,0-4-4.11,7.06,7.06,0,0,0-5.43-.16,6.47,6.47,0,0,0-3.9,3.55,6.79,6.79,0,0,0-.19,5.46,7,7,0,0,0,3.74,4,7.09,7.09,0,0,0,5.48.34,6.8,6.8,0,0,0,4.12-3.45A6.59,6.59,0,0,0,178.75,471.52Zm31-68.35a7.57,7.57,0,0,0-9.46-4.27,6.56,6.56,0,0,0-3.93,3.58,6.72,6.72,0,0,0-.16,5.45,7.1,7.1,0,0,0,3.74,4,7.3,7.3,0,0,0,5.51.32,6.66,6.66,0,0,0,4.08-3.47A6.54,6.54,0,0,0,209.71,403.17Zm.21-27a7.09,7.09,0,0,0-3.37,3.5,7.24,7.24,0,0,0-.48,4.92,7.16,7.16,0,0,0,2.86,4l5.83-12.94A7.18,7.18,0,0,0,209.92,376.15Zm0,0a7.09,7.09,0,0,0-3.37,3.5,7.24,7.24,0,0,0-.48,4.92,7.16,7.16,0,0,0,2.86,4l5.83-12.94A7.18,7.18,0,0,0,209.92,376.15Zm-.21,27a7.57,7.57,0,0,0-9.46-4.27,6.56,6.56,0,0,0-3.93,3.58,6.72,6.72,0,0,0-.16,5.45,7.1,7.1,0,0,0,3.74,4,7.3,7.3,0,0,0,5.51.32,6.66,6.66,0,0,0,4.08-3.47A6.54,6.54,0,0,0,209.71,403.17Zm-31,68.35a7.13,7.13,0,0,0-4-4.11,7.06,7.06,0,0,0-5.43-.16,6.47,6.47,0,0,0-3.9,3.55,6.79,6.79,0,0,0-.19,5.46,7,7,0,0,0,3.74,4,7.09,7.09,0,0,0,5.48.34,6.8,6.8,0,0,0,4.12-3.45A6.59,6.59,0,0,0,178.75,471.52Zm0,0a7.13,7.13,0,0,0-4-4.11,7.06,7.06,0,0,0-5.43-.16,6.47,6.47,0,0,0-3.9,3.55,6.79,6.79,0,0,0-.19,5.46,7,7,0,0,0,3.74,4,7.09,7.09,0,0,0,5.48.34,6.8,6.8,0,0,0,4.12-3.45A6.59,6.59,0,0,0,178.75,471.52Zm31-68.35a7.57,7.57,0,0,0-9.46-4.27,6.56,6.56,0,0,0-3.93,3.58,6.72,6.72,0,0,0-.16,5.45,7.1,7.1,0,0,0,3.74,4,7.3,7.3,0,0,0,5.51.32,6.66,6.66,0,0,0,4.08-3.47A6.54,6.54,0,0,0,209.71,403.17Zm.21-27a7.09,7.09,0,0,0-3.37,3.5,7.24,7.24,0,0,0-.48,4.92,7.16,7.16,0,0,0,2.86,4l5.83-12.94A7.18,7.18,0,0,0,209.92,376.15ZM227,338.35a7,7,0,0,0-3.37,3.51,7,7,0,0,0-.48,4.89,7.16,7.16,0,0,0,2.86,4.06l5.82-13A7.07,7.07,0,0,0,227,338.35Zm-17.06,37.8a7.09,7.09,0,0,0-3.37,3.5,7.24,7.24,0,0,0-.48,4.92,7.16,7.16,0,0,0,2.86,4l5.83-12.94A7.18,7.18,0,0,0,209.92,376.15Zm-.21,27a7.57,7.57,0,0,0-9.46-4.27,6.56,6.56,0,0,0-3.93,3.58,6.72,6.72,0,0,0-.16,5.45,7.1,7.1,0,0,0,3.74,4,7.3,7.3,0,0,0,5.51.32,6.66,6.66,0,0,0,4.08-3.47A6.54,6.54,0,0,0,209.71,403.17Zm-31,68.35a7.13,7.13,0,0,0-4-4.11,7.06,7.06,0,0,0-5.43-.16,6.47,6.47,0,0,0-3.9,3.55,6.79,6.79,0,0,0-.19,5.46,7,7,0,0,0,3.74,4,7.09,7.09,0,0,0,5.48.34,6.8,6.8,0,0,0,4.12-3.45A6.59,6.59,0,0,0,178.75,471.52ZM227,338.35a7,7,0,0,0-3.37,3.51,7,7,0,0,0-.48,4.89,7.16,7.16,0,0,0,2.86,4.06l5.82-13A7.07,7.07,0,0,0,227,338.35ZM178.75,471.52a7.13,7.13,0,0,0-4-4.11,7.06,7.06,0,0,0-5.43-.16,6.47,6.47,0,0,0-3.9,3.55,6.79,6.79,0,0,0-.19,5.46,7,7,0,0,0,3.74,4,7.09,7.09,0,0,0,5.48.34,6.8,6.8,0,0,0,4.12-3.45A6.59,6.59,0,0,0,178.75,471.52Zm31-68.35a7.57,7.57,0,0,0-9.46-4.27,6.56,6.56,0,0,0-3.93,3.58,6.72,6.72,0,0,0-.16,5.45,7.1,7.1,0,0,0,3.74,4,7.3,7.3,0,0,0,5.51.32,6.66,6.66,0,0,0,4.08-3.47A6.54,6.54,0,0,0,209.71,403.17Zm.21-27a7.09,7.09,0,0,0-3.37,3.5,7.24,7.24,0,0,0-.48,4.92,7.16,7.16,0,0,0,2.86,4l5.83-12.94A7.18,7.18,0,0,0,209.92,376.15ZM227,338.35a7,7,0,0,0-3.37,3.51,7,7,0,0,0-.48,4.89,7.16,7.16,0,0,0,2.86,4.06l5.82-13A7.07,7.07,0,0,0,227,338.35Zm-17.06,37.8a7.09,7.09,0,0,0-3.37,3.5,7.24,7.24,0,0,0-.48,4.92,7.16,7.16,0,0,0,2.86,4l5.83-12.94A7.18,7.18,0,0,0,209.92,376.15Zm-.21,27a7.57,7.57,0,0,0-9.46-4.27,6.56,6.56,0,0,0-3.93,3.58,6.72,6.72,0,0,0-.16,5.45,7.1,7.1,0,0,0,3.74,4,7.3,7.3,0,0,0,5.51.32,6.66,6.66,0,0,0,4.08-3.47A6.54,6.54,0,0,0,209.71,403.17Zm-31,68.35a7.13,7.13,0,0,0-4-4.11,7.06,7.06,0,0,0-5.43-.16,6.47,6.47,0,0,0-3.9,3.55,6.79,6.79,0,0,0-.19,5.46,7,7,0,0,0,3.74,4,7.09,7.09,0,0,0,5.48.34,6.8,6.8,0,0,0,4.12-3.45A6.59,6.59,0,0,0,178.75,471.52ZM227,338.35a7,7,0,0,0-3.37,3.51,7,7,0,0,0-.48,4.89,7.16,7.16,0,0,0,2.86,4.06l5.82-13A7.07,7.07,0,0,0,227,338.35ZM178.75,471.52a7.13,7.13,0,0,0-4-4.11,7.06,7.06,0,0,0-5.43-.16,6.47,6.47,0,0,0-3.9,3.55,6.79,6.79,0,0,0-.19,5.46,7,7,0,0,0,3.74,4,7.09,7.09,0,0,0,5.48.34,6.8,6.8,0,0,0,4.12-3.45A6.59,6.59,0,0,0,178.75,471.52Zm31-68.35a7.57,7.57,0,0,0-9.46-4.27,6.56,6.56,0,0,0-3.93,3.58,6.72,6.72,0,0,0-.16,5.45,7.1,7.1,0,0,0,3.74,4,7.3,7.3,0,0,0,5.51.32,6.66,6.66,0,0,0,4.08-3.47A6.54,6.54,0,0,0,209.71,403.17Zm.21-27a7.09,7.09,0,0,0-3.37,3.5,7.24,7.24,0,0,0-.48,4.92,7.16,7.16,0,0,0,2.86,4l5.83-12.94A7.18,7.18,0,0,0,209.92,376.15ZM227,338.35a7,7,0,0,0-3.37,3.51,7,7,0,0,0-.48,4.89,7.16,7.16,0,0,0,2.86,4.06l5.82-13A7.07,7.07,0,0,0,227,338.35Zm-17.06,37.8a7.09,7.09,0,0,0-3.37,3.5,7.24,7.24,0,0,0-.48,4.92,7.16,7.16,0,0,0,2.86,4l5.83-12.94A7.18,7.18,0,0,0,209.92,376.15Zm-.21,27a7.57,7.57,0,0,0-9.46-4.27,6.56,6.56,0,0,0-3.93,3.58,6.72,6.72,0,0,0-.16,5.45,7.1,7.1,0,0,0,3.74,4,7.3,7.3,0,0,0,5.51.32,6.66,6.66,0,0,0,4.08-3.47A6.54,6.54,0,0,0,209.71,403.17Zm-31,68.35a7.13,7.13,0,0,0-4-4.11,7.06,7.06,0,0,0-5.43-.16,6.47,6.47,0,0,0-3.9,3.55,6.79,6.79,0,0,0-.19,5.46,7,7,0,0,0,3.74,4,7.09,7.09,0,0,0,5.48.34,6.8,6.8,0,0,0,4.12-3.45A6.59,6.59,0,0,0,178.75,471.52ZM227,338.35a7,7,0,0,0-3.37,3.51,7,7,0,0,0-.48,4.89,7.16,7.16,0,0,0,2.86,4.06l5.82-13A7.07,7.07,0,0,0,227,338.35ZM178.75,471.52a7.13,7.13,0,0,0-4-4.11,7.06,7.06,0,0,0-5.43-.16,6.47,6.47,0,0,0-3.9,3.55,6.79,6.79,0,0,0-.19,5.46,7,7,0,0,0,3.74,4,7.09,7.09,0,0,0,5.48.34,6.8,6.8,0,0,0,4.12-3.45A6.59,6.59,0,0,0,178.75,471.52Zm31-68.35a7.57,7.57,0,0,0-9.46-4.27,6.56,6.56,0,0,0-3.93,3.58,6.72,6.72,0,0,0-.16,5.45,7.1,7.1,0,0,0,3.74,4,7.3,7.3,0,0,0,5.51.32,6.66,6.66,0,0,0,4.08-3.47A6.54,6.54,0,0,0,209.71,403.17Zm.21-27a7.09,7.09,0,0,0-3.37,3.5,7.24,7.24,0,0,0-.48,4.92,7.16,7.16,0,0,0,2.86,4l5.83-12.94A7.18,7.18,0,0,0,209.92,376.15ZM227,338.35a7,7,0,0,0-3.37,3.51,7,7,0,0,0-.48,4.89,7.16,7.16,0,0,0,2.86,4.06l5.82-13A7.07,7.07,0,0,0,227,338.35Zm-17.06,37.8a7.09,7.09,0,0,0-3.37,3.5,7.24,7.24,0,0,0-.48,4.92,7.16,7.16,0,0,0,2.86,4l5.83-12.94A7.18,7.18,0,0,0,209.92,376.15Zm-.21,27a7.57,7.57,0,0,0-9.46-4.27,6.56,6.56,0,0,0-3.93,3.58,6.72,6.72,0,0,0-.16,5.45,7.1,7.1,0,0,0,3.74,4,7.3,7.3,0,0,0,5.51.32,6.66,6.66,0,0,0,4.08-3.47A6.54,6.54,0,0,0,209.71,403.17Zm-31,68.35a7.13,7.13,0,0,0-4-4.11,7.06,7.06,0,0,0-5.43-.16,6.47,6.47,0,0,0-3.9,3.55,6.79,6.79,0,0,0-.19,5.46,7,7,0,0,0,3.74,4,7.09,7.09,0,0,0,5.48.34,6.8,6.8,0,0,0,4.12-3.45A6.59,6.59,0,0,0,178.75,471.52ZM227,338.35a7,7,0,0,0-3.37,3.51,7,7,0,0,0-.48,4.89,7.16,7.16,0,0,0,2.86,4.06l5.82-13A7.07,7.07,0,0,0,227,338.35Zm52.9-72.62-38.52,3.34L137,482.94l53.41,36.81,24.8-67.5,99.3,1.39,16.63,50.58,24.51-5.75Zm-13.32,28.68,26,93.13-61.77,14.14ZM229.7,374.23a4.83,4.83,0,0,0-2-1.29l-16.92-7.62,1.07-2.35,17.33,7.83a5.36,5.36,0,0,1,2.91,2.33,5.1,5.1,0,0,1,.24,3.42l-.16.7-2.27-1A2.12,2.12,0,0,0,229.7,374.23Zm-8.23-33.76a9.68,9.68,0,0,1,5.45-4.63,8.83,8.83,0,0,1,6.77.19l1.2.53-6.84,15.19a7,7,0,0,0,5.18-.27,7.15,7.15,0,0,0,3.66-3.74,6.65,6.65,0,0,0-1.12-7.41l1.07-2.38a9.3,9.3,0,0,1,2.89,5.14,9.43,9.43,0,0,1-.62,5.74,9.15,9.15,0,0,1-5.32,5,9.64,9.64,0,0,1-12.72-5.69A9.12,9.12,0,0,1,221.47,340.47Zm-6.12,14.83,16.89,7.62-1,2.27-16.9-7.62Zm-6-2.67,4,1.79-1,2.24-4-1.79Zm-3.45,7.67,4,1.82-1.07,2.32-4-1.79ZM173.14,433l4,1.77-1,2.24-4-1.76Zm10.24,38.25-2.65-1.17a9,9,0,0,1,0,8.1,9.07,9.07,0,0,1-5.37,4.7,9.8,9.8,0,0,1-12.4-5.83,8.82,8.82,0,0,1,.34-7.43,9.26,9.26,0,0,1,5.43-4.81,9,9,0,0,1,7.19.38l.11,0L184.4,469Zm8.21-18.17-9.12,2.48,2.19,4.23,3.24,1.47-1.1,2.43L164,453.4l1.07-2.32,16.09,7.24-6.61-12.4,1.26-2.81,5.61,10.29,11.53-3.21Zm3.39-7.54L178.09,438l1-2.24,16.9,7.61Zm9.17-20.32-9.86-4.46a5.85,5.85,0,0,0-7.57,2.86,5.84,5.84,0,0,0,2.83,7.62l9.87,4.44-1,2.24-9.62-4.33a8.14,8.14,0,0,1-4.49-4.6,8.38,8.38,0,0,1,4.81-10.69,8.16,8.16,0,0,1,6.41.32l9.65,4.33Zm7.51-15.39a9.1,9.1,0,0,1-5.37,4.76,9.42,9.42,0,0,1-7.22-.33,9.56,9.56,0,0,1-5.19-5.5,9,9,0,0,1,.3-7.41,9.24,9.24,0,0,1,5.8-4.86l-8.5-3.82,1-2.28,14.39,6.5a9.66,9.66,0,0,1,4.78,12.94Zm-2.33-18.29A9.41,9.41,0,0,1,204,386a9.13,9.13,0,0,1,.42-7.7,9.43,9.43,0,0,1,5.43-4.6,9,9,0,0,1,6.76.16l1.2.57L211,389.54a6.78,6.78,0,0,0,5.16-.26,7,7,0,0,0,3.66-3.75,6.56,6.56,0,0,0-1.12-7.37l1.07-2.41a9.24,9.24,0,0,1,2.88,5.16,9.46,9.46,0,0,1-.61,5.75,9.17,9.17,0,0,1-5.32,5A9.27,9.27,0,0,1,209.33,391.57Zm10,43.23,4.41-11.23,74.53-18.42,8,24.11Zm6.66-84,5.82-13a7.07,7.07,0,0,0-4.83.5,7,7,0,0,0-3.37,3.51,7,7,0,0,0-.48,4.89A7.16,7.16,0,0,0,226,350.81Zm-16.07,25.34a7.09,7.09,0,0,0-3.37,3.5,7.24,7.24,0,0,0-.48,4.92,7.16,7.16,0,0,0,2.86,4l5.83-12.94A7.18,7.18,0,0,0,209.92,376.15Zm-4.25,22.94a7.18,7.18,0,0,0-5.42-.19,6.56,6.56,0,0,0-3.93,3.58,6.72,6.72,0,0,0-.16,5.45,7.1,7.1,0,0,0,3.74,4,7.3,7.3,0,0,0,5.51.32,6.66,6.66,0,0,0,4.08-3.47,6.54,6.54,0,0,0,.22-5.65A7.12,7.12,0,0,0,205.67,399.09Zm-36.35,68.16a6.47,6.47,0,0,0-3.9,3.55,6.79,6.79,0,0,0-.19,5.46,7,7,0,0,0,3.74,4,7.09,7.09,0,0,0,5.48.34,6.8,6.8,0,0,0,4.12-3.45,6.59,6.59,0,0,0,.18-5.64,7.13,7.13,0,0,0-4-4.11A7.06,7.06,0,0,0,169.32,467.25ZM227,338.35a7,7,0,0,0-3.37,3.51,7,7,0,0,0-.48,4.89,7.16,7.16,0,0,0,2.86,4.06l5.82-13A7.07,7.07,0,0,0,227,338.35ZM178.75,471.52a7.13,7.13,0,0,0-4-4.11,7.06,7.06,0,0,0-5.43-.16,6.47,6.47,0,0,0-3.9,3.55,6.79,6.79,0,0,0-.19,5.46,7,7,0,0,0,3.74,4,7.09,7.09,0,0,0,5.48.34,6.8,6.8,0,0,0,4.12-3.45A6.59,6.59,0,0,0,178.75,471.52Zm31-68.35a7.57,7.57,0,0,0-9.46-4.27,6.56,6.56,0,0,0-3.93,3.58,6.72,6.72,0,0,0-.16,5.45,7.1,7.1,0,0,0,3.74,4,7.3,7.3,0,0,0,5.51.32,6.66,6.66,0,0,0,4.08-3.47A6.54,6.54,0,0,0,209.71,403.17Zm.21-27a7.09,7.09,0,0,0-3.37,3.5,7.24,7.24,0,0,0-.48,4.92,7.16,7.16,0,0,0,2.86,4l5.83-12.94A7.18,7.18,0,0,0,209.92,376.15ZM227,338.35a7,7,0,0,0-3.37,3.51,7,7,0,0,0-.48,4.89,7.16,7.16,0,0,0,2.86,4.06l5.82-13A7.07,7.07,0,0,0,227,338.35Zm-17.06,37.8a7.09,7.09,0,0,0-3.37,3.5,7.24,7.24,0,0,0-.48,4.92,7.16,7.16,0,0,0,2.86,4l5.83-12.94A7.18,7.18,0,0,0,209.92,376.15Zm-.21,27a7.57,7.57,0,0,0-9.46-4.27,6.56,6.56,0,0,0-3.93,3.58,6.72,6.72,0,0,0-.16,5.45,7.1,7.1,0,0,0,3.74,4,7.3,7.3,0,0,0,5.51.32,6.66,6.66,0,0,0,4.08-3.47A6.54,6.54,0,0,0,209.71,403.17Zm-31,68.35a7.13,7.13,0,0,0-4-4.11,7.06,7.06,0,0,0-5.43-.16,6.47,6.47,0,0,0-3.9,3.55,6.79,6.79,0,0,0-.19,5.46,7,7,0,0,0,3.74,4,7.09,7.09,0,0,0,5.48.34,6.8,6.8,0,0,0,4.12-3.45A6.59,6.59,0,0,0,178.75,471.52ZM227,338.35a7,7,0,0,0-3.37,3.51,7,7,0,0,0-.48,4.89,7.16,7.16,0,0,0,2.86,4.06l5.82-13A7.07,7.07,0,0,0,227,338.35ZM178.75,471.52a7.13,7.13,0,0,0-4-4.11,7.06,7.06,0,0,0-5.43-.16,6.47,6.47,0,0,0-3.9,3.55,6.79,6.79,0,0,0-.19,5.46,7,7,0,0,0,3.74,4,7.09,7.09,0,0,0,5.48.34,6.8,6.8,0,0,0,4.12-3.45A6.59,6.59,0,0,0,178.75,471.52Zm31-68.35a7.57,7.57,0,0,0-9.46-4.27,6.56,6.56,0,0,0-3.93,3.58,6.72,6.72,0,0,0-.16,5.45,7.1,7.1,0,0,0,3.74,4,7.3,7.3,0,0,0,5.51.32,6.66,6.66,0,0,0,4.08-3.47A6.54,6.54,0,0,0,209.71,403.17Zm.21-27a7.09,7.09,0,0,0-3.37,3.5,7.24,7.24,0,0,0-.48,4.92,7.16,7.16,0,0,0,2.86,4l5.83-12.94A7.18,7.18,0,0,0,209.92,376.15ZM227,338.35a7,7,0,0,0-3.37,3.51,7,7,0,0,0-.48,4.89,7.16,7.16,0,0,0,2.86,4.06l5.82-13A7.07,7.07,0,0,0,227,338.35Zm-17.06,37.8a7.09,7.09,0,0,0-3.37,3.5,7.24,7.24,0,0,0-.48,4.92,7.16,7.16,0,0,0,2.86,4l5.83-12.94A7.18,7.18,0,0,0,209.92,376.15Zm-.21,27a7.57,7.57,0,0,0-9.46-4.27,6.56,6.56,0,0,0-3.93,3.58,6.72,6.72,0,0,0-.16,5.45,7.1,7.1,0,0,0,3.74,4,7.3,7.3,0,0,0,5.51.32,6.66,6.66,0,0,0,4.08-3.47A6.54,6.54,0,0,0,209.71,403.17Zm-31,68.35a7.13,7.13,0,0,0-4-4.11,7.06,7.06,0,0,0-5.43-.16,6.47,6.47,0,0,0-3.9,3.55,6.79,6.79,0,0,0-.19,5.46,7,7,0,0,0,3.74,4,7.09,7.09,0,0,0,5.48.34,6.8,6.8,0,0,0,4.12-3.45A6.59,6.59,0,0,0,178.75,471.52ZM227,338.35a7,7,0,0,0-3.37,3.51,7,7,0,0,0-.48,4.89,7.16,7.16,0,0,0,2.86,4.06l5.82-13A7.07,7.07,0,0,0,227,338.35ZM178.75,471.52a7.13,7.13,0,0,0-4-4.11,7.06,7.06,0,0,0-5.43-.16,6.47,6.47,0,0,0-3.9,3.55,6.79,6.79,0,0,0-.19,5.46,7,7,0,0,0,3.74,4,7.09,7.09,0,0,0,5.48.34,6.8,6.8,0,0,0,4.12-3.45A6.59,6.59,0,0,0,178.75,471.52Zm31-68.35a7.57,7.57,0,0,0-9.46-4.27,6.56,6.56,0,0,0-3.93,3.58,6.72,6.72,0,0,0-.16,5.45,7.1,7.1,0,0,0,3.74,4,7.3,7.3,0,0,0,5.51.32,6.66,6.66,0,0,0,4.08-3.47A6.54,6.54,0,0,0,209.71,403.17Zm.21-27a7.09,7.09,0,0,0-3.37,3.5,7.24,7.24,0,0,0-.48,4.92,7.16,7.16,0,0,0,2.86,4l5.83-12.94A7.18,7.18,0,0,0,209.92,376.15ZM227,338.35a7,7,0,0,0-3.37,3.51,7,7,0,0,0-.48,4.89,7.16,7.16,0,0,0,2.86,4.06l5.82-13A7.07,7.07,0,0,0,227,338.35Zm-17.06,37.8a7.09,7.09,0,0,0-3.37,3.5,7.24,7.24,0,0,0-.48,4.92,7.16,7.16,0,0,0,2.86,4l5.83-12.94A7.18,7.18,0,0,0,209.92,376.15Zm-.21,27a7.57,7.57,0,0,0-9.46-4.27,6.56,6.56,0,0,0-3.93,3.58,6.72,6.72,0,0,0-.16,5.45,7.1,7.1,0,0,0,3.74,4,7.3,7.3,0,0,0,5.51.32,6.66,6.66,0,0,0,4.08-3.47A6.54,6.54,0,0,0,209.71,403.17Zm-31,68.35a7.13,7.13,0,0,0-4-4.11,7.06,7.06,0,0,0-5.43-.16,6.47,6.47,0,0,0-3.9,3.55,6.79,6.79,0,0,0-.19,5.46,7,7,0,0,0,3.74,4,7.09,7.09,0,0,0,5.48.34,6.8,6.8,0,0,0,4.12-3.45A6.59,6.59,0,0,0,178.75,471.52Zm0,0a7.13,7.13,0,0,0-4-4.11,7.06,7.06,0,0,0-5.43-.16,6.47,6.47,0,0,0-3.9,3.55,6.79,6.79,0,0,0-.19,5.46,7,7,0,0,0,3.74,4,7.09,7.09,0,0,0,5.48.34,6.8,6.8,0,0,0,4.12-3.45A6.59,6.59,0,0,0,178.75,471.52Zm31-68.35a7.57,7.57,0,0,0-9.46-4.27,6.56,6.56,0,0,0-3.93,3.58,6.72,6.72,0,0,0-.16,5.45,7.1,7.1,0,0,0,3.74,4,7.3,7.3,0,0,0,5.51.32,6.66,6.66,0,0,0,4.08-3.47A6.54,6.54,0,0,0,209.71,403.17Zm.21-27a7.09,7.09,0,0,0-3.37,3.5,7.24,7.24,0,0,0-.48,4.92,7.16,7.16,0,0,0,2.86,4l5.83-12.94A7.18,7.18,0,0,0,209.92,376.15Zm0,0a7.09,7.09,0,0,0-3.37,3.5,7.24,7.24,0,0,0-.48,4.92,7.16,7.16,0,0,0,2.86,4l5.83-12.94A7.18,7.18,0,0,0,209.92,376.15Zm-.21,27a7.57,7.57,0,0,0-9.46-4.27,6.56,6.56,0,0,0-3.93,3.58,6.72,6.72,0,0,0-.16,5.45,7.1,7.1,0,0,0,3.74,4,7.3,7.3,0,0,0,5.51.32,6.66,6.66,0,0,0,4.08-3.47A6.54,6.54,0,0,0,209.71,403.17Zm-31,68.35a7.13,7.13,0,0,0-4-4.11,7.06,7.06,0,0,0-5.43-.16,6.47,6.47,0,0,0-3.9,3.55,6.79,6.79,0,0,0-.19,5.46,7,7,0,0,0,3.74,4,7.09,7.09,0,0,0,5.48.34,6.8,6.8,0,0,0,4.12-3.45A6.59,6.59,0,0,0,178.75,471.52Zm0,0a7.13,7.13,0,0,0-4-4.11,7.06,7.06,0,0,0-5.43-.16,6.47,6.47,0,0,0-3.9,3.55,6.79,6.79,0,0,0-.19,5.46,7,7,0,0,0,3.74,4,7.09,7.09,0,0,0,5.48.34,6.8,6.8,0,0,0,4.12-3.45A6.59,6.59,0,0,0,178.75,471.52Zm31-68.35a7.57,7.57,0,0,0-9.46-4.27,6.56,6.56,0,0,0-3.93,3.58,6.72,6.72,0,0,0-.16,5.45,7.1,7.1,0,0,0,3.74,4,7.3,7.3,0,0,0,5.51.32,6.66,6.66,0,0,0,4.08-3.47A6.54,6.54,0,0,0,209.71,403.17Zm.21-27a7.09,7.09,0,0,0-3.37,3.5,7.24,7.24,0,0,0-.48,4.92,7.16,7.16,0,0,0,2.86,4l5.83-12.94A7.18,7.18,0,0,0,209.92,376.15Zm0,0a7.09,7.09,0,0,0-3.37,3.5,7.24,7.24,0,0,0-.48,4.92,7.16,7.16,0,0,0,2.86,4l5.83-12.94A7.18,7.18,0,0,0,209.92,376.15Zm-.21,27a7.57,7.57,0,0,0-9.46-4.27,6.56,6.56,0,0,0-3.93,3.58,6.72,6.72,0,0,0-.16,5.45,7.1,7.1,0,0,0,3.74,4,7.3,7.3,0,0,0,5.51.32,6.66,6.66,0,0,0,4.08-3.47A6.54,6.54,0,0,0,209.71,403.17Zm-31,68.35a7.13,7.13,0,0,0-4-4.11,7.06,7.06,0,0,0-5.43-.16,6.47,6.47,0,0,0-3.9,3.55,6.79,6.79,0,0,0-.19,5.46,7,7,0,0,0,3.74,4,7.09,7.09,0,0,0,5.48.34,6.8,6.8,0,0,0,4.12-3.45A6.59,6.59,0,0,0,178.75,471.52Zm0,0a7.13,7.13,0,0,0-4-4.11,7.06,7.06,0,0,0-5.43-.16,6.47,6.47,0,0,0-3.9,3.55,6.79,6.79,0,0,0-.19,5.46,7,7,0,0,0,3.74,4,7.09,7.09,0,0,0,5.48.34,6.8,6.8,0,0,0,4.12-3.45A6.59,6.59,0,0,0,178.75,471.52Zm31-68.35a7.57,7.57,0,0,0-9.46-4.27,6.56,6.56,0,0,0-3.93,3.58,6.72,6.72,0,0,0-.16,5.45,7.1,7.1,0,0,0,3.74,4,7.3,7.3,0,0,0,5.51.32,6.66,6.66,0,0,0,4.08-3.47A6.54,6.54,0,0,0,209.71,403.17Zm.21-27a7.09,7.09,0,0,0-3.37,3.5,7.24,7.24,0,0,0-.48,4.92,7.16,7.16,0,0,0,2.86,4l5.83-12.94A7.18,7.18,0,0,0,209.92,376.15Zm0,0a7.09,7.09,0,0,0-3.37,3.5,7.24,7.24,0,0,0-.48,4.92,7.16,7.16,0,0,0,2.86,4l5.83-12.94A7.18,7.18,0,0,0,209.92,376.15Zm-.21,27a7.57,7.57,0,0,0-9.46-4.27,6.56,6.56,0,0,0-3.93,3.58,6.72,6.72,0,0,0-.16,5.45,7.1,7.1,0,0,0,3.74,4,7.3,7.3,0,0,0,5.51.32,6.66,6.66,0,0,0,4.08-3.47A6.54,6.54,0,0,0,209.71,403.17Zm-31,68.35a7.13,7.13,0,0,0-4-4.11,7.06,7.06,0,0,0-5.43-.16,6.47,6.47,0,0,0-3.9,3.55,6.79,6.79,0,0,0-.19,5.46,7,7,0,0,0,3.74,4,7.09,7.09,0,0,0,5.48.34,6.8,6.8,0,0,0,4.12-3.45A6.59,6.59,0,0,0,178.75,471.52Zm0,0a7.13,7.13,0,0,0-4-4.11,7.06,7.06,0,0,0-5.43-.16,6.47,6.47,0,0,0-3.9,3.55,6.79,6.79,0,0,0-.19,5.46,7,7,0,0,0,3.74,4,7.09,7.09,0,0,0,5.48.34,6.8,6.8,0,0,0,4.12-3.45A6.59,6.59,0,0,0,178.75,471.52Zm31-68.35a7.57,7.57,0,0,0-9.46-4.27,6.56,6.56,0,0,0-3.93,3.58,6.72,6.72,0,0,0-.16,5.45,7.1,7.1,0,0,0,3.74,4,7.3,7.3,0,0,0,5.51.32,6.66,6.66,0,0,0,4.08-3.47A6.54,6.54,0,0,0,209.71,403.17Zm0,0a7.57,7.57,0,0,0-9.46-4.27,6.56,6.56,0,0,0-3.93,3.58,6.72,6.72,0,0,0-.16,5.45,7.1,7.1,0,0,0,3.74,4,7.3,7.3,0,0,0,5.51.32,6.66,6.66,0,0,0,4.08-3.47A6.54,6.54,0,0,0,209.71,403.17Zm-31,68.35a7.13,7.13,0,0,0-4-4.11,7.06,7.06,0,0,0-5.43-.16,6.47,6.47,0,0,0-3.9,3.55,6.79,6.79,0,0,0-.19,5.46,7,7,0,0,0,3.74,4,7.09,7.09,0,0,0,5.48.34,6.8,6.8,0,0,0,4.12-3.45A6.59,6.59,0,0,0,178.75,471.52Zm0,0a7.13,7.13,0,0,0-4-4.11,7.06,7.06,0,0,0-5.43-.16,6.47,6.47,0,0,0-3.9,3.55,6.79,6.79,0,0,0-.19,5.46,7,7,0,0,0,3.74,4,7.09,7.09,0,0,0,5.48.34,6.8,6.8,0,0,0,4.12-3.45A6.59,6.59,0,0,0,178.75,471.52Zm0,0a7.13,7.13,0,0,0-4-4.11,7.06,7.06,0,0,0-5.43-.16,6.47,6.47,0,0,0-3.9,3.55,6.79,6.79,0,0,0-.19,5.46,7,7,0,0,0,3.74,4,7.09,7.09,0,0,0,5.48.34,6.8,6.8,0,0,0,4.12-3.45A6.59,6.59,0,0,0,178.75,471.52Zm0,0a7.13,7.13,0,0,0-4-4.11,7.06,7.06,0,0,0-5.43-.16,6.47,6.47,0,0,0-3.9,3.55,6.79,6.79,0,0,0-.19,5.46,7,7,0,0,0,3.74,4,7.09,7.09,0,0,0,5.48.34,6.8,6.8,0,0,0,4.12-3.45A6.59,6.59,0,0,0,178.75,471.52Zm0,0a7.13,7.13,0,0,0-4-4.11,7.06,7.06,0,0,0-5.43-.16,6.47,6.47,0,0,0-3.9,3.55,6.79,6.79,0,0,0-.19,5.46,7,7,0,0,0,3.74,4,7.09,7.09,0,0,0,5.48.34,6.8,6.8,0,0,0,4.12-3.45A6.59,6.59,0,0,0,178.75,471.52Zm0,0a7.13,7.13,0,0,0-4-4.11,7.06,7.06,0,0,0-5.43-.16,6.47,6.47,0,0,0-3.9,3.55,6.79,6.79,0,0,0-.19,5.46,7,7,0,0,0,3.74,4,7.09,7.09,0,0,0,5.48.34,6.8,6.8,0,0,0,4.12-3.45A6.59,6.59,0,0,0,178.75,471.52Zm0,0a7.13,7.13,0,0,0-4-4.11,7.06,7.06,0,0,0-5.43-.16,6.47,6.47,0,0,0-3.9,3.55,6.79,6.79,0,0,0-.19,5.46,7,7,0,0,0,3.74,4,7.09,7.09,0,0,0,5.48.34,6.8,6.8,0,0,0,4.12-3.45A6.59,6.59,0,0,0,178.75,471.52Z" transform="translate(-136.95 -265.73)"/><path class="cls-1" d="M559.4,341.19l-.65.69a86.57,86.57,0,0,0-18.33,30.72,36.85,36.85,0,0,0-5.94-7.57c-6.89-6.79-14.65-10.1-23.73-10.1-9.25,0-17.11,3.31-24,10.1-.69.7-1.36,1.39-2,2.11a31.49,31.49,0,0,0-8,18.05c-.11,1.2-.19,2.43-.19,3.71v87.41H439.72l-40.2-48.68L385.7,445.09v31.22H350.12V276.42H385V390.51l51.11-66.16h34c-.56.35-1.12.69-1.66,1a76,76,0,0,0-12.29,10.18,73.9,73.9,0,0,0-18.07,30,83.37,83.37,0,0,0-3.32,16.89L421,400.66l13.57,16.25,7.84,9.39.18.24V385.21a74.47,74.47,0,0,1,3.16-17.27,68,68,0,0,1,27.1-35.84c1.29-.86,2.6-1.63,3.91-2.38a61.21,61.21,0,0,1,8-3.8,70.77,70.77,0,0,1,26-4.67C530.07,321.25,546.43,328,559.4,341.19Z" transform="translate(-136.95 -265.73)"/><path class="cls-1" d="M476.75,385.19v82.25l-.19-.25V388.9C476.56,387.62,476.64,386.39,476.75,385.19Z" transform="translate(-136.95 -265.73)"/><polygon class="cls-1" points="339.8 201.71 339.8 210.58 339.61 210.58 339.61 201.46 339.8 201.71"/><rect class="cls-1" x="305.64" width="34.16" height="47.75"/><path class="cls-1" d="M699.6,277.38v46.83l-4.39,2.86a88.82,88.82,0,0,0-10.16,7.78c-1.28,1.13-2.51,2.3-3.71,3.5a80.68,80.68,0,0,0-22,39,47.67,47.67,0,0,0-6.89-9.09c-8.32-8.66-18.1-12.88-29.94-12.88h-.64c-12,0-22,4.22-30.64,12.86a50.65,50.65,0,0,0-5.77,6.92v0a41.59,41.59,0,0,0-3.13,5.32c-.21.45-.42.9-.61,1.36a16.07,16.07,0,0,0-.64,1.5c-.4,1-.75,2-1.07,3-.14.4-.24.8-.35,1.21-.35,1.14-.61,2.35-.85,3.55a37.59,37.59,0,0,0-.59,4,40.63,40.63,0,0,0-.24,4.17,3.51,3.51,0,0,0,0,.56c0,.78,0,1.55,0,2.33a30.88,30.88,0,0,0,.24,3.34,39.09,39.09,0,0,0,.59,4.11v66.59H544.69v-62.9a84.25,84.25,0,0,1-.82-11.14c0-.32,0-.67,0-1,0-.64,0-1.29,0-1.9a78.15,78.15,0,0,1,20.82-52.1c.85-.93,1.74-1.87,2.64-2.78s2-2,3.08-2.94c14.38-13.18,31.38-19.86,50.57-19.86.94,0,1.85,0,2.76,0,15.69.64,29.67,5.32,41.69,13.95v-58.3Z" transform="translate(-136.95 -265.73)"/><path class="cls-1" d="M442.58,385.21v41.33l-.18-.24V390.8C442.4,388.9,442.48,387.06,442.58,385.21Z" transform="translate(-136.95 -265.73)"/><path class="cls-1" d="M442.58,385.21v41.33l-.18-.24V390.8C442.4,388.9,442.48,387.06,442.58,385.21Z" transform="translate(-136.95 -265.73)"/><path class="cls-1" d="M476.75,385.19v82.25l-.19-.25V388.9C476.56,387.62,476.64,386.39,476.75,385.19Z" transform="translate(-136.95 -265.73)"/><path class="cls-1" d="M665.43,399.86a47,47,0,0,1-.18,6c-.19-2.46-.3-4.94-.27-7.48,0-1.21,0-2.44.08-3.64A45.89,45.89,0,0,1,665.43,399.86Z" transform="translate(-136.95 -265.73)"/><path class="cls-1" d="M778.45,385.72,724.13,440a41.84,41.84,0,0,0,23.18,4.84,43.56,43.56,0,0,0,29.08-13.34l.46-.45c.56-.57,1.09-1.15,1.6-1.74v42.1a80.29,80.29,0,0,1-32.77,7.06c-22,.32-41-7-56.35-21.9a9.32,9.32,0,0,1-.77-.77l.72-.88a80.73,80.73,0,0,0,18-44.4l52.9-52.88a43,43,0,0,0-20.53-3.12c-10.4.91-19.35,5.16-27.37,13l-.48.46c-.64.64-1.26,1.28-1.85,1.95-.82.91-1.63,1.84-2.37,2.81-.38.5-.75,1-1.1,1.52s-.54.75-.78,1.12a36.65,36.65,0,0,0-2.13,3.58c-.35.65-.7,1.31-1,2,0,0,0,.06-.06.11a19.82,19.82,0,0,0-.85,2c-.32.78-.62,1.52-.88,2.33s-.51,1.57-.73,2.38-.34,1.44-.5,2.16c-.32,1.55-.62,3.13-.81,4.73,0,.14,0,.24,0,.38a44.47,44.47,0,0,0,.67,13.63,72.65,72.65,0,0,1-16.36,41.16,76.32,76.32,0,0,1-5.4,6.1c-.45.51-.93,1-1.44,1.47-15.32,15.07-33.55,22.72-54.13,22.72-.94,0-1.85,0-2.78,0a75.13,75.13,0,0,1-32.43-8V428c1,1.42,2.17,2.81,3.4,4.17,8.26,9.2,18.07,13.85,29.94,14.25,1,.06,1.84.08,2.67.08,11.52,0,21.2-4.3,29.59-13.15a50.45,50.45,0,0,0,7.62-10.32v0a43.41,43.41,0,0,0,5.16-17.22,47,47,0,0,0,.18-6,45.89,45.89,0,0,0-.37-5.16c.91-20,8.26-37,22-50.68,1.09-1.09,2.21-2.16,3.39-3.21a82.39,82.39,0,0,1,9.2-7,77.68,77.68,0,0,1,45.52-12.53c12.4.37,23.55,3,33.33,8Z" transform="translate(-136.95 -265.73)"/><path class="cls-1" d="M665.43,399.86a47,47,0,0,1-.18,6c-.19-2.46-.3-4.94-.27-7.48,0-1.21,0-2.44.08-3.64A45.89,45.89,0,0,1,665.43,399.86Z" transform="translate(-136.95 -265.73)"/><path class="cls-1" d="M814.19,398.34V399a96.62,96.62,0,0,0,.56,10.16c.13,1.31.29,2.62.48,3.69.16,1.28.38,2.51.59,3.66s.43,2.14.69,3.31l.59,2.33c.43,1.71.94,3.37,1.47,5.1.22.62.43,1.26.67,1.87l.13.43c.3.8.62,1.63.91,2.41s.73,1.76,1.07,2.56v37.13c0,14.73-2.88,25.13-8.79,31.78-6.44,7.52-15.48,12.41-26.81,14.49l-14.54,2.73V485.48l7.35-.62c4-.32,5.48-2,6.44-3.55,0-.08.61-1.12,1-4.52h0a79.27,79.27,0,0,0,.4-8.5V276.42h34.88v87c-1,2.17-1.81,4.38-2.59,6.66a86.34,86.34,0,0,0-4.22,20.77C814.35,393.26,814.22,395.74,814.19,398.34Z" transform="translate(-136.95 -265.73)"/><rect class="cls-1" x="685.25" width="34.16" height="47.75"/><path class="cls-1" d="M856.37,474.49v1.82H822.21V436.37c.08.17.13.3.21.46.27.59.56,1.18.8,1.66.38.77.78,1.55,1.13,2.22s.72,1.28,1.07,1.87l.16.37.4.62.91,1.47c.42.69.85,1.36,1.28,2s1,1.44,1.39,2a86.74,86.74,0,0,0,9.19,11c.75.75,1.5,1.5,2.25,2.22a86.71,86.71,0,0,0,10.75,8.9Z" transform="translate(-136.95 -265.73)"/><path class="cls-1" d="M856.37,324.35v.13l-4.44,2.94a85.91,85.91,0,0,0-9.59,7.38c-1.29,1.15-2.54,2.35-3.75,3.55a82,82,0,0,0-16.38,23.13V324.35Z" transform="translate(-136.95 -265.73)"/><path class="cls-1" d="M856.37,392.54v14.54a43.58,43.58,0,0,1-.37-12C856.08,394.22,856.24,393.37,856.37,392.54Z" transform="translate(-136.95 -265.73)"/><path class="cls-1" d="M856.37,392.54v14.54a43.58,43.58,0,0,1-.37-12C856.08,394.22,856.24,393.37,856.37,392.54Z" transform="translate(-136.95 -265.73)"/><path class="cls-1" d="M979.28,413.55a77.53,77.53,0,0,1-21.42,42l-.93,1c-14.25,14.24-32.42,21.62-54,21.92a78.41,78.41,0,0,1-38.54-8.88V410.71l53.09-53.06A43,43,0,0,0,897,354.53c-10.4.91-19.36,5.16-27.4,13l-.46.46a50.21,50.21,0,0,0-4.7,5.42,1,1,0,0,1-.13.17,3.79,3.79,0,0,0-.35.5c-.38.51-.7,1-1,1.5-.46.69-.89,1.39-1.29,2.08l-.16.27c-.19.38-.4.72-.59,1.1s-.4.72-.56,1.09c-.48.91-.88,1.88-1.28,2.84l-.08.21c-.24.56-.46,1.12-.64,1.69v.05c-.3.8-.56,1.63-.78,2.46-.13.48-.26,1-.35,1.41l-.08.33c0,.1,0,.21-.08.32-.1.45-.21.91-.29,1.36s-.24,1.15-.32,1.74c-.13.83-.29,1.68-.37,2.54a43.58,43.58,0,0,0,.37,12v57.6a79,79,0,0,1-9.78-8.1c-.78-.75-1.53-1.49-2.28-2.24a79.59,79.59,0,0,1-8.18-9.87c-.45-.61-.85-1.2-1.25-1.81s-.8-1.23-1.2-1.87-.65-1.07-1-1.61a5.09,5.09,0,0,0-.3-.56c-.32-.53-.64-1.1-.93-1.66s-.7-1.28-1-1.95c-.24-.48-.48-1-.69-1.44-.73-1.5-1.39-3.05-2-4.6-.27-.67-.53-1.36-.77-2.06v0c-.27-.73-.54-1.47-.78-2.2-.48-1.49-.93-3-1.34-4.57-.18-.75-.37-1.52-.56-2.27-.21-.91-.4-1.84-.56-2.75-.21-1.13-.4-2.22-.56-3.37s-.32-2.33-.45-3.5a87.33,87.33,0,0,1-.51-9.25v-.64c0-2.33.13-4.6.32-6.85a78.69,78.69,0,0,1,3.82-18.87A73.11,73.11,0,0,1,844.26,344c1.1-1.09,2.22-2.16,3.4-3.21a80.21,80.21,0,0,1,8.71-6.71,73.21,73.21,0,0,1,8-4.65c11.36-5.72,24.06-8.47,38-8.2,20.91.61,38.23,7.7,51.57,21.06l12.59,12.56L881.39,440a41.75,41.75,0,0,0,23.17,4.84,43.65,43.65,0,0,0,29.09-13.34l.45-.45c12.73-13.1,15.88-27.94,9.65-45.31L942,381l25.23-25.23,4.9,10.16A78,78,0,0,1,979.28,413.55Z" transform="translate(-136.95 -265.73)"/></svg>