<?xml version="1.0" encoding="UTF-8"?>
<svg version="1.1" xmlns="http://www.w3.org/2000/svg" width="1909" height="2218">
<path d="M0 0 C7.59407913 23.15766814 15.16739788 46.32082859 22.55908203 69.54400635 C29.82670893 92.37602751 37.28762484 115.14152725 44.79033279 137.89706039 C51.25641233 157.50947557 57.68567559 177.1304589 63.9375 196.8125 C70.9102574 218.76363518 78.11268184 240.63693596 85.32773972 262.50928116 C92.28323357 283.59604534 99.1871499 304.69530688 105.90771484 325.85839844 C112.29412785 345.95331331 118.89474353 365.97625908 125.5 386 C132.754014 407.99050749 139.96484411 429.99081341 146.97509766 452.06054688 C153.18121266 471.58525495 159.58478156 491.04328239 166 510.5 C172.72995792 530.91129105 179.43096909 551.32858996 185.9375 571.8125 C192.9102574 593.76363518 200.11268184 615.63693596 207.32773972 637.50928116 C214.28323357 658.59604534 221.1871499 679.69530688 227.90771484 700.85839844 C234.29412785 720.95331331 240.89474353 740.97625908 247.5 761 C254.754014 782.99050749 261.96484411 804.99081341 268.97509766 827.06054688 C275.18121266 846.58525495 281.58478156 866.04328239 288 885.5 C294.72995792 905.91129105 301.43096909 926.32858996 307.9375 946.8125 C314.9102574 968.76363518 322.11268184 990.63693596 329.32773972 1012.50928116 C336.28323357 1033.59604534 343.1871499 1054.69530688 349.90771484 1075.85839844 C356.29412785 1095.95331331 362.89474353 1115.97625908 369.5 1136 C376.754014 1157.99050749 383.96484411 1179.99081341 390.97509766 1202.06054688 C397.18121266 1221.58525495 403.58478156 1241.04328239 410 1260.5 C416.72995792 1280.91129105 423.43096909 1301.32858996 429.9375 1321.8125 C436.9102574 1343.76363518 444.11268184 1365.63693596 451.32773972 1387.50928116 C458.28323357 1408.59604534 465.1871499 1429.69530688 471.90771484 1450.85839844 C478.29412785 1470.95331331 484.89474353 1490.97625908 491.5 1511 C498.754014 1532.99050749 505.96484411 1554.99081341 512.97509766 1577.06054688 C519.18121266 1596.58525495 525.58478156 1616.04328239 532 1635.5 C538.72995792 1655.91129105 545.43096909 1676.32858996 551.9375 1696.8125 C558.9102574 1718.76363518 566.11268184 1740.63693596 573.32773972 1762.50928116 C580.28323357 1783.59604534 587.1871499 1804.69530688 593.90771484 1825.85839844 C600.29412839 1845.95331501 606.89483395 1865.97622795 613.5 1886 C621.1988038 1909.33967283 628.84890075 1932.69072144 636.27905273 1956.11767578 C639.57386421 1966.49340475 642.92713873 1976.84733198 646.35996056 1987.17826653 C647.0032661 1989.11521733 647.64527074 1991.05259423 648.28681946 1992.99012756 C648.71016674 1994.26840469 649.13352182 1995.54667923 649.55688477 1996.82495117 C649.86936645 1997.76858882 649.86936645 1997.76858882 650.1881609 1998.73128986 C651.61580317 2003.03849199 653.05862091 2007.34045647 654.50366211 2011.6418457 C655.24383013 2013.87304273 655.98352025 2016.10439838 656.72265625 2018.3359375 C657.07067291 2019.35937759 657.41868958 2020.38281769 657.7772522 2021.43727112 C658.08673798 2022.37884567 658.39622375 2023.32042023 658.71508789 2024.29052734 C658.98881729 2025.10790375 659.26254669 2025.92528015 659.54457092 2026.76742554 C660.04908785 2029.24063524 659.67944429 2030.60800934 659 2033 C618.52476709 2042.53397548 578.04759759 2052.05968711 537.56795442 2061.57492042 C528.20310163 2063.77625853 518.83862674 2065.97919228 509.47460938 2068.18408203 C501.3774883 2070.09058619 493.2795987 2071.99376289 485.1801672 2073.8904295 C481.39168364 2074.77762347 477.60363171 2075.66655609 473.81668091 2076.56027222 C469.7711088 2077.51495641 465.72360788 2078.46117088 461.67578125 2079.40625 C460.53655212 2079.67651505 459.397323 2079.94678009 458.22357178 2080.22523499 C457.19628967 2080.4635051 456.16900757 2080.70177521 455.1105957 2080.94726562 C454.23506546 2081.15275024 453.35953522 2081.35823486 452.45747375 2081.56994629 C449.9222663 2082.01360327 447.56835309 2082.07749612 445 2082 C443.39996548 2077.37727583 441.80554211 2072.75265407 440.21484375 2068.12670898 C439.68130185 2066.57711098 439.14660463 2065.02790991 438.61035156 2063.47924805 C433.74234796 2049.41560442 429.13903175 2035.26750114 424.54223442 2021.11356735 C419.99541139 2007.11355317 415.42055796 1993.12322571 410.80859375 1979.14453125 C410.36156349 1977.78942853 410.36156349 1977.78942853 409.90550232 1976.40695 C408.37928329 1971.7809926 406.85240001 1967.15525485 405.32507324 1962.52966309 C402.04126031 1952.58432917 398.76092656 1942.63784724 395.48046875 1932.69140625 C395.15482059 1931.70410397 394.82917244 1930.71680168 394.49365616 1929.69958115 C388.72910958 1912.22183712 382.98271277 1894.73820861 377.25 1877.25 C375.58610082 1872.1744256 373.92211288 1867.09888035 372.2578125 1862.0234375 C372.05009657 1861.38997721 371.84238064 1860.75651691 371.62837029 1860.10386086 C366.0850834 1843.2003492 360.52129231 1826.30358325 354.9584198 1809.4065094 C352.47469778 1801.86221342 349.99122162 1794.31783649 347.5078125 1786.7734375 C347.23582031 1785.94714844 346.96382812 1785.12085938 346.68359375 1784.26953125 C340.7844003 1766.34788656 334.89003334 1748.42465726 329 1730.5 C328.6469322 1729.42554878 328.6469322 1729.42554878 328.28673172 1728.32939148 C319.33449955 1701.08509718 310.40722124 1673.83266974 301.49573517 1646.57501984 C301.21525471 1645.71711365 300.93477426 1644.85920747 300.64579439 1643.97530413 C300.43268224 1643.32345376 300.21957009 1642.6716034 300 1642 C279.7276727 1641.24159955 259.46451947 1640.7683235 239.17986547 1640.49960389 C235.18393704 1640.44599358 231.1880578 1640.38890636 227.19217086 1640.33230257 C220.22136407 1640.23401403 213.25053078 1640.1378368 206.27967453 1640.04312325 C195.91193834 1639.90224391 185.54425145 1639.75795623 175.17657148 1639.61300616 C157.71520066 1639.36896762 140.25379423 1639.12757464 122.79236603 1638.88768005 C105.49007377 1638.64995381 88.18780108 1638.41086858 70.88555145 1638.1700592 C69.80520131 1638.15502325 68.72485117 1638.1399873 67.61176314 1638.12449572 C62.12309529 1638.04809723 56.63442781 1637.97167162 51.14576051 1637.89523345 C12.3198603 1637.35455056 -26.50607363 1636.81632827 -65.33203125 1636.27978516 C-67.67601372 1636.24739232 -70.01999619 1636.21499944 -72.36397865 1636.18260652 C-74.71071841 1636.15017576 -77.05745817 1636.11774502 -79.40419793 1636.08531427 C-84.10454831 1636.02035767 -88.80489867 1635.95540014 -93.50524902 1635.89044189 C-94.66976976 1635.87434868 -95.8342905 1635.85825547 -97.03409974 1635.84167458 C-124.04292318 1635.4684123 -151.05173686 1635.0944467 -178.06054688 1634.72021484 C-179.21677587 1634.70419482 -180.37300487 1634.68817479 -181.5642711 1634.67166931 C-208.02053684 1634.30510024 -234.47679755 1633.93817155 -260.93304825 1633.57051849 C-262.60644353 1633.54726444 -262.60644353 1633.54726444 -264.31364478 1633.52354061 C-274.35599919 1633.38398537 -284.39835339 1633.24441443 -294.44070652 1633.10476655 C-319.3796884 1632.75796819 -344.31868174 1632.4120351 -369.2577066 1632.06834005 C-386.65174627 1631.82862139 -404.04577162 1631.58788717 -421.43978295 1631.34612048 C-430.83531101 1631.2155639 -440.23084525 1631.08550028 -449.62639999 1630.95687675 C-488.42050667 1630.42555364 -527.21138702 1629.85625526 -566 1629 C-566.20365219 1629.68400122 -566.40730437 1630.36800243 -566.61712784 1631.07273096 C-566.88552398 1631.97139857 -567.15392012 1632.87006618 -567.43044949 1633.79596615 C-567.69597667 1634.68621736 -567.96150386 1635.57646858 -568.23507732 1636.49369711 C-569.1254185 1639.41093924 -570.1173541 1642.27695362 -571.16625977 1645.14086914 C-571.56912704 1646.24520798 -571.97199432 1647.34954681 -572.3870697 1648.48735046 C-572.81750076 1649.65812637 -573.24793182 1650.82890228 -573.69140625 1652.03515625 C-574.15340775 1653.29819427 -574.61515758 1654.56132436 -575.07667542 1655.82453918 C-576.31181704 1659.20295383 -577.5505389 1662.58004505 -578.79001617 1665.95687103 C-580.09559052 1669.51559299 -581.39791313 1673.07550479 -582.70068359 1676.63525391 C-585.5609675 1684.44877561 -588.42627765 1692.26044849 -591.29256439 1700.07176971 C-592.36365237 1702.9911934 -593.43402136 1705.91088058 -594.50439453 1708.83056641 C-604.03293403 1734.81948705 -613.60542778 1760.79222233 -623.17749023 1786.76513672 C-631.06643313 1808.17243754 -638.93514907 1829.58713544 -646.79833984 1851.00390625 C-650.15504778 1860.14618233 -653.51360019 1869.28778088 -656.87197876 1878.42944336 C-658.74805809 1883.53626903 -660.62402339 1888.64313659 -662.5 1893.75 C-663.24999945 1895.79166687 -663.99999945 1897.83333353 -664.75 1899.875 C-665.12125 1900.885625 -665.4925 1901.89625 -665.875 1902.9375 C-741.24999999 2108.12499996 -741.24999999 2108.12499996 -742.37483215 2111.18702698 C-743.12540554 2113.23026528 -743.87596501 2115.27350869 -744.62651062 2117.3167572 C-746.49262413 2122.39691969 -748.3589734 2127.47699532 -750.22583008 2132.55688477 C-753.70692339 2142.03002472 -757.18572983 2151.50398532 -760.65646362 2160.98092651 C-762.27634626 2165.40362844 -763.89752665 2169.82585417 -765.51879883 2174.24804688 C-766.2831154 2176.33391102 -767.04681284 2178.42000215 -767.80981445 2180.50634766 C-772.40122366 2193.06051646 -777.09921876 2205.56312088 -782 2218 C-785.41198411 2216.74218914 -788.23878805 2215.31057859 -791.1953125 2213.19921875 C-792.37734253 2212.36221436 -792.37734253 2212.36221436 -793.58325195 2211.50830078 C-794.42202881 2210.90743652 -795.26080566 2210.30657227 -796.125 2209.6875 C-797.93296266 2208.4066608 -799.74157134 2207.12673307 -801.55078125 2205.84765625 C-802.92097412 2204.87723389 -802.92097412 2204.87723389 -804.31884766 2203.88720703 C-808.28923635 2201.09253351 -812.2983619 2198.35629128 -816.3125 2195.625 C-823.34229064 2190.83386511 -830.33502005 2185.99197512 -837.3125 2181.125 C-844.84522935 2175.87211897 -852.40451518 2170.66171553 -860 2165.5 C-868.57120817 2159.67520549 -877.08985022 2153.77861799 -885.59008789 2147.85083008 C-893.96540188 2142.01374973 -902.38614024 2136.24514247 -910.81835938 2130.49072266 C-916.24777508 2126.78078395 -921.66197313 2123.04864405 -927.07910156 2119.32080078 C-928.96575832 2118.02354442 -930.85374916 2116.72825495 -932.7421875 2115.43359375 C-940.62132846 2110.0292461 -948.47321691 2104.58701823 -956.3125 2099.125 C-965.78023085 2092.52948462 -975.28765979 2085.99478116 -984.81835938 2079.49072266 C-990.24777508 2075.78078395 -995.66197313 2072.04864405 -1001.07910156 2068.32080078 C-1002.96575832 2067.02354442 -1004.85374916 2065.72825495 -1006.7421875 2064.43359375 C-1014.62132846 2059.0292461 -1022.47321691 2053.58701823 -1030.3125 2048.125 C-1039.78023085 2041.52948462 -1049.28765979 2034.99478116 -1058.81835938 2028.49072266 C-1064.24777508 2024.78078395 -1069.66197313 2021.04864405 -1075.07910156 2017.32080078 C-1076.96575832 2016.02354442 -1078.85374916 2014.72825495 -1080.7421875 2013.43359375 C-1088.62132846 2008.0292461 -1096.47321691 2002.58701823 -1104.3125 1997.125 C-1113.78023085 1990.52948462 -1123.28765979 1983.99478116 -1132.81835938 1977.49072266 C-1138.24777508 1973.78078395 -1143.66197313 1970.04864405 -1149.07910156 1966.32080078 C-1150.96575832 1965.02354442 -1152.85374916 1963.72825495 -1154.7421875 1962.43359375 C-1162.62132846 1957.0292461 -1170.47321691 1951.58701823 -1178.3125 1946.125 C-1187.78023085 1939.52948462 -1197.28765979 1932.99478116 -1206.81835938 1926.49072266 C-1210.93071062 1923.68073869 -1215.03401173 1920.85759696 -1219.13647461 1918.03320312 C-1222.5103659 1915.71054444 -1225.88719843 1913.39238464 -1229.26953125 1911.08203125 C-1235.9491135 1906.51460612 -1242.58870676 1901.94203854 -1249 1897 C-1248.36784153 1892.2780461 -1246.39876951 1888.339574 -1244.30078125 1884.125 C-1243.91842819 1883.3450769 -1243.53607513 1882.56515381 -1243.14213562 1881.76159668 C-1241.87095578 1879.17172189 -1240.59166945 1876.5859367 -1239.3125 1874 C-1238.41020909 1872.16500757 -1237.50852797 1870.32971518 -1236.60742188 1868.49414062 C-1234.70787938 1864.62629957 -1232.80542318 1860.75991175 -1230.90087891 1856.89453125 C-1226.70595099 1848.37647609 -1222.54088942 1839.843836 -1218.37380981 1831.31213379 C-1216.52725117 1827.53230203 -1214.67909156 1823.753254 -1212.83097839 1819.97418213 C-1207.17230006 1808.40271427 -1201.52149712 1796.82741614 -1195.875 1785.25 C-1195.26057037 1783.99020325 -1195.26057037 1783.99020325 -1194.63372803 1782.70495605 C-1191.75552689 1776.80344631 -1188.87771579 1770.90174642 -1186 1765 C-1182.70860716 1758.24986644 -1179.41703155 1751.49982209 -1176.125 1744.75 C-1175.71554138 1743.91045776 -1175.30608276 1743.07091553 -1174.88421631 1742.20593262 C-1167.80087572 1727.68339897 -1160.70540813 1713.16681214 -1153.60705566 1698.65161133 C-1147.02298271 1685.18768184 -1140.44494579 1671.72082888 -1133.875 1658.25 C-1133.26057037 1656.99020325 -1133.26057037 1656.99020325 -1132.63372803 1655.70495605 C-1129.75552689 1649.80344631 -1126.87771579 1643.90174642 -1124 1638 C-1120.70860716 1631.24986644 -1117.41703155 1624.49982209 -1114.125 1617.75 C-1113.71554138 1616.91045776 -1113.30608276 1616.07091553 -1112.88421631 1615.20593262 C-1105.80087572 1600.68339897 -1098.70540813 1586.16681214 -1091.60705566 1571.65161133 C-1085.02298271 1558.18768184 -1078.44494579 1544.72082888 -1071.875 1531.25 C-1071.26057037 1529.99020325 -1071.26057037 1529.99020325 -1070.63372803 1528.70495605 C-1067.75552689 1522.80344631 -1064.87771579 1516.90174642 -1062 1511 C-1058.70860716 1504.24986644 -1055.41703155 1497.49982209 -1052.125 1490.75 C-1051.71554138 1489.91045776 -1051.30608276 1489.07091553 -1050.88421631 1488.20593262 C-1043.80087572 1473.68339897 -1036.70540813 1459.16681214 -1029.60705566 1444.65161133 C-1023.02298271 1431.18768184 -1016.44494579 1417.72082888 -1009.875 1404.25 C-1009.26057037 1402.99020325 -1009.26057037 1402.99020325 -1008.63372803 1401.70495605 C-1005.75552689 1395.80344631 -1002.87771579 1389.90174642 -1000 1384 C-996.70860716 1377.24986644 -993.41703155 1370.49982209 -990.125 1363.75 C-989.71554138 1362.91045776 -989.30608276 1362.07091553 -988.88421631 1361.20593262 C-981.80087572 1346.68339897 -974.70540813 1332.16681214 -967.60705566 1317.65161133 C-961.02298271 1304.18768184 -954.44494579 1290.72082888 -947.875 1277.25 C-947.26057037 1275.99020325 -947.26057037 1275.99020325 -946.63372803 1274.70495605 C-943.75552689 1268.80344631 -940.87771579 1262.90174642 -938 1257 C-934.70860716 1250.24986644 -931.41703155 1243.49982209 -928.125 1236.75 C-927.71554138 1235.91045776 -927.30608276 1235.07091553 -926.88421631 1234.20593262 C-919.80087572 1219.68339897 -912.70540813 1205.16681214 -905.60705566 1190.65161133 C-899.02298271 1177.18768184 -892.44494579 1163.72082888 -885.875 1150.25 C-885.26057037 1148.99020325 -885.26057037 1148.99020325 -884.63372803 1147.70495605 C-881.75552689 1141.80344631 -878.87771579 1135.90174642 -876 1130 C-872.70860716 1123.24986644 -869.41703155 1116.49982209 -866.125 1109.75 C-865.71554138 1108.91045776 -865.30608276 1108.07091553 -864.88421631 1107.20593262 C-857.80087572 1092.68339897 -850.70540813 1078.16681214 -843.60705566 1063.65161133 C-837.02298271 1050.18768184 -830.44494579 1036.72082888 -823.875 1023.25 C-823.26057037 1021.99020325 -823.26057037 1021.99020325 -822.63372803 1020.70495605 C-819.75552689 1014.80344631 -816.87771579 1008.90174642 -814 1003 C-810.70860716 996.24986644 -807.41703155 989.49982209 -804.125 982.75 C-803.71554138 981.91045776 -803.30608276 981.07091553 -802.88421631 980.20593262 C-795.80087572 965.68339897 -788.70540813 951.16681214 -781.60705566 936.65161133 C-775.02298271 923.18768184 -768.44494579 909.72082888 -761.875 896.25 C-761.26057037 894.99020325 -761.26057037 894.99020325 -760.63372803 893.70495605 C-757.75552689 887.80344631 -754.87771579 881.90174642 -752 876 C-748.70860716 869.24986644 -745.41703155 862.49982209 -742.125 855.75 C-741.71554138 854.91045776 -741.30608276 854.07091553 -740.88421631 853.20593262 C-733.80087572 838.68339897 -726.70540813 824.16681214 -719.60705566 809.65161133 C-713.02298271 796.18768184 -706.44494579 782.72082888 -699.875 769.25 C-699.46538025 768.4101355 -699.0557605 767.570271 -698.63372803 766.70495605 C-695.75552689 760.80344631 -692.87771579 754.90174642 -690 749 C-686.70860716 742.24986644 -683.41703155 735.49982209 -680.125 728.75 C-679.51081207 727.49068665 -679.51081207 727.49068665 -678.88421631 726.20593262 C-671.80087572 711.68339897 -664.70540813 697.16681214 -657.60705566 682.65161133 C-651.02298271 669.18768184 -644.44494579 655.72082888 -637.875 642.25 C-637.46538025 641.4101355 -637.0557605 640.570271 -636.63372803 639.70495605 C-633.75552689 633.80344631 -630.87771579 627.90174642 -628 622 C-624.70860716 615.24986644 -621.41703155 608.49982209 -618.125 601.75 C-617.51081207 600.49068665 -617.51081207 600.49068665 -616.88421631 599.20593262 C-609.80087572 584.68339897 -602.70540813 570.16681214 -595.60705566 555.65161133 C-589.02298271 542.18768184 -582.44494579 528.72082888 -575.875 515.25 C-575.46538025 514.4101355 -575.0557605 513.570271 -574.63372803 512.70495605 C-571.75552689 506.80344631 -568.87771579 500.90174642 -566 495 C-562.70860716 488.24986644 -559.41703155 481.49982209 -556.125 474.75 C-555.71554138 473.91045776 -555.30608276 473.07091553 -554.88421631 472.20593262 C-547.80087572 457.68339897 -540.70540813 443.16681214 -533.60705566 428.65161133 C-527.02298271 415.18768184 -520.44494579 401.72082888 -513.875 388.25 C-513.46538025 387.4101355 -513.0557605 386.570271 -512.63372803 385.70495605 C-509.75552689 379.80344631 -506.87771579 373.90174642 -504 368 C-500.70860716 361.24986644 -497.41703155 354.49982209 -494.125 347.75 C-493.71554138 346.91045776 -493.30608276 346.07091553 -492.88421631 345.20593262 C-485.80087572 330.68339897 -478.70540813 316.16681214 -471.60705566 301.65161133 C-465.02298271 288.18768184 -458.44494579 274.72082888 -451.875 261.25 C-451.46538025 260.4101355 -451.0557605 259.570271 -450.63372803 258.70495605 C-447.75552689 252.80344631 -444.87771579 246.90174642 -442 241 C-438.70860716 234.24986644 -435.41703155 227.49982209 -432.125 220.75 C-431.51081207 219.49068665 -431.51081207 219.49068665 -430.88421631 218.20593262 C-423.80087572 203.68339897 -416.70540813 189.16681214 -409.60705566 174.65161133 C-400.54690848 156.12429797 -391.50262406 137.58927623 -382.46337891 119.05175781 C-380.40408387 114.82860493 -378.34463823 110.60552553 -376.28497314 106.3825531 C-375.4557413 104.68228958 -374.62659931 102.98198224 -373.79754639 101.28163147 C-371.73573311 97.05336932 -369.67219706 92.82596513 -367.60498047 88.6003418 C-363.60147562 80.41249259 -359.61711813 72.21646603 -355.68174744 63.99560547 C-353.76049533 59.9851878 -351.8301393 55.97918551 -349.89889526 51.97357178 C-348.97201675 50.04475699 -348.04953216 48.1138241 -347.13162231 46.1807251 C-345.85914982 43.50176497 -344.57191684 40.83038712 -343.28125 38.16015625 C-342.71850624 36.9601725 -342.71850624 36.9601725 -342.14439392 35.73594666 C-341.78801346 35.0058992 -341.431633 34.27585175 -341.06445312 33.52368164 C-340.76059692 32.88789688 -340.45674072 32.25211212 -340.14367676 31.59706116 C-338.1771407 28.85093701 -335.70976915 28.11892158 -332.44592857 27.57206619 C-331.47275499 27.48776827 -330.49958141 27.40347036 -329.49691772 27.31661797 C-328.37121715 27.21510079 -327.24551657 27.11358362 -326.08570385 27.00899017 C-324.84876435 26.9058693 -323.61182486 26.80274843 -322.33740234 26.69650269 C-321.02346402 26.58045437 -319.7095257 26.46440605 -318.35577106 26.34484112 C-314.70588283 26.02271939 -311.05517862 25.71086383 -307.4042604 25.40066504 C-303.46762616 25.06440253 -299.53181984 24.71869859 -295.59590149 24.37417603 C-287.88200391 23.70048344 -280.16737093 23.03560131 -272.45245188 22.37372003 C-263.46434938 21.60231209 -254.47698116 20.82251011 -245.4896282 20.04242648 C-229.44598361 18.65018941 -213.40165118 17.26604166 -197.35693359 15.88623047 C-181.79940168 14.54831268 -166.24243201 13.20407954 -150.68603516 11.85302734 C-133.74571689 10.38179399 -116.80512657 8.91377214 -99.86402512 7.45158207 C-98.05520376 7.2954611 -96.24638239 7.13934013 -94.43756104 6.98321915 C-93.10265236 6.86801148 -93.10265236 6.86801148 -91.74077582 6.75047638 C-85.48196394 6.21013048 -79.2233417 5.66762168 -72.96478271 5.12435532 C-65.32724963 4.46149608 -57.68939588 3.80247932 -50.05112118 3.14821945 C-46.15681723 2.81457064 -42.26266881 2.47933095 -38.36889076 2.13959503 C-34.797479 1.82804019 -31.22568402 1.52132914 -27.65353703 1.21832384 C-25.76347839 1.05679531 -23.87384823 0.89027645 -21.98424339 0.72352302 C-14.63677733 0.10639724 -7.37256792 -0.1268726 0 0 Z M-118 253 C-118.44506994 254.3353684 -118.44506994 254.3353684 -118.89913119 255.69771394 C-126.27068599 277.8147495 -133.64482256 299.9309228 -141.02113602 322.04637171 C-142.8391068 327.49696204 -144.65702184 332.94757097 -146.47492814 338.39818281 C-146.79337933 339.35299158 -147.11183053 340.30780035 -147.43993176 341.29154272 C-148.09516377 343.25611797 -148.75039567 345.22069325 -149.40562745 347.18526857 C-150.41297687 350.20559091 -151.42032976 353.2259121 -152.4276837 356.24623293 C-173.73768433 420.13942853 -195.04636815 484.03306311 -216.35162354 547.92784119 C-216.77506625 549.19775101 -217.19850898 550.46766083 -217.62195171 551.73757065 C-226.4923804 578.34010488 -235.36262706 604.94269979 -244.2326675 631.54536347 C-248.67342988 644.86391596 -253.1142285 658.18245636 -257.55506094 671.50098548 C-258.22477827 673.50953973 -258.89449458 675.51809431 -259.56421085 677.52664891 C-269.89422602 708.50749917 -280.22501115 739.48809242 -290.5579834 770.46795654 C-290.78075183 771.13585115 -291.00352026 771.80374575 -291.23303926 772.49187958 C-294.82603112 783.26421592 -298.41908616 794.03653118 -302.01214965 804.80884362 C-312.3599657 835.83248664 -322.70730912 866.85628693 -333.05151749 897.88113308 C-333.26406028 898.51860086 -333.47660308 899.15606864 -333.69558656 899.81285363 C-338.15076299 913.17504346 -342.60573644 926.53730096 -347.06046202 939.8996411 C-349.14595342 946.15525084 -351.23147854 952.41084933 -353.31702423 958.66644096 C-353.72744507 959.89750121 -354.13786591 961.12856146 -354.56072374 962.39692656 C-361.17429658 982.23409624 -367.79098065 1002.07022682 -374.40882288 1021.90597255 C-381.04675153 1041.80214215 -387.68143549 1061.6993913 -394.31275615 1081.59776432 C-398.25583281 1093.429284 -402.20144298 1105.25995188 -406.15061083 1117.08943985 C-408.78349504 1124.97689589 -411.41315066 1132.8654233 -414.04011602 1140.75485262 C-415.53966578 1145.25805813 -417.04067748 1149.76076244 -418.54560754 1154.26217306 C-419.91203261 1158.34939111 -421.27437824 1162.43794415 -422.63335484 1166.5276446 C-423.12500152 1168.00474341 -423.61818724 1169.48133099 -424.11302337 1170.95736438 C-424.78049258 1172.94905336 -425.44246891 1174.9424834 -426.10302329 1176.93647438 C-426.65678269 1178.59705066 -426.65678269 1178.59705066 -427.22172914 1180.29117394 C-428.13806905 1183.01082371 -428.13806905 1183.01082371 -428 1186 C-413.01852375 1182.91456029 -398.10499148 1179.55828113 -383.1953125 1176.14453125 C-380.67575515 1175.56888486 -378.15616712 1174.99337271 -375.6365509 1174.41798401 C-369.5731528 1173.03303455 -363.51015814 1171.64632693 -357.44730872 1170.25897771 C-352.48847459 1169.12430724 -347.52946457 1167.99040824 -342.57034302 1166.85699463 C-341.85802448 1166.69419211 -341.14570594 1166.53138959 -340.41180199 1166.36365366 C-338.96652707 1166.0333325 -337.52125214 1165.70301134 -336.07597721 1165.3726902 C-295.24457512 1156.04015887 -254.41902739 1146.68209478 -213.59594727 1137.31323242 C-168.29931404 1126.91789437 -122.99563834 1116.55339951 -77.69148254 1106.19090271 C-61.43375992 1102.47217381 -45.1763791 1098.75195398 -28.91923088 1095.03071499 C-24.22438954 1093.95607307 -19.52953492 1092.88148917 -14.83467102 1091.8069458 C-14.17614869 1091.65622525 -13.51762637 1091.5055047 -12.83914882 1091.35021687 C-10.19705831 1090.74550432 -7.55496744 1090.1407934 -4.91287529 1089.53608799 C2.05957902 1087.94027462 9.03201023 1086.34436047 16.00436401 1084.74810791 C21.88258531 1083.40235133 27.76088098 1082.05692011 33.63922691 1080.71170807 C35.88856311 1080.1969065 38.13787306 1079.68199028 40.38715553 1079.16695404 C52.28436818 1076.44284678 64.18369455 1073.72867629 76.08886719 1071.03955078 C78.16694439 1070.56959872 80.2450186 1070.09963341 82.3230896 1069.62965393 C86.19793911 1068.7534353 90.07353976 1067.88064867 93.94961548 1067.00987244 C95.66353988 1066.62266657 97.37743916 1066.23534947 99.09130859 1065.84790039 C99.87056576 1065.67386499 100.64982292 1065.4998296 101.45269394 1065.3205204 C105.33034563 1064.46899882 105.33034563 1064.46899882 109 1063 C106.05053214 1050.88325463 102.79765208 1038.86520622 99.44140625 1026.85546875 C98.89955547 1024.910576 98.35788335 1022.96563347 97.81637573 1021.02064514 C96.36856017 1015.82254134 94.91807153 1010.62518707 93.46699142 1005.42799377 C92.24634453 1001.05481945 91.02727988 996.6812047 89.80821705 992.30758858 C80.46790355 958.79797003 71.09490966 925.29751248 61.70684814 891.80124474 C56.1750616 872.06324922 50.65668504 852.32150538 45.13841629 832.57972717 C44.3124216 829.62471953 43.48640015 826.66971937 42.66036987 823.71472168 C40.16243769 814.7787375 37.66457152 805.84273486 35.16679287 796.90670776 C31.60504606 784.16426668 28.04287248 771.42194494 24.48046875 758.6796875 C24.07915458 757.24423773 24.07915458 757.24423773 23.66973305 755.77978897 C22.31981595 750.95131523 20.96989185 746.12284345 19.6199646 741.29437256 C17.18420817 732.58205382 14.748514 723.86971768 12.31281471 715.15738297 C10.95854565 710.31325461 9.60427263 705.46912736 8.25 700.625 C7.70833331 698.68750001 7.16666665 696.75000001 6.625 694.8125 C6.356875 693.8534375 6.08875 692.894375 5.8125 691.90625 C-48.6250004 497.18749857 -48.6250004 497.18749857 -49.43750763 494.28122234 C-49.97914861 492.34381446 -50.52078985 490.40640665 -51.06243134 488.46899891 C-52.41699306 483.62384009 -53.77155038 478.77868004 -55.12609863 473.93351746 C-57.55887648 465.23158909 -59.99168432 456.52966912 -62.42465973 447.82779598 C-63.77271189 443.00629724 -65.12073782 438.18479117 -66.46875 433.36328125 C-66.73590317 432.40774164 -67.00305634 431.45220203 -67.27830505 430.46770668 C-71.1638092 416.57003204 -75.04779562 402.67193385 -78.93098068 388.77361107 C-81.45367075 379.74481897 -83.97671783 370.71612664 -86.5 361.6875 C-86.90671558 360.23221579 -86.90671558 360.23221579 -87.32164764 358.74753189 C-97.17629101 323.48760227 -107.06865954 288.2384038 -117 253 C-117.33 253 -117.66 253 -118 253 Z M-499.62109375 636.21484375 C-513.10941735 652.00659207 -520.87919822 671.78729724 -520.28515625 692.65625 C-518.52573833 713.28723272 -510.81908911 732.43675402 -497 748 C-496.40832031 748.68578125 -495.81664062 749.3715625 -495.20703125 750.078125 C-480.88702271 765.58892316 -458.58767654 774.53099558 -437.81396484 775.40039062 C-414.36301319 775.809638 -391.45357121 766.3413505 -374.34985352 750.45874023 C-359.47188462 735.97453558 -351.19008018 715.92613594 -350.59936523 695.34765625 C-350.34577619 673.60953332 -356.38783207 653.5845328 -371 637 C-372.95021414 635.25809046 -374.95393008 633.63163933 -377 632 C-378.15272364 634.39272922 -379.29728845 636.78881621 -380.4375 639.1875 C-380.76298828 639.86103516 -381.08847656 640.53457031 -381.42382812 641.22851562 C-383.97050292 646.40407719 -383.97050292 646.40407719 -385 652 C-383.77352975 654.60612276 -383.77352975 654.60612276 -381.875 657.125 C-372.25945447 671.44275841 -369.14727659 685.41193528 -372.1875 702.375 C-375.70773128 718.63355656 -383.71305438 732.83181567 -397.375 742.71875 C-415.70016984 754.23071567 -433.06852779 755.46793622 -454 752 C-447.3409197 736.68939482 -440.51601559 721.45729027 -433.625 706.25 C-433.21199646 705.33847168 -432.79899292 704.42694336 -432.37347412 703.48779297 C-431.54124215 701.65102008 -430.70900747 699.81424843 -429.87677002 697.97747803 C-429.47013123 697.0799884 -429.06349243 696.18249878 -428.64453125 695.2578125 C-428.24159851 694.36854065 -427.83866577 693.4792688 -427.42352295 692.56304932 C-422.49303152 681.67815603 -417.59906293 670.777144 -412.72753906 659.86572266 C-411.45334869 657.01270939 -410.176008 654.16112206 -408.89746094 651.31005859 C-407.02532568 647.13518085 -405.15704778 642.9585947 -403.29110718 638.78094482 C-402.55948207 637.14451455 -401.82660612 635.5086429 -401.09243774 633.87335205 C-400.07246351 631.60070051 -399.05716475 629.32601604 -398.04296875 627.05078125 C-397.73430878 626.36582077 -397.4256488 625.68086029 -397.1076355 624.97514343 C-395.52568031 621.61770773 -395.52568031 621.61770773 -395 618 C-398.14104638 616.69647708 -401.28860948 615.40944511 -404.4375 614.125 C-405.75524414 613.57779297 -405.75524414 613.57779297 -407.09960938 613.01953125 C-439.9923944 599.66821629 -475.70451799 611.37692318 -499.62109375 636.21484375 Z M-617 760 C-618.19942605 762.59925496 -619.38472821 765.20345507 -620.5625 767.8125 C-620.90474609 768.55048828 -621.24699219 769.28847656 -621.59960938 770.04882812 C-621.91865234 770.76103516 -622.23769531 771.47324219 -622.56640625 772.20703125 C-622.86490479 772.8616333 -623.16340332 773.51623535 -623.47094727 774.19067383 C-624.24726917 776.20780553 -624.24726917 776.20780553 -623 779 C-620.71482646 780.25542204 -618.50584257 781.32509751 -616.12109375 782.35546875 C-615.09110008 782.81521843 -615.09110008 782.81521843 -614.04029846 783.28425598 C-611.84364784 784.26201388 -609.64081006 785.2248562 -607.4375 786.1875 C-605.94813708 786.84733614 -604.45919881 787.50813168 -602.97070312 788.16992188 C-599.31863853 789.79112632 -595.66095674 791.39898286 -592 793 C-589.37981368 789.62616162 -587.59238271 786.2687681 -585.8125 782.375 C-585.28269531 781.22773437 -584.75289062 780.08046875 -584.20703125 778.8984375 C-582.87185377 776.21557043 -582.87185377 776.21557043 -583 774 C-587.3566878 771.99898747 -591.71665452 770.00537255 -596.07983398 768.01855469 C-597.56383357 767.3415458 -599.04691484 766.66252024 -600.52905273 765.98144531 C-602.65891451 765.00314924 -604.79196731 764.03213975 -606.92578125 763.0625 C-607.58838455 762.75626709 -608.25098785 762.45003418 -608.93367004 762.13452148 C-611.81026797 760.83493827 -613.80413968 760 -617 760 Z M-564 783 C-565.34070318 785.60060504 -566.67273354 788.20504916 -568 790.8125 C-568.3815625 791.55048828 -568.763125 792.28847656 -569.15625 793.04882812 C-569.5171875 793.76103516 -569.878125 794.47324219 -570.25 795.20703125 C-570.58515625 795.8616333 -570.9203125 796.51623535 -571.265625 797.19067383 C-572.18804263 799.13784549 -572.18804263 799.13784549 -572 802 C-556.99498665 809.01900601 -541.95908693 815.95470131 -526.83154297 822.70654297 C-516.91682694 827.13277906 -507.02416919 831.60666694 -497.13504028 836.0897522 C-480.93703082 843.43202642 -464.71416433 850.71516938 -448.45678711 857.92504883 C-447.75413223 858.23671494 -447.05147736 858.54838104 -446.32752991 858.86949158 C-444.98777314 859.46275531 -443.64741445 860.05466207 -442.30638123 860.64503479 C-439.56304395 861.85381757 -436.83225269 863.07924958 -434.12158203 864.35986328 C-429.71839596 866.67455736 -429.71839596 866.67455736 -425 866 C-423.94083886 864.29635433 -423.94083886 864.29635433 -423.17578125 862.18359375 C-422.86962891 861.41982422 -422.56347656 860.65605469 -422.24804688 859.86914062 C-421.93931641 859.06669922 -421.63058594 858.26425781 -421.3125 857.4375 C-420.99216797 856.63119141 -420.67183594 855.82488281 -420.34179688 854.99414062 C-419.55122745 853.00001775 -418.774315 851.00049052 -418 849 C-428.50712263 843.63318826 -439.12104552 838.59341861 -449.89746094 833.79150391 C-453.36724554 832.24535038 -456.83352043 830.69139304 -460.30010986 829.13809204 C-462.1221606 828.3217648 -463.94438685 827.50582921 -465.76678467 826.6902771 C-474.65257945 822.71270879 -483.52231695 818.69999755 -492.39001465 814.68228149 C-499.36129366 811.52440394 -506.33491506 808.37169736 -513.3079834 805.21777344 C-516.07558191 803.96580941 -518.84296561 802.7133713 -521.61035156 801.4609375 C-526.23258056 799.36945192 -530.85609553 797.28083185 -535.48046875 795.1940918 C-537.22273992 794.40739975 -538.96461225 793.6198237 -540.70605469 792.83129883 C-543.11806973 791.73930956 -545.5315114 790.65053442 -547.9453125 789.5625 C-548.64552521 789.24462524 -549.34573792 788.92675049 -550.06716919 788.59924316 C-554.64944349 786.53909995 -559.28061371 784.72404895 -564 783 Z M-647 827 C-648.37021794 829.76317623 -649.71830176 832.53658478 -651.0625 835.3125 C-651.45244141 836.09818359 -651.84238281 836.88386719 -652.24414062 837.69335938 C-652.60830078 838.45068359 -652.97246094 839.20800781 -653.34765625 839.98828125 C-653.85824585 841.03302612 -653.85824585 841.03302612 -654.37915039 842.09887695 C-655.26901951 844.18479044 -655.26901951 844.18479044 -654 847 C-651.64118166 848.25689136 -649.35930972 849.32731548 -646.90234375 850.35546875 C-645.83905602 850.81521843 -645.83905602 850.81521843 -644.75428772 851.28425598 C-642.48623665 852.26216911 -640.21210251 853.22493753 -637.9375 854.1875 C-636.39996693 854.84732087 -634.86285164 855.50811617 -633.32617188 856.16992188 C-629.55553835 857.79130026 -625.77938107 859.39912404 -622 861 C-619.39619175 857.64316295 -617.59430396 854.30467453 -615.8125 850.4375 C-615.28269531 849.30183594 -614.75289062 848.16617188 -614.20703125 846.99609375 C-612.81315845 844.07457065 -612.81315845 844.07457065 -613 841 C-617.3566878 838.99898747 -621.71665452 837.00537255 -626.07983398 835.01855469 C-627.56383357 834.3415458 -629.04691484 833.66252024 -630.52905273 832.98144531 C-632.65891451 832.00314924 -634.79196731 831.03213975 -636.92578125 830.0625 C-637.58838455 829.75626709 -638.25098785 829.45003418 -638.93367004 829.13452148 C-641.81026797 827.83493827 -643.80413968 827 -647 827 Z M-595 850 C-596.34277732 852.7663534 -597.67255228 855.53876211 -599 858.3125 C-599.3815625 859.09818359 -599.763125 859.88386719 -600.15625 860.69335938 C-600.5171875 861.45068359 -600.878125 862.20800781 -601.25 862.98828125 C-601.75273438 864.03302612 -601.75273438 864.03302612 -602.265625 865.09887695 C-603.18016766 867.12673938 -603.18016766 867.12673938 -603 870 C-602.12939941 870.38518799 -601.25879883 870.77037598 -600.36181641 871.16723633 C-580.51643437 879.95151747 -560.71141221 888.82099603 -540.9440918 897.77954102 C-539.16716434 898.58481891 -537.39022749 899.39007606 -535.61328125 900.1953125 C-534.73437729 900.59360764 -533.85547333 900.99190277 -532.94993591 901.40226746 C-524.29163551 905.32417842 -515.6229487 909.22286107 -506.95306396 913.11907959 C-502.02339299 915.33530848 -497.09546091 917.55540203 -492.1673584 919.77511597 C-487.39636138 921.92339968 -482.62266694 924.06554918 -477.84700012 926.20343018 C-474.81757476 927.56108464 -471.79048504 928.92388781 -468.76394653 930.28796387 C-467.36559409 930.91690225 -465.9662776 931.54370274 -464.56588745 932.16809082 C-441.20651368 942.58697264 -441.20651368 942.58697264 -437 951 C-436.76970044 953.37123246 -436.58880058 955.74741943 -436.4375 958.125 C-436.35371094 959.40632812 -436.26992188 960.68765625 -436.18359375 962.0078125 C-436.12300781 962.99523437 -436.06242188 963.98265625 -436 965 C-433.58967749 966.20216334 -431.17316521 967.38674978 -428.75 968.5625 C-428.06808594 968.90474609 -427.38617187 969.24699219 -426.68359375 969.59960938 C-422.97831091 971.38030356 -420.92128522 972.3058334 -417 971 C-413.86420787 958.34483891 -413.6157225 946.31072119 -420.25 934.75 C-428.00929569 923.28374108 -441.78305411 917.99596971 -454.02340698 912.68179321 C-458.0195588 910.94601987 -462.00546127 909.18697618 -465.9921875 907.4296875 C-466.81732346 907.06649918 -467.64245941 906.70331085 -468.49259949 906.32911682 C-477.35234326 902.42062333 -486.14667263 898.3730491 -494.9375 894.3125 C-506.78739761 888.84493506 -518.657851 883.43275826 -530.57495117 878.11279297 C-543.65489223 872.27101892 -556.70191296 866.35669555 -569.75073242 860.44580078 C-570.62708847 860.04894577 -571.50344452 859.65209076 -572.40635681 859.24320984 C-574.04342612 858.50182308 -575.68036911 857.76015731 -577.31715393 857.0181427 C-578.80146883 856.34590034 -580.28642667 855.67507539 -581.77209473 855.00582886 C-583.34783543 854.2944317 -584.92109016 853.57751603 -586.49255371 852.85671997 C-587.30035278 852.48964935 -588.10815186 852.12257874 -588.94042969 851.74438477 C-590.03614288 851.24286644 -590.03614288 851.24286644 -591.1539917 850.73121643 C-592.97898088 849.87724392 -592.97898088 849.87724392 -595 850 Z M-651 969 C-653.62652093 972.52733158 -655.86683793 976.15709246 -658 980 C-658.53367187 980.93457031 -659.06734375 981.86914062 -659.6171875 982.83203125 C-670.19230115 1002.48280213 -671.14386246 1023.80014904 -664.875 1044.9375 C-660.93798067 1057.31612373 -654.69789986 1068.33948672 -646 1078 C-645.11441406 1079.02480469 -645.11441406 1079.02480469 -644.2109375 1080.0703125 C-631.01130092 1094.39332241 -609.19713626 1104.36198796 -589.85546875 1105.23828125 C-564.84868973 1105.83694059 -541.6653648 1097.4972973 -523.27734375 1080.2421875 C-508.2530633 1065.44984277 -499.33139888 1045.22113495 -498.96533203 1023.98925781 C-499.04159096 1002.05719082 -506.42740075 980.41774184 -522.0625 964.6875 C-523.031875 963.800625 -524.00125 962.91375 -525 962 C-527.76595087 965.35089516 -529.56919933 968.9890696 -531.3125 972.9375 C-531.7465918 973.84918945 -531.7465918 973.84918945 -532.18945312 974.77929688 C-533.47121962 977.68442533 -534.11969105 979.49413594 -533.37890625 982.625 C-531.89216137 985.18573906 -530.30812748 987.62600761 -528.625 990.0625 C-520.61471843 1002.394996 -518.27549479 1016.78392675 -520.49609375 1031.2265625 C-524.5718631 1048.68098716 -532.9456147 1063.86802951 -548 1074 C-562.63932702 1083.09350954 -578.93568858 1086.02123355 -595.75 1082.5 C-597.83624829 1082.01230559 -599.92075444 1081.51673558 -602 1081 C-598.28941691 1071.20901019 -593.87736277 1061.7216974 -589.5625 1052.1875 C-588.74715264 1050.3816202 -587.9320513 1048.5756293 -587.1171875 1046.76953125 C-585.89042589 1044.05056732 -584.66352093 1041.33166929 -583.43582153 1038.61312866 C-580.10991281 1031.2483076 -576.80120876 1023.87592921 -573.5 1016.5 C-568.17889137 1004.61949397 -562.84151122 992.7463441 -557.5 980.875 C-557.11223389 980.01302002 -556.72446777 979.15104004 -556.32495117 978.26293945 C-555.5694546 976.58361157 -554.81372329 974.90438927 -554.05773926 973.22528076 C-553.34128847 971.63276188 -552.62600499 970.03971723 -551.9119873 968.44610596 C-550.41442883 965.10880544 -548.89865046 961.78743764 -547.32421875 958.48535156 C-546.85628906 957.50276367 -546.38835937 956.52017578 -545.90625 955.5078125 C-545.50728516 954.69199707 -545.10832031 953.87618164 -544.69726562 953.03564453 C-543.71580567 950.84161396 -543.71580567 950.84161396 -545 948 C-579.93841795 926.79950367 -625.38667204 939.35760921 -651 969 Z M-764 1090 C-764.96345444 1091.87237371 -765.92053102 1093.7480299 -766.875 1095.625 C-767.40867187 1096.66914062 -767.94234375 1097.71328125 -768.4921875 1098.7890625 C-769.91591539 1101.82093899 -770.97035834 1104.81782444 -772 1108 C-761.64657668 1113.29536295 -751.19195361 1118.25303667 -740.54507446 1122.92941284 C-738.19470283 1123.9617887 -735.84648723 1124.99893558 -733.4987793 1126.03735352 C-730.40587704 1127.40518093 -727.31237245 1128.77162728 -724.21826172 1130.13671875 C-718.74234394 1132.55396445 -713.27431147 1134.98855074 -707.8125 1137.4375 C-707.00651367 1137.79642334 -706.20052734 1138.15534668 -705.37011719 1138.52514648 C-700.11678192 1140.88321808 -700.11678192 1140.88321808 -699 1142 C-699.94359375 1142.3403125 -700.8871875 1142.680625 -701.859375 1143.03125 C-724.51568069 1151.47136911 -741.12734441 1166.8708642 -751.26953125 1188.875 C-760.15318297 1209.3675863 -758.70921477 1230.7441596 -750.6875 1251.25 C-745.95735467 1261.86047796 -740.21636607 1270.77007557 -732 1279 C-731.23945312 1279.77214844 -730.47890625 1280.54429687 -729.6953125 1281.33984375 C-719.84501143 1290.78644396 -707.91688983 1296.81587863 -695 1301 C-694.02160156 1301.3196875 -693.04320312 1301.639375 -692.03515625 1301.96875 C-671.06292338 1307.79886879 -649.40846965 1303.51547287 -630.42578125 1293.6640625 C-610.46576956 1282.32101033 -597.67679837 1264.88666505 -591.02905273 1243.12866211 C-585.19468893 1221.72163551 -589.64463741 1199.2515147 -600 1180 C-611.57784796 1159.91063328 -629.02069074 1149.34035228 -649.5625 1140.25 C-651.1149541 1139.55284519 -652.66694792 1138.85466459 -654.21850586 1138.15551758 C-658.09372926 1136.41218216 -661.97433954 1134.68125328 -665.85693359 1132.95440674 C-668.99110848 1131.55861348 -672.12057013 1130.15249532 -675.25 1128.74609375 C-679.85472282 1126.67768144 -684.46179733 1124.61463522 -689.0703125 1122.5546875 C-697.94471916 1118.5848371 -706.80204318 1114.57719083 -715.65936279 1110.56939697 C-718.40886959 1109.3254531 -721.15875867 1108.0823574 -723.90869141 1106.83935547 C-731.43830396 1103.43432166 -738.96534408 1100.02496552 -746.46875 1096.5625 C-748.02444702 1095.84646606 -748.02444702 1095.84646606 -749.61157227 1095.1159668 C-751.42686438 1094.27865841 -753.24004906 1093.43675737 -755.05053711 1092.58911133 C-759.34471478 1090.57117397 -759.34471478 1090.57117397 -764 1090 Z M150.1701355 1219.35946655 C148.95048599 1219.66160568 147.73083649 1219.96374481 146.47422791 1220.27503967 C145.11805681 1220.61477499 143.76190197 1220.9545752 142.40576172 1221.29443359 C140.97706012 1221.64976337 139.54828103 1222.0047817 138.11943054 1222.35951233 C134.21115832 1223.33071648 130.30397879 1224.30625399 126.39695501 1225.28246641 C122.23437577 1226.32168427 118.07076426 1227.35674979 113.90725708 1228.39224243 C105.93296299 1230.37613899 97.95953271 1232.36348416 89.98643124 1234.35216773 C75.17653239 1238.04596175 60.36484006 1241.7325593 45.55330658 1245.41979218 C42.08443468 1246.2833634 38.61561144 1247.14712973 35.1468277 1248.01105499 C3.55460625 1255.8790891 -28.05288302 1263.68424794 -59.66583657 1271.46850085 C-73.33177791 1274.83361257 -86.99484777 1278.21025533 -100.65625 1281.59375 C-101.6562138 1281.84138721 -102.6561776 1282.08902443 -103.68644333 1282.3441658 C-108.62052839 1283.56612504 -113.55454988 1284.78834069 -118.48852539 1286.01074219 C-129.20039373 1288.66458196 -139.91265677 1291.31682786 -150.625 1293.96875 C-151.68650772 1294.23153748 -152.74801544 1294.49432495 -153.84169006 1294.76507568 C-173.05818449 1299.52201077 -192.27814296 1304.26478766 -211.5 1309 C-239.24724855 1315.83549425 -266.98824355 1322.69608571 -294.72732544 1329.56464386 C-342.19034526 1341.31709551 -342.19034526 1341.31709551 -360.4296875 1345.82617188 C-361.34190819 1346.05175939 -362.25412888 1346.2773469 -363.19399261 1346.50977039 C-367.66735248 1347.61575406 -372.14113849 1348.71995579 -376.61584473 1349.82048035 C-384.23555388 1351.69585363 -391.8522605 1353.57945337 -399.45374298 1355.52759457 C-403.47763248 1356.55866465 -407.50376789 1357.58071579 -411.53125 1358.59765625 C-412.30913376 1358.79428675 -413.08701752 1358.99091724 -413.88847351 1359.19350624 C-424.46153887 1361.84684967 -435.02445172 1363.9680295 -445.78451538 1365.70312119 C-472.76248467 1368.74822871 -472.76248467 1368.74822871 -494.86328125 1381.98876953 C-500.92776395 1390.7783177 -503.35650511 1401.14374169 -505.62535095 1411.43287659 C-508.37799484 1423.65178982 -513.29129124 1434.99181213 -518.07739258 1446.52484131 C-520.44586822 1452.26643821 -522.72470623 1458.04283423 -525.00390625 1463.8203125 C-525.40903946 1464.83802734 -525.81417267 1465.85574219 -526.23158264 1466.90429688 C-526.59803391 1467.82807129 -526.96448517 1468.7518457 -527.34204102 1469.70361328 C-527.66382828 1470.51323517 -527.98561554 1471.32285706 -528.31715393 1472.15701294 C-529.05790498 1473.82871414 -529.05790498 1473.82871414 -529 1475 C-519.88689122 1475.0902004 -510.85851801 1474.86490172 -501.76567745 1474.26877689 C-500.50500183 1474.18972293 -499.24432622 1474.11066896 -497.94544831 1474.02921942 C-494.47475423 1473.81145532 -491.00443006 1473.58823767 -487.53414524 1473.36405863 C-483.74792897 1473.12046485 -479.9613854 1472.88205734 -476.17488247 1472.6429686 C-469.54818733 1472.22383209 -462.92170767 1471.8014158 -456.29536057 1471.37681389 C-446.44205159 1470.74544589 -436.58842306 1470.11917708 -426.73472572 1469.49390325 C-409.13640048 1468.37702062 -391.53839915 1467.25510007 -373.94052946 1466.13106506 C-358.54582644 1465.1477721 -343.15101365 1464.16621943 -327.75609016 1463.1863842 C-326.73465422 1463.12137103 -325.71321827 1463.05635785 -324.66082973 1462.98937458 C-320.51451787 1462.72546947 -316.36820547 1462.46157285 -312.22189227 1462.19768873 C-273.34161767 1459.7232058 -234.46166375 1457.24371699 -195.58185927 1454.76185964 C-161.02673908 1452.55609239 -126.47136747 1450.35430641 -91.91577148 1448.15600586 C-83.06219349 1447.59276942 -74.20861575 1447.02952889 -65.35504055 1446.46624851 C-64.2651127 1446.39690546 -63.17518486 1446.32756241 -62.0522289 1446.25611806 C-33.18379002 1444.41939787 -4.31555285 1442.57951323 24.5526213 1440.73863739 C27.65749907 1440.5406478 30.7623769 1440.34265935 33.86725484 1440.14467265 C35.92697763 1440.01333134 37.98670027 1439.8819877 40.04642276 1439.75064172 C55.43908966 1438.76910181 70.83185735 1437.78915336 86.22467232 1436.80993843 C103.71628396 1435.69719223 121.20773652 1434.58198084 138.6989838 1433.46352119 C148.49371934 1432.83727339 158.28856987 1432.21289581 168.08359461 1431.59118727 C174.61861424 1431.17620819 181.15347417 1430.75877667 187.68820747 1430.33931294 C191.41617419 1430.100084 195.14420187 1429.86194286 198.87242622 1429.62675995 C202.88127327 1429.37384769 206.88976792 1429.11573185 210.89824772 1428.85706425 C212.06511772 1428.78428703 213.23198772 1428.7115098 214.43421742 1428.63652721 C215.49972863 1428.56690931 216.56523984 1428.49729141 217.66303927 1428.42556387 C218.58003661 1428.36707114 219.49703396 1428.3085784 220.44181911 1428.24831316 C223.01362488 1427.99867748 225.47713119 1427.55128774 228 1427 C226.77112201 1420.99627817 225.21664908 1415.21949407 223.26060486 1409.4143219 C222.99008712 1408.59949984 222.71956938 1407.78467778 222.44085413 1406.94516414 C221.54156939 1404.24007997 220.63591475 1401.53717418 219.73022461 1398.83422852 C219.08093202 1396.88555919 218.43203176 1394.9367591 217.78349304 1392.98783875 C216.02735593 1387.71430869 214.26564286 1382.44265691 212.50282359 1377.17135739 C210.65846212 1371.65333716 208.81898046 1366.13369054 206.97889709 1360.61424255 C203.89088076 1351.35388134 200.79948888 1342.09465275 197.70581055 1332.83618164 C193.7310629 1320.94086923 189.76190658 1309.04369901 185.7945013 1297.14593601 C182.38525518 1286.92217217 178.97345241 1276.69926185 175.56123662 1266.47648883 C174.46308331 1263.18613149 173.36528369 1259.89565631 172.26753044 1256.60516548 C170.54617075 1251.44596929 168.82322113 1246.28730672 167.09901619 1241.12906075 C166.46518064 1239.23208654 165.83185524 1237.33494179 165.19906616 1235.43761826 C164.33823904 1232.85687565 163.475577 1230.27675387 162.6124115 1227.6967926 C162.35988599 1226.9383496 162.10736049 1226.1799066 161.84718269 1225.39848047 C160.59721439 1221.62936173 160.59721439 1221.62936173 159 1218 C155.79381854 1218 153.28112592 1218.58414724 150.1701355 1219.35946655 Z M-821.02734375 1350.6171875 C-834.31927376 1366.67278613 -841.52943035 1385.98853379 -840.20263672 1406.90087891 C-838.26656955 1426.95666863 -827.45511877 1443.28012749 -812.41796875 1455.95703125 C-806.90184801 1460.30210332 -801.04417991 1463.26111163 -794.6875 1466.1875 C-793.5130835 1466.74010498 -792.33866699 1467.29270996 -791.12866211 1467.86206055 C-787.42971188 1469.59806838 -783.71713708 1471.30334145 -780 1473 C-778.84467773 1473.52754883 -777.68935547 1474.05509766 -776.49902344 1474.59863281 C-770.0225214 1477.54216351 -763.52858742 1480.44493062 -757.02357483 1483.32485962 C-752.60234617 1485.28373808 -748.18942585 1487.26051363 -743.77983093 1489.24543762 C-740.46160871 1490.73854181 -737.14132631 1492.22702982 -733.82077026 1493.7149353 C-732.19734318 1494.443465 -730.57471446 1495.17377648 -728.95291138 1495.90591431 C-726.68705381 1496.92817676 -724.41816232 1497.94339036 -722.1484375 1498.95703125 C-721.46856277 1499.26572144 -720.78868805 1499.57441162 -720.08821106 1499.89245605 C-717.20689743 1501.17190022 -715.19107689 1502 -712 1502 C-710.79783666 1499.58967749 -709.61325022 1497.17316521 -708.4375 1494.75 C-708.09525391 1494.06808594 -707.75300781 1493.38617187 -707.40039062 1492.68359375 C-705.52537079 1488.95920065 -705.52537079 1488.95920065 -705.19110107 1484.89500427 C-706.23227748 1482.45584448 -707.10551572 1482.06772461 -709.50878906 1481.00805664 C-710.25701935 1480.66946121 -711.00524963 1480.33086578 -711.77615356 1479.98200989 C-712.59767914 1479.62829819 -713.41920471 1479.27458649 -714.265625 1478.91015625 C-715.11832977 1478.52909225 -715.97103455 1478.14802826 -716.84957886 1477.75541687 C-719.64378031 1476.51054235 -722.44662811 1475.28656519 -725.25 1474.0625 C-727.1749385 1473.20941014 -729.09925287 1472.35491062 -731.02294922 1471.49902344 C-734.87571489 1469.78710226 -738.73171178 1468.08282697 -742.59082031 1466.38525391 C-747.29692226 1464.31350667 -751.99199131 1462.21849223 -756.6796875 1460.10546875 C-757.32277863 1459.81577209 -757.96586975 1459.52607544 -758.62844849 1459.2276001 C-760.46073279 1458.40195631 -762.29286867 1457.57598319 -764.125 1456.75 C-772.99217733 1452.7519616 -772.99217733 1452.7519616 -781.9375 1448.93359375 C-797.57109836 1442.44576447 -808.06335904 1434.44301324 -814.95703125 1418.7734375 C-819.50431634 1406.681406 -820.2135527 1391.81800987 -815.32421875 1379.671875 C-808.31765064 1365.53472873 -799.4662731 1358.01175165 -785 1352 C-779.61273051 1350.24533997 -774.45938998 1349.63562444 -768.8125 1349.625 C-768.14669922 1349.60050781 -767.48089844 1349.57601563 -766.79492188 1349.55078125 C-754.3767256 1349.48108136 -742.84565859 1355.65191688 -731.8621521 1360.82501221 C-728.62198989 1362.35101086 -725.37329367 1363.85843483 -722.12504578 1365.36712646 C-720.47301378 1366.13463238 -718.82141124 1366.9030634 -717.17024231 1367.67242432 C-706.16798251 1372.79575812 -695.08439041 1377.73603539 -683.99462891 1382.66650391 C-681.24742664 1383.88982192 -678.50409183 1385.12137414 -675.76171875 1386.35546875 C-674.29965701 1387.00821098 -672.83743475 1387.66059389 -671.375 1388.3125 C-670.18648437 1388.84488281 -668.99796875 1389.37726563 -667.7734375 1389.92578125 C-665.02945262 1391.18058916 -665.02945262 1391.18058916 -662 1391 C-660.79783666 1388.58967749 -659.61325022 1386.17316521 -658.4375 1383.75 C-658.09525391 1383.06808594 -657.75300781 1382.38617187 -657.40039062 1381.68359375 C-655.58342829 1377.99263833 -655.58342829 1377.99263833 -655.00488281 1373.97851562 C-656.57649598 1370.85379701 -659.41824238 1369.99534747 -662.48828125 1368.671875 C-663.16615692 1368.36573776 -663.84403259 1368.05960052 -664.54244995 1367.7441864 C-666.79309732 1366.73198403 -669.05247805 1365.7410729 -671.3125 1364.75 C-672.88704619 1364.04693299 -674.46101321 1363.34256758 -676.03442383 1362.63696289 C-680.177151 1360.78329325 -684.32751547 1358.94736863 -688.47961426 1357.11480713 C-692.5825704 1355.30000367 -696.6776936 1353.46772551 -700.7734375 1351.63671875 C-708.81910341 1348.04389559 -716.87145858 1344.46665634 -724.93453979 1340.91308594 C-727.07129883 1339.96848065 -729.20481865 1339.01680557 -731.33813477 1338.06445312 C-732.75141022 1337.43737687 -734.16473845 1336.81041957 -735.578125 1336.18359375 C-736.21312424 1335.89826279 -736.84812347 1335.61293182 -737.50236511 1335.31895447 C-766.56847915 1322.48008036 -798.6670494 1327.20086282 -821.02734375 1350.6171875 Z M-933 1461 C-936.96 1469.91 -936.96 1469.91 -941 1479 C-936.08787806 1482.68409146 -930.9256299 1484.88636315 -925.32739258 1487.35327148 C-923.43663375 1488.18788238 -921.55122605 1489.03380256 -919.66601562 1489.88085938 C-917.8803418 1490.67266602 -917.8803418 1490.67266602 -916.05859375 1491.48046875 C-914.96861084 1491.96410889 -913.87862793 1492.44774902 -912.75561523 1492.94604492 C-910.02470889 1494.17861863 -910.02470889 1494.17861863 -907 1494 C-904.36 1488.06 -901.72 1482.12 -899 1476 C-903.68061805 1473.86203417 -908.3617188 1471.72520294 -913.04418945 1469.59130859 C-914.63824777 1468.86444532 -916.23199863 1468.13690738 -917.82543945 1467.40869141 C-920.11069277 1466.36445069 -922.39702671 1465.3226103 -924.68359375 1464.28125 C-925.40026718 1463.95314331 -926.11694061 1463.62503662 -926.85533142 1463.2869873 C-929.81498921 1461.69636615 -929.81498921 1461.69636615 -933 1461 Z M-881 1485 C-884.96 1493.91 -884.96 1493.91 -889 1503 C-876.32758327 1509.52821468 -863.38887627 1515.37327387 -850.36740112 1521.16355896 C-841.83745844 1524.95811841 -833.32545643 1528.7925257 -824.8125 1532.625 C-823.12614152 1533.38379394 -821.43978082 1534.14258297 -819.75341797 1534.90136719 C-810.74419188 1538.95626987 -801.739016 1543.02003274 -792.73828125 1547.09375 C-791.80560928 1547.51586761 -790.87293732 1547.93798523 -789.91200256 1548.37289429 C-785.43535995 1550.39930027 -780.95917515 1552.42670999 -776.48364258 1554.45556641 C-772.46063166 1556.27871346 -768.43581569 1558.09781081 -764.40930176 1559.91320801 C-762.75055 1560.66144061 -761.09229361 1561.41077202 -759.43444824 1562.16101074 C-756.92413511 1563.29603369 -754.41159781 1564.42598528 -751.8984375 1565.5546875 C-751.13222076 1565.90209991 -750.36600403 1566.24951233 -749.5765686 1566.60745239 C-745.9322062 1568.37520719 -745.9322062 1568.37520719 -742 1569 C-740.8265684 1566.39869373 -739.66107492 1563.79431492 -738.5 1561.1875 C-737.99919922 1560.08051758 -737.99919922 1560.08051758 -737.48828125 1558.95117188 C-737.17246094 1558.23896484 -736.85664062 1557.52675781 -736.53125 1556.79296875 C-736.23798828 1556.1383667 -735.94472656 1555.48376465 -735.64257812 1554.80932617 C-734.83266576 1552.84883932 -734.83266576 1552.84883932 -735 1550 C-753.32213532 1541.52609158 -771.66199929 1533.10075407 -790.125 1524.9375 C-801.95522331 1519.70684804 -813.74523517 1514.39810379 -825.5 1509 C-837.18427188 1503.63796787 -848.88876916 1498.32359833 -860.62939453 1493.0859375 C-862.24275985 1492.36586436 -863.85556006 1491.64452362 -865.46777344 1490.921875 C-867.69689815 1489.92328675 -869.92815396 1488.9296365 -872.16015625 1487.9375 C-872.82608292 1487.63835693 -873.49200958 1487.33921387 -874.17811584 1487.03100586 C-877.46287455 1485.49935136 -877.46287455 1485.49935136 -881 1485 Z M-911 1551 C-912.54306134 1554.21899866 -914.05537167 1557.45154097 -915.5625 1560.6875 C-916.00013672 1561.59951172 -916.43777344 1562.51152344 -916.88867188 1563.45117188 C-917.29794922 1564.33740234 -917.70722656 1565.22363281 -918.12890625 1566.13671875 C-918.51119385 1566.94842529 -918.89348145 1567.76013184 -919.28735352 1568.59643555 C-920.83875877 1573.82890718 -918.22049836 1577.88619879 -915.82421875 1582.49609375 C-915.50312637 1583.11730606 -915.182034 1583.73851837 -914.85121155 1584.3785553 C-913.80303472 1586.40159988 -912.74557873 1588.41961904 -911.6875 1590.4375 C-910.95511231 1591.84490052 -910.22301841 1593.25245395 -909.49121094 1594.66015625 C-904.8633814 1603.54085504 -900.13210471 1612.36143156 -895.29956055 1621.13256836 C-891.25488315 1628.48347298 -887.37574148 1635.91391182 -883.51660156 1643.36352539 C-879.45410291 1651.18336787 -875.26174934 1658.92731075 -871.0078125 1666.64453125 C-868.22058657 1671.71081484 -865.54992455 1676.8099413 -863 1682 C-864.55267578 1681.25169922 -864.55267578 1681.25169922 -866.13671875 1680.48828125 C-878.89291875 1674.37584444 -891.78417451 1668.57898034 -904.70053101 1662.81530762 C-913.24645949 1659.00019064 -921.77887473 1655.15503489 -930.3125 1651.3125 C-931.99917604 1650.55320009 -933.68586228 1649.79392285 -935.37255859 1649.03466797 C-937.9439167 1647.87718677 -940.51526742 1646.71968922 -943.08657837 1645.56210327 C-949.41139033 1642.71477996 -955.73682763 1639.86884875 -962.0625 1637.0234375 C-964.77233362 1635.80440345 -967.48216049 1634.58535439 -970.19198608 1633.36630249 C-971.91544612 1632.59102747 -973.63893568 1631.81581808 -975.36245728 1631.04067993 C-976.99207667 1630.3077592 -978.62164076 1629.57471551 -980.25114441 1628.84153748 C-981.77862842 1628.15438616 -983.30630111 1627.46765407 -984.83418274 1626.78138733 C-989.9201235 1624.49476687 -994.98728918 1622.16986165 -1000.0378418 1619.8059082 C-1001.95480291 1618.87335745 -1001.95480291 1618.87335745 -1004 1619 C-1005.37021794 1621.76317623 -1006.71830176 1624.53658478 -1008.0625 1627.3125 C-1008.45244141 1628.09818359 -1008.84238281 1628.88386719 -1009.24414062 1629.69335938 C-1009.60830078 1630.45068359 -1009.97246094 1631.20800781 -1010.34765625 1631.98828125 C-1010.68804932 1632.68477783 -1011.02844238 1633.38127441 -1011.37915039 1634.09887695 C-1012.26901951 1636.18479044 -1012.26901951 1636.18479044 -1011 1639 C-1008.62129783 1640.32188204 -1006.30892991 1641.45694787 -1003.828125 1642.5546875 C-1003.08771469 1642.89218521 -1002.34730438 1643.22968292 -1001.5844574 1643.57740784 C-999.14408456 1644.68672868 -996.69722333 1645.7808849 -994.25 1646.875 C-992.54493071 1647.64633746 -990.84026271 1648.41856258 -989.13598633 1649.19165039 C-984.87200843 1651.1227211 -980.60263816 1653.04149048 -976.33087158 1654.95526123 C-974.23640163 1655.89404052 -972.14299349 1656.83511649 -970.05029297 1657.77783203 C-963.65871578 1660.65707116 -957.26133704 1663.52306 -950.86016846 1666.38090515 C-942.35892799 1670.17765312 -933.86642688 1673.99386421 -925.375 1677.8125 C-924.5263739 1678.19408264 -923.6777478 1678.57566528 -922.80340576 1678.96881104 C-910.78674869 1684.37403921 -898.79107445 1689.82343462 -886.8125 1695.3125 C-872.72497149 1701.76731019 -858.61032885 1708.15569839 -844.453125 1714.45654297 C-840.87974154 1716.0537524 -837.31462123 1717.66849681 -833.75 1719.28515625 C-831.45848022 1720.31543094 -829.16681962 1721.34539248 -826.875 1722.375 C-825.29114502 1723.09973511 -825.29114502 1723.09973511 -823.67529297 1723.83911133 C-822.70736816 1724.27118896 -821.73944336 1724.7032666 -820.7421875 1725.1484375 C-819.47157471 1725.72343994 -819.47157471 1725.72343994 -818.17529297 1726.31005859 C-815.85844716 1727.279618 -815.85844716 1727.279618 -813 1726 C-811.85042417 1724.33191598 -811.85042417 1724.33191598 -810.95703125 1722.25390625 C-810.60576172 1721.49916016 -810.25449219 1720.74441406 -809.89257812 1719.96679688 C-809.53615234 1719.17337891 -809.17972656 1718.37996094 -808.8125 1717.5625 C-808.44447266 1716.77294922 -808.07644531 1715.98339844 -807.69726562 1715.16992188 C-805.71662253 1711.23899966 -805.71662253 1711.23899966 -805 1707 C-805.76554199 1706.73598389 -806.53108398 1706.47196777 -807.31982422 1706.19995117 C-831.86266159 1697.4219507 -831.86266159 1697.4219507 -836.96972656 1688.32080078 C-838.43968942 1685.11486302 -839.75996882 1681.88025546 -840.97998047 1678.57128906 C-842.80977529 1673.95869953 -845.25708287 1669.66596071 -847.625 1665.3125 C-848.47387274 1663.70575517 -849.32047388 1662.09780669 -850.1640625 1660.48828125 C-851.07285156 1658.76158203 -851.07285156 1658.76158203 -852 1657 C-850.00052166 1656.49273103 -848.00034077 1655.98823239 -846 1655.484375 C-845.30849854 1655.30976746 -844.61699707 1655.13515991 -843.90454102 1654.95526123 C-838.91367043 1653.70415623 -833.91247453 1652.5056605 -828.90234375 1651.33398438 C-822.74118082 1649.89255172 -816.59600786 1648.39356782 -810.45932007 1646.85126495 C-806.86051432 1645.94912964 -803.25904407 1645.07289722 -799.64111328 1644.25048828 C-782.79943362 1641.26167922 -782.79943362 1641.26167922 -769.390625 1632.13476562 C-767.51880179 1628.89885501 -766.34774042 1625.64259105 -765.49804688 1622.0111084 C-764.64361731 1618.56093017 -763.28392727 1615.31035559 -762 1612 C-767.77599965 1612.59701329 -773.1283462 1613.69938204 -778.70751953 1615.28491211 C-779.53785706 1615.51593124 -780.36819458 1615.74695038 -781.22369385 1615.98497009 C-783.94496997 1616.7436003 -786.6638851 1617.51034241 -789.3828125 1618.27734375 C-791.2850182 1618.80966635 -793.18735394 1619.34152448 -795.08981323 1619.87294006 C-799.06655084 1620.98499705 -803.04222878 1622.10073686 -807.01708984 1623.21948242 C-812.10423869 1624.65126144 -817.19311355 1626.07677889 -822.28268623 1627.49991512 C-827.1499784 1628.86114432 -832.01644243 1630.22532238 -836.8828125 1631.58984375 C-837.80697086 1631.8487483 -838.73112923 1632.10765285 -839.68329239 1632.374403 C-842.30640733 1633.10988906 -844.92893009 1633.84744773 -847.55126953 1634.58569336 C-848.32129303 1634.80134949 -849.09131653 1635.01700562 -849.88467407 1635.23919678 C-853.96233981 1636.38976737 -857.99126538 1637.62301666 -862 1639 C-862.25869873 1638.31276855 -862.51739746 1637.62553711 -862.78393555 1636.91748047 C-864.16078994 1633.61424617 -865.77627828 1630.47515007 -867.45703125 1627.3203125 C-867.79607986 1626.67981964 -868.13512848 1626.03932678 -868.48445129 1625.37942505 C-869.59067983 1623.29294173 -870.70125474 1621.20881529 -871.8125 1619.125 C-872.38481354 1618.04889465 -872.38481354 1618.04889465 -872.96868896 1616.9510498 C-878.2232513 1607.07591174 -883.59960279 1597.28353445 -889.15625 1587.57446289 C-896.0289583 1575.52450187 -902.49635813 1563.25180333 -909 1551 C-909.66 1551 -910.32 1551 -911 1551 Z M-1009.09375 1764.43359375 C-1022.35328246 1782.30382728 -1029.87978727 1804.94814787 -1026.68359375 1827.203125 C-1024.96938582 1836.19023453 -1021.92936808 1844.74832703 -1018 1853 C-1017.58234375 1853.89976563 -1017.1646875 1854.79953125 -1016.734375 1855.7265625 C-1006.69473679 1875.74813985 -988.48670757 1889.46049048 -967.5 1896.4375 C-946.42057699 1903.34826892 -923.85238005 1901.4170704 -904.0234375 1891.625 C-882.84902762 1880.24443862 -868.75596664 1863.71732879 -861.5625 1840.8125 C-861.01035054 1838.88369089 -860.48594921 1836.94654231 -860 1835 C-859.80921875 1834.2471875 -859.6184375 1833.494375 -859.421875 1832.71875 C-856.74479418 1815.4664514 -860.44131771 1799.88971555 -867 1784 C-866.37955811 1784.27263672 -865.75911621 1784.54527344 -865.11987305 1784.82617188 C-862.31152592 1786.05645031 -859.49959245 1787.27830817 -856.6875 1788.5 C-855.22280273 1789.14388672 -855.22280273 1789.14388672 -853.72851562 1789.80078125 C-852.79072266 1790.20683594 -851.85292969 1790.61289063 -850.88671875 1791.03125 C-850.02264404 1791.40830078 -849.15856934 1791.78535156 -848.26831055 1792.17382812 C-845.93253896 1793.17111511 -845.93253896 1793.17111511 -843 1793 C-841.80057395 1790.40074504 -840.61527179 1787.79654493 -839.4375 1785.1875 C-839.09525391 1784.44951172 -838.75300781 1783.71152344 -838.40039062 1782.95117188 C-838.08134766 1782.23896484 -837.76230469 1781.52675781 -837.43359375 1780.79296875 C-836.98584595 1779.81106567 -836.98584595 1779.81106567 -836.52905273 1778.80932617 C-835.75273083 1776.79219447 -835.75273083 1776.79219447 -837 1774 C-839.6344977 1772.57946936 -842.21307648 1771.34298789 -844.94921875 1770.1484375 C-845.77731552 1769.77675949 -846.60541229 1769.40508148 -847.45860291 1769.0221405 C-850.1970512 1767.79600677 -852.94197253 1766.58518987 -855.6875 1765.375 C-857.58874976 1764.52939778 -859.48962501 1763.68295306 -861.39013672 1762.83569336 C-864.32353133 1761.52862493 -867.25746167 1760.2228545 -870.19342041 1758.92155457 C-876.71264949 1756.03059607 -883.20467785 1753.085525 -889.68359375 1750.10546875 C-892.19642833 1748.95646551 -894.70992884 1747.80893582 -897.2237854 1746.66217041 C-898.80015013 1745.94025174 -900.37458703 1745.21410553 -901.9468689 1744.4833374 C-915.23103611 1738.31789578 -928.60607721 1733.15862193 -943.5 1733.5 C-944.38163818 1733.51135986 -945.26327637 1733.52271973 -946.17163086 1733.53442383 C-970.52516159 1734.24584559 -993.32715903 1746.10787327 -1009.09375 1764.43359375 Z " fill="#000000" transform="translate(1249,0)"/>
<path d="M0 0 C12.45181731 9.59289383 22.55338055 25.11290222 24.76171875 40.86328125 C26.24477274 59.95810382 22.88268675 76.76783747 10.63671875 92.11328125 C-0.30476135 103.66533502 -16.41411018 111.50550936 -32.33984375 112.19921875 C-52.37306831 112.52910988 -69.17110281 108.26172254 -84.12573242 94.12060547 C-96.60144311 81.77701275 -103.16678713 65.37361578 -103.61328125 47.86328125 C-103.14481371 31.53898926 -97.10957014 15.72093198 -85.578125 3.97265625 C-61.00000304 -18.18458224 -26.77031355 -17.66388602 0 0 Z " fill="#000000" transform="translate(615.23828125,1171.13671875)"/>
<path d="M0 0 C13.73401467 10.58707049 23.64629025 25.61387549 26.13671875 43.046875 C27.2894055 61.80506882 23.96665833 78.40444502 11.38671875 92.984375 C-1.31001784 106.04551944 -19.16590828 112.81420048 -37.23828125 113.484375 C-55.04348153 112.9651468 -72.20782995 105.56193302 -84.86328125 93.046875 C-96.16018658 80.15857953 -102.75709289 63.46963975 -102.20703125 46.234375 C-100.30533566 28.6004704 -93.27424769 13.14290585 -79.86328125 1.27734375 C-56.53076522 -17.30399462 -24.05855081 -16.41101692 0 0 Z " fill="#000000" transform="translate(343.86328125,1766.953125)"/>
<path d="M0 0 C-1.57894854 5.11897256 -3.67083128 9.89325968 -5.89453125 14.75390625 C-6.27815323 15.59894714 -6.66177521 16.44398804 -7.05702209 17.31463623 C-7.879224 19.12494998 -8.7027661 20.93465554 -9.52752686 22.74380493 C-11.2636487 26.55213205 -12.99330618 30.36338297 -14.72332764 34.17448425 C-15.59250043 36.08903413 -16.46200716 38.00343244 -17.33184814 39.91767883 C-20.87001868 47.70539967 -24.38120184 55.50477359 -27.875 63.3125 C-28.38063477 64.44139648 -28.88626953 65.57029297 -29.40722656 66.73339844 C-31.82183032 72.12627229 -34.23279969 77.52075905 -36.64080811 82.9165802 C-37.8277237 85.57537632 -39.01597748 88.23357328 -40.20440674 90.89169312 C-41.03393813 92.74856542 -41.86148701 94.60632299 -42.68896484 96.46411133 C-45.33405721 102.38041073 -48.04217919 108.23331339 -51 114 C-60.65086756 110.8699889 -67.69216412 101.08886174 -72.4152832 92.46459961 C-79.82943213 77.93192797 -81.91969708 59.7874232 -77.15625 44.01953125 C-70.3586013 26.26756353 -60.23322601 12.42872088 -42.875 3.8125 C-28.59106629 -2.48631799 -15.07686098 -3.26616717 0 0 Z " fill="#000000" transform="translate(829,629)"/>
<path d="M0 0 C-2.41315486 8.16404499 -5.98335551 15.73928041 -9.57626343 23.43206787 C-11.49968792 27.55232595 -13.40606451 31.68045365 -15.3125 35.80859375 C-15.70422897 36.65629333 -16.09595795 37.50399292 -16.4995575 38.37738037 C-20.47902032 47.00637911 -24.3442359 55.68466871 -28.1875 64.375 C-29.49315006 67.32567122 -30.79909592 70.2762112 -32.10546875 73.2265625 C-32.42460739 73.94740524 -32.74374603 74.66824799 -33.07255554 75.41093445 C-36.67639345 83.54137046 -40.33462188 91.64716088 -44 99.75 C-44.30803558 100.43100769 -44.61607117 101.11201538 -44.93344116 101.81365967 C-46.62076355 105.54313413 -48.30963146 109.27190499 -50 113 C-55.81964464 113 -57.986067 109.93093815 -62 106 C-62.60328125 105.42121094 -63.2065625 104.84242187 -63.828125 104.24609375 C-75.15055215 92.43914832 -79.53522943 76.44983596 -79.42211914 60.44921875 C-78.87561151 44.50911416 -72.4127452 29.93994783 -62 18 C-61.50242187 17.39671875 -61.00484375 16.7934375 -60.4921875 16.171875 C-51.34762325 5.97040132 -35.8474683 -0.73426637 -22.37109375 -1.98046875 C-15.01462259 -2.04106571 -7.12557995 -1.91963202 0 0 Z " fill="#000000" transform="translate(680,959)"/>
</svg>
