<?xml version="1.0" encoding="UTF-8"?>
<svg version="1.1" xmlns="http://www.w3.org/2000/svg" width="3515" height="1063">
<path d="M0 0 C3.17037202 9.6237824 6.33676934 19.24886826 9.5 28.875 C9.73940811 29.60353683 9.97881622 30.33207367 10.22547913 31.08268738 C16.47841129 50.11399417 22.6820334 69.1587495 28.75 88.25 C35.78725081 110.38677967 43.05017157 132.44717835 50.32668686 154.50612259 C57.30470528 175.66138203 64.23115801 196.82922483 70.97509766 218.06054688 C77.18121266 237.58525495 83.58478156 257.04328239 90 276.5 C96.72995792 296.91129105 103.43096909 317.32858996 109.9375 337.8125 C116.9102574 359.76363518 124.11268184 381.63693596 131.32773972 403.50928116 C138.28323357 424.59604534 145.1871499 445.69530688 151.90771484 466.85839844 C158.29412785 486.95331331 164.89474353 506.97625908 171.5 527 C178.754014 548.99050749 185.96484411 570.99081341 192.97509766 593.06054688 C199.18121266 612.58525495 205.58478156 632.04328239 212 651.5 C218.72995792 671.91129105 225.43096909 692.32858996 231.9375 712.8125 C238.9102574 734.76363518 246.11268184 756.63693596 253.32773972 778.50928116 C260.28080492 799.58868247 267.18253996 820.68051023 273.90066528 841.83624268 C281.46485638 865.63730204 289.30655629 889.34729052 297.13476562 913.0625 C300.09761685 922.03911762 303.05407154 931.01781362 306 940 C306.34734066 941.05861992 306.34734066 941.05861992 306.7016983 942.1386261 C308.22706399 946.79037701 309.74285666 951.44514136 311.25390625 956.1015625 C311.63683334 957.27117523 312.01976044 958.44078796 312.41429138 959.64584351 C312.92960167 961.24161728 312.92960167 961.24161728 313.45532227 962.86962891 C313.7555983 963.79385651 314.05587433 964.71808411 314.36524963 965.6703186 C315 968 315 968 315 971 C291.24094698 976.87993236 267.44113916 982.57911026 243.60722351 988.14705658 C241.55794512 988.62606468 239.50886941 989.10593144 237.45983887 989.58599854 C233.60022234 990.49000531 229.73965037 991.38988269 225.87890625 992.2890625 C224.70677078 992.56359253 223.53463531 992.83812256 222.32698059 993.12097168 C221.25687241 993.36931763 220.18676422 993.61766357 219.08422852 993.87353516 C218.14644058 994.0920816 217.20865265 994.31062805 216.2424469 994.53579712 C214 995 214 995 212 995 C202.59924836 967.6695182 193.40754772 940.27602459 184.38460541 912.81862259 C182.76277517 907.88496717 181.13825378 902.9521978 179.51416016 898.01928711 C170.75672951 871.41505832 162.01630786 844.8051969 153.29467773 818.18920898 C152.89297867 816.96354218 152.4912796 815.73787537 152.07740784 814.47506714 C151.34765388 812.24813246 150.6181624 810.02111174 149.88902283 807.79397583 C149.56454666 806.80372406 149.2400705 805.81347229 148.90576172 804.79321289 C148.59588318 803.84519806 148.28600464 802.89718323 147.96673584 801.92044067 C147.27878964 799.84220381 146.57771187 797.76829403 145.86773682 795.69747925 C145.50033386 794.62225006 145.13293091 793.54702087 144.75439453 792.43920898 C144.41860382 791.46829819 144.08281311 790.49738739 143.73684692 789.49705505 C143 787 143 787 143 784 C142.10081172 784.00240362 141.20162343 784.00480723 140.27518702 784.00728369 C117.82351594 784.05870028 95.38205958 783.909491 72.93297124 783.57728505 C68.61827958 783.51403031 64.30354487 783.45383783 59.98881531 783.39323425 C52.5558793 783.28844928 45.12297083 783.18187353 37.69007874 783.07402039 C26.92237193 782.91780659 16.15462167 782.76476747 5.38685864 782.61248404 C-12.12346884 782.36478678 -29.6337665 782.115046 -47.14404297 781.86376953 C-48.18608818 781.84881646 -49.22813339 781.83386338 -50.30175573 781.81845719 C-52.41081779 781.7881921 -54.51987986 781.757927 -56.62894192 781.72766188 C-57.67466196 781.71265614 -58.720382 781.6976504 -59.79779053 781.68218994 C-60.84445258 781.66717043 -61.89111463 781.65215093 -62.96949372 781.63667628 C-74.62695446 781.46942755 -86.28442316 781.30273697 -97.94189453 781.13623047 C-99.5102815 781.113828 -99.5102815 781.113828 -101.11035305 781.09097296 C-118.58608731 780.84139831 -136.06183775 780.59297014 -153.53759718 780.34516478 C-164.27290597 780.19286897 -175.0081976 780.03944869 -185.74346876 779.8845228 C-193.09398739 779.77849418 -200.44451962 779.67344799 -207.79506302 779.56915104 C-212.02250818 779.50912746 -216.24994541 779.44864395 -220.47736549 779.38687706 C-236.98519953 779.145942 -253.48984872 778.91577652 -270 779 C-270.27604537 779.75686065 -270.55209074 780.51372129 -270.83650112 781.29351711 C-283.46224405 815.91023813 -296.11075134 850.51829588 -308.83056641 885.10058594 C-312.17981587 894.20716817 -315.5246599 903.31536899 -318.8699646 912.42340088 C-320.74647482 917.53232906 -322.62325042 922.64115974 -324.5 927.75 C-325.25000128 929.7916662 -326.00000128 931.83333286 -326.75 933.875 C-331.25 946.125 -331.25 946.125 -332.37484741 949.18707275 C-333.12536628 951.23015981 -333.8758749 953.27325064 -334.62637329 955.31634521 C-336.49335084 960.39881072 -338.36050253 965.48121212 -340.22802734 970.56347656 C-343.69867971 980.00903706 -347.16769313 989.45518905 -350.63067627 998.90356445 C-352.2410744 1003.29703777 -353.85243772 1007.69015682 -355.46386719 1012.08325195 C-356.22118149 1014.14866907 -356.97803914 1016.21425369 -357.734375 1018.2800293 C-362.71892158 1031.8938464 -367.80398608 1045.4654238 -373 1059 C-376.66915168 1058.18646395 -379.11790285 1056.78964202 -382.25390625 1054.68359375 C-383.27419922 1054.00103516 -384.29449219 1053.31847656 -385.34570312 1052.61523438 C-386.40724609 1051.89658203 -387.46878906 1051.17792969 -388.5625 1050.4375 C-389.59697266 1049.74591797 -390.63144531 1049.05433594 -391.69726562 1048.34179688 C-397.70867961 1044.30281929 -403.60696342 1040.13800225 -409.44702148 1035.85571289 C-413.16066639 1033.15633306 -416.94916311 1030.57442001 -420.75 1028 C-427.96913814 1023.08635907 -435.15081398 1018.12197511 -442.3125 1013.125 C-449.84514731 1007.87200271 -457.40451666 1002.66171451 -465 997.5 C-473.57120817 991.67520549 -482.08985022 985.77861799 -490.59008789 979.85083008 C-498.96540188 974.01374973 -507.38614024 968.24514247 -515.81835938 962.49072266 C-521.24777508 958.78078395 -526.66197313 955.04864405 -532.07910156 951.32080078 C-533.96575832 950.02354442 -535.85374916 948.72825495 -537.7421875 947.43359375 C-546.60885765 941.3518942 -555.43926886 935.21937826 -564.25952148 929.07055664 C-571.46524492 924.05270173 -578.70150679 919.08145627 -585.97387695 914.16064453 C-589.77638511 911.5759054 -593.45777416 908.94018746 -597 906 C-595.31007046 900.22112487 -592.66792304 895.00378915 -590.00390625 889.62890625 C-589.25352081 888.10318748 -589.25352081 888.10318748 -588.48797607 886.54664612 C-586.84953389 883.21691945 -585.20594957 879.8897576 -583.5625 876.5625 C-581.8416714 873.06770974 -580.12221489 869.57224642 -578.40275574 866.07678223 C-577.24680424 863.72719501 -576.09040002 861.37783047 -574.93354797 859.02868652 C-570.0319408 849.07430607 -565.16478502 839.10349253 -560.3125 829.125 C-558.78812472 825.99201013 -557.26330765 822.85923548 -555.73828125 819.7265625 C-555.3583754 818.94613083 -554.97846954 818.16569916 -554.58705139 817.36161804 C-549.7370454 807.4017152 -544.86766452 797.4512807 -540 787.5 C-533.1549258 773.50569869 -526.31926516 759.50689618 -519.5 745.5 C-512.70103518 731.53503343 -505.88652866 717.57773598 -499.0625 703.625 C-491.9929739 689.17008783 -484.9285617 674.71270973 -477.875 660.25 C-477.46547089 659.41031677 -477.05594177 658.57063354 -476.63400269 657.70550537 C-473.75571041 651.80381232 -470.87780551 645.90193042 -468 640 C-464.70860716 633.24986644 -461.41703155 626.49982209 -458.125 619.75 C-457.71554138 618.91045776 -457.30608276 618.07091553 -456.88421631 617.20593262 C-449.80087572 602.68339897 -442.70540813 588.16681214 -435.60705566 573.65161133 C-429.02298271 560.18768184 -422.44494579 546.72082888 -415.875 533.25 C-415.26057037 531.99020325 -415.26057037 531.99020325 -414.63372803 530.70495605 C-411.75552689 524.80344631 -408.87771579 518.90174642 -406 513 C-402.70860716 506.24986644 -399.41703155 499.49982209 -396.125 492.75 C-395.51081207 491.49068665 -395.51081207 491.49068665 -394.88421631 490.20593262 C-387.80087572 475.68339897 -380.70540813 461.16681214 -373.60705566 446.65161133 C-367.02298271 433.18768184 -360.44494579 419.72082888 -353.875 406.25 C-353.26057037 404.99020325 -353.26057037 404.99020325 -352.63372803 403.70495605 C-349.75552689 397.80344631 -346.87771579 391.90174642 -344 386 C-340.70860716 379.24986644 -337.41703155 372.49982209 -334.125 365.75 C-333.71554138 364.91045776 -333.30608276 364.07091553 -332.88421631 363.20593262 C-325.80087572 348.68339897 -318.70540813 334.16681214 -311.60705566 319.65161133 C-305.02298271 306.18768184 -298.44494579 292.72082888 -291.875 279.25 C-291.26057037 277.99020325 -291.26057037 277.99020325 -290.63372803 276.70495605 C-287.75552689 270.80344631 -284.87771579 264.90174642 -282 259 C-278.70860716 252.24986644 -275.41703155 245.49982209 -272.125 238.75 C-271.71554138 237.91045776 -271.30608276 237.07091553 -270.88421631 236.20593262 C-263.80087572 221.68339897 -256.70540813 207.16681214 -249.60705566 192.65161133 C-243.02298271 179.18768184 -236.44494579 165.72082888 -229.875 152.25 C-229.46538025 151.4101355 -229.0557605 150.570271 -228.63372803 149.70495605 C-225.75552689 143.80344631 -222.87771579 137.90174642 -220 132 C-216.70860716 125.24986644 -213.41695922 118.49985737 -210.125 111.75 C-209.71720306 110.91378113 -209.30940613 110.07756226 -208.88925171 109.21600342 C-204.058371 99.31038201 -199.22229743 89.40732327 -194.37890625 79.5078125 C-193.90821716 78.54531082 -193.43752808 77.58280914 -192.95257568 76.59114075 C-190.60378431 71.78865726 -188.25227021 66.98754647 -185.89501953 62.18920898 C-181.68341354 53.6066736 -177.5137143 45.01144965 -173.48828125 36.33984375 C-172.47423645 34.17384253 -171.45898977 32.0084083 -170.44351196 29.84307861 C-169.52729908 27.87125169 -168.63384769 25.89018792 -167.7409668 23.90771484 C-166.92559448 22.16868896 -166.92559448 22.16868896 -166.09375 20.39453125 C-165.40829102 18.89176636 -165.40829102 18.89176636 -164.70898438 17.35864258 C-162.45190404 14.24354927 -160.67742403 14.0038817 -157 13 C-154.88557882 12.68979854 -152.7601667 12.4493646 -150.6309967 12.26596069 C-149.37074173 12.15382736 -148.11048676 12.04169403 -146.81204224 11.92616272 C-145.42817342 11.81049712 -144.04429239 11.6949777 -142.66040039 11.57958984 C-141.19300502 11.45183943 -139.72566512 11.32345055 -138.25837708 11.19447327 C-134.28373948 10.84699426 -130.30837172 10.50865698 -126.33279347 10.17213392 C-122.16629704 9.81804919 -118.00048471 9.45608493 -113.83457947 9.09512329 C-106.83846252 8.49009523 -99.8418845 7.89066039 -92.8449707 7.29492188 C-84.76468418 6.60690805 -76.68503846 5.91175144 -68.60572821 5.21237218 C-59.99265996 4.46681806 -51.37920092 3.72586355 -42.76559138 2.98659182 C-40.28904706 2.77377185 -37.81257134 2.56016791 -35.33610725 2.34641647 C-31.43838449 2.01026632 -27.54040534 1.67725548 -23.64221001 1.346632 C-22.21471878 1.22510636 -20.7873122 1.10258149 -19.36000061 0.97896385 C-17.40556835 0.80988126 -15.45078371 0.64488689 -13.49598694 0.48007202 C-12.40408082 0.38680319 -11.3121747 0.29353436 -10.18718052 0.19743919 C-6.78384613 -0.01339028 -3.40898829 -0.03305914 0 0 Z M-57 122 C-75.73219241 178.12797361 -94.45967353 234.25751755 -113.18079373 290.38918521 C-115.38888383 297.00971337 -117.59701818 303.63022677 -119.80517578 310.25073242 C-120.02491766 310.90956577 -120.24465953 311.56839912 -120.47106025 312.24719712 C-127.59837361 333.61634456 -134.72861056 354.98451509 -141.86035822 376.35218299 C-149.39434324 398.92506044 -156.92500845 421.49904267 -164.45215559 444.07420129 C-168.96353699 457.6042205 -173.47759325 471.13334129 -177.99502981 484.66134002 C-181.08873967 493.92666314 -184.17916335 503.19307812 -187.26695931 512.4603738 C-189.05095568 517.8142924 -190.83644071 523.16770284 -192.62581444 528.51982689 C-194.26173716 533.41307557 -195.89355853 538.30767131 -197.52203339 543.2034035 C-198.11399141 544.98055287 -198.70749412 546.75718857 -199.30264074 548.53327266 C-200.1073113 550.93536038 -200.90649144 553.33920449 -201.70424652 555.74359608 C-201.9400853 556.44323138 -202.17592408 557.14286667 -202.41890949 557.86370304 C-203.35777768 560.7103473 -204 562.97912543 -204 566 C-193.75630083 564.31654667 -183.67432039 561.93457445 -173.5625 559.609375 C-171.58150557 559.15578135 -169.60046052 558.70240871 -167.61936951 558.24923706 C-162.21199197 557.01166236 -156.80531344 555.77105849 -151.39875412 554.52991486 C-145.66995794 553.21532336 -139.94054095 551.9034432 -134.21118164 550.59130859 C-125.54712629 548.60679845 -116.88330331 546.62127829 -108.21971607 544.63472557 C-91.81797229 540.87384824 -75.41482859 537.11910932 -59.01116669 533.36660767 C-49.24640856 531.13281914 -39.48180589 528.89835125 -29.71721458 526.66383362 C-28.98333657 526.4958942 -28.24945855 526.32795479 -27.4933418 526.1549263 C-26.0158553 525.81682077 -24.53836909 525.47871398 -23.06088316 525.14060593 C-18.64195753 524.12939666 -14.22299365 523.11835476 -9.80400378 522.10742629 C-2.75364881 520.4945166 4.29658729 518.8810894 11.34658664 517.266626 C14.59446006 516.52287088 17.84241203 515.77946358 21.09048653 515.03658676 C24.63805063 514.22516827 28.18538592 513.41275672 31.73266602 512.60009766 C32.76411743 512.36441952 33.79556885 512.12874138 34.85827637 511.88592148 C40.25471498 510.6484267 45.63398476 509.3635586 51 508 C49.54878993 499.9141375 47.45503445 492.06200663 45.23828125 484.15625 C44.856142 482.78347939 44.47431013 481.41062318 44.09275818 480.03768921 C43.05524689 476.3081811 42.01311144 472.57997942 40.97007751 468.85201263 C40.07954965 465.66678693 39.19179286 462.48079162 38.30404472 459.29479027 C30.52117132 431.36385208 22.68433876 403.44793844 14.84619141 375.5324707 C7.9369667 350.92387602 1.05406093 326.3080317 -5.8125 301.6875 C-6.3066391 299.91578123 -6.80077973 298.14406289 -7.29492188 296.37234497 C-7.53986956 295.49409719 -7.78481724 294.6158494 -8.03718758 293.71098804 C-9.28646858 289.23179285 -10.53579524 284.75261038 -11.78515625 280.2734375 C-12.03465153 279.37893072 -12.2841468 278.48442394 -12.54120255 277.5628109 C-19.72983297 251.7907331 -26.93656262 226.02371294 -34.14278889 200.25655079 C-35.42337346 195.6775599 -36.70389423 191.09855117 -37.984375 186.51953125 C-38.2306986 185.63868803 -38.47702221 184.75784481 -38.73081017 183.85030937 C-44.49530521 163.23580009 -50.24844509 142.6181228 -56 122 C-56.33 122 -56.66 122 -57 122 Z M-241.23828125 307.625 C-247.64486581 316.26181466 -248.82906048 325.4907826 -248 336 C-245.54913825 347.48403792 -239.75010622 357.29992701 -230 364 C-219.32228506 369.71650204 -208.82232349 372.11061013 -196.8125 368.875 C-186.28810084 365.2187964 -177.38090731 358.96409542 -172.1875 349 C-167.45935339 338.64162618 -166.23001373 328.39453103 -169.9453125 317.4609375 C-172.32698585 311.90369969 -174.90143993 306.39904004 -180 303 C-181.57112213 305.35668319 -182.93245531 307.4042949 -184 310 C-183.35117127 313.02786742 -182.04385547 314.92807703 -180.4375 317.5625 C-176.80513114 323.72173415 -177.19812831 331.64406991 -178.4609375 338.50390625 C-180.87225193 346.65982272 -185.54070841 352.59796731 -192.77734375 356.9921875 C-198.51278397 359.59279132 -203.67898999 360.23577009 -209.9375 360.125 C-210.62134766 360.11597656 -211.30519531 360.10695313 -212.00976562 360.09765625 C-213.67333287 360.07438958 -215.33671631 360.03853167 -217 360 C-214.44181658 353.47611558 -211.73943104 347.04274164 -208.84765625 340.66015625 C-208.4656456 339.81255234 -208.08363495 338.96494843 -207.69004822 338.09165955 C-206.48283459 335.41437934 -205.27270972 332.73842699 -204.0625 330.0625 C-203.25566943 328.27417423 -202.44902742 326.48576337 -201.64257812 324.69726562 C-201.25008881 323.82750092 -200.85759949 322.95773621 -200.45321655 322.06161499 C-199.68164394 320.35145528 -198.91065695 318.64103122 -198.14028931 316.93032837 C-196.55730361 313.42031332 -194.9621818 309.91980255 -193.31982422 306.43701172 C-192.86236816 305.46650879 -192.40491211 304.49600586 -191.93359375 303.49609375 C-191.36016235 302.30584595 -191.36016235 302.30584595 -190.77514648 301.09155273 C-189.76832639 298.74664434 -189.76832639 298.74664434 -190 295 C-209.59200608 286.04365436 -227.67610238 291.8513067 -241.23828125 307.625 Z M-295 364 C-297.2013866 367.80427492 -297.2013866 367.80427492 -298 372 C-295.89915791 373.00696568 -293.79420511 374.0053589 -291.6875 375 C-290.51574219 375.556875 -289.34398437 376.11375 -288.13671875 376.6875 C-285.10545833 378.19300084 -285.10545833 378.19300084 -282 378 C-281.01 375.36 -280.02 372.72 -279 370 C-281.10084209 368.99303432 -283.20579489 367.9946411 -285.3125 367 C-286.48425781 366.443125 -287.65601563 365.88625 -288.86328125 365.3125 C-291.89454167 363.80699916 -291.89454167 363.80699916 -295 364 Z M-270 375 C-271.62507196 377.8331162 -271.62507196 377.8331162 -273 381 C-272.34423465 384.0040837 -272.34423465 384.0040837 -270.45349121 385.00805664 C-269.78499146 385.30574951 -269.1164917 385.60344238 -268.42773438 385.91015625 C-267.66683502 386.25516678 -266.90593567 386.60017731 -266.12197876 386.9556427 C-265.28766327 387.32090561 -264.45334778 387.68616852 -263.59375 388.0625 C-262.72938324 388.45076462 -261.86501648 388.83902924 -260.97445679 389.23905945 C-258.15406467 390.50289257 -255.32723597 391.75156174 -252.5 393 C-250.57659635 393.85825888 -248.653582 394.71739075 -246.73095703 395.57739258 C-241.16004506 398.06539587 -235.58075951 400.53418484 -230 403 C-228.52042586 403.65525117 -227.04092704 404.31067247 -225.56152344 404.96630859 C-218.71678499 407.99843951 -211.86506848 411.01415837 -205 414 C-202.47740939 412.02579865 -202.0070192 411.03254358 -201.3125 407.8125 C-201.209375 406.884375 -201.10625 405.95625 -201 405 C-229.45976452 392.06670772 -229.45976452 392.06670772 -258 379.3125 C-259.01118896 378.86221436 -260.02237793 378.41192871 -261.06420898 377.94799805 C-261.97114502 377.5487915 -262.87808105 377.14958496 -263.8125 376.73828125 C-264.58207031 376.39837158 -265.35164063 376.05846191 -266.14453125 375.70825195 C-267.98040936 374.88112874 -267.98040936 374.88112874 -270 375 Z M-309 396 C-311.35910353 400.2637281 -311.35910353 400.2637281 -312 405 C-307.05 406.98 -302.1 408.96 -297 411 C-295.68 408.03 -294.36 405.06 -293 402 C-295.10084209 400.99303432 -297.20579489 399.9946411 -299.3125 399 C-300.48425781 398.443125 -301.65601563 397.88625 -302.86328125 397.3125 C-305.89454167 395.80699916 -305.89454167 395.80699916 -309 396 Z M-284 407 C-285.32 409.64 -286.64 412.28 -288 415 C-278.25933637 420.07741679 -268.34193021 424.70944316 -258.3125 429.1875 C-257.70193756 429.46065033 -257.09137512 429.73380066 -256.46231079 430.01522827 C-249.95023499 432.92756471 -243.42940137 435.81843419 -236.88822937 438.66487122 C-234.22856962 439.82399406 -231.57275419 440.99176989 -228.91732788 442.16055298 C-227.65152877 442.71474681 -226.38383047 443.26462535 -225.11416626 443.80990601 C-223.34234747 444.57099068 -221.57727178 445.3477148 -219.8125 446.125 C-218.80832031 446.56070313 -217.80414063 446.99640625 -216.76953125 447.4453125 C-213.5568074 449.24878795 -211.38290338 451.1955722 -209 454 C-208.7834375 455.794375 -208.7834375 455.794375 -208.5625 457.625 C-208.2840625 459.295625 -208.2840625 459.295625 -208 461 C-205.25818793 462.80842924 -203.32132707 464 -200 464 C-197.81097375 459.6219475 -198.32392471 453.57784104 -199.54296875 448.9296875 C-204.34784335 438.86877637 -219.95166528 434.7415003 -229.5625 430.5625 C-232.76047731 429.16064693 -235.95641431 427.75417063 -239.15234375 426.34765625 C-239.96292236 425.99164337 -240.77350098 425.63563049 -241.60864258 425.26882935 C-247.3023775 422.76333504 -252.97217541 420.20897843 -258.62890625 417.62109375 C-259.39278152 417.27180313 -260.1566568 416.92251251 -260.94367981 416.56263733 C-263.89738114 415.21067103 -266.85033319 413.85714813 -269.80032349 412.49710083 C-271.81601955 411.56793573 -273.83363574 410.64305788 -275.8515625 409.71875 C-276.99447754 409.19216797 -278.13739258 408.66558594 -279.31494141 408.12304688 C-281.82244173 406.87137805 -281.82244173 406.87137805 -284 407 Z M-309.375 461.25 C-317.74921053 471.41254296 -319.93601054 481.04507152 -319 494 C-316.98239885 504.52493846 -311.46331532 514.19592865 -302.625 520.4375 C-291.97501698 526.81274935 -282.2798741 528.98462612 -270 527 C-257.97981089 523.47760026 -249.05510949 516.98097026 -243 506 C-238.10357897 496.39917446 -237.7417334 486.61329894 -240.625 476.3125 C-242.45838871 470.83843192 -244.76664128 466.01886854 -249 462 C-249.99 461.67 -250.98 461.34 -252 461 C-253.71060791 463.96505372 -254.64343812 465.65658645 -255 469 C-253.89269304 471.83701396 -253.89269304 471.83701396 -252.1875 474.6875 C-247.9421648 482.32334046 -247.66755907 488.79079045 -249.8203125 497.20703125 C-253.01708899 506.0931757 -258.30201346 511.35204395 -266.4375 515.9375 C-273.86885201 518.15386814 -280.39876268 518.06401201 -288 517 C-286.12964349 512.64382778 -284.25374115 508.29006137 -282.375 503.9375 C-282.08976471 503.27616058 -281.80452942 502.61482117 -281.51065063 501.93344116 C-278.08276302 493.99398805 -274.60580306 486.08025416 -271.01953125 478.2109375 C-270.69722534 477.50290482 -270.37491943 476.79487213 -270.04284668 476.06538391 C-268.47679188 472.62882148 -266.9031572 469.19596882 -265.31982422 465.76733398 C-264.74822209 464.51813517 -264.17676268 463.26887104 -263.60546875 462.01953125 C-263.10168701 460.92745361 -262.59790527 459.83537598 -262.07885742 458.71020508 C-260.81507693 456.02162747 -260.81507693 456.02162747 -261 453 C-277.15359718 444.22973891 -296.74740799 447.86569835 -309.375 461.25 Z M-365 521 C-367.35910353 525.2637281 -367.35910353 525.2637281 -368 530 C-356.78 534.95 -345.56 539.9 -334 545 C-337.63 546.98 -341.26 548.96 -345 551 C-354.20640576 557.93816086 -359.94331175 566.69777475 -361.75 578.1875 C-362.78127496 589.82339486 -358.32606167 600.74848864 -351.25 609.875 C-343.70208536 617.97616493 -332.23754955 622.50085865 -321.375 623.25 C-310.33225525 623.06283483 -300.19268287 618.18156062 -292 611 C-283.74251084 600.29896812 -280.69905762 590.48249377 -282 577 C-283.67949794 568.68248637 -287.08555975 562.08151483 -293 556 C-293.65464233 555.32457153 -293.65464233 555.32457153 -294.32250977 554.63549805 C-299.82243404 549.43208402 -306.4834092 546.63864333 -313.3125 543.5625 C-314.61645703 542.9653956 -315.92007984 542.36756086 -317.22338867 541.76904297 C-321.47276983 539.82475473 -325.73475385 537.90919108 -330 536 C-330.77005371 535.65511536 -331.54010742 535.31023071 -332.33349609 534.95489502 C-340.71604678 531.2041383 -349.11007624 527.47912461 -357.51953125 523.7890625 C-358.16289429 523.50539322 -358.80625732 523.22172394 -359.46911621 522.92945862 C-362.1371648 521.57287424 -362.1371648 521.57287424 -365 521 Z M69.50523376 582.9355011 C68.08196526 583.2856128 68.08196526 583.2856128 66.62994385 583.64279747 C65.05923126 584.04064666 65.05923126 584.04064666 63.45678711 584.4465332 C62.35297195 584.72022547 61.2491568 584.99391773 60.1118927 585.2759037 C56.41535551 586.19422439 52.72140137 587.12254079 49.02734375 588.05078125 C46.42834235 588.69843331 43.82920565 589.34551534 41.22987366 589.99183655 C35.68786482 591.37097718 30.14710534 592.7550409 24.60717773 594.14251709 C15.91371128 596.31971707 7.21780457 598.48706322 -1.47851562 600.65283203 C-4.37236199 601.37364994 -7.26618836 602.0945481 -10.16000366 602.81549072 C-10.87285566 602.99308127 -11.58570765 603.17067182 -12.32016122 603.35364389 C-17.34586231 604.60583551 -22.37121669 605.85941197 -27.39639282 607.1137085 C-47.2463256 612.0681364 -67.1035003 616.99215648 -86.97089767 621.87609482 C-93.13726894 623.39225028 -99.30302043 624.91092498 -105.46875 626.4296875 C-106.16060331 626.60007978 -106.85245663 626.77047207 -107.56527519 626.94602776 C-121.89044669 630.47461469 -136.21090627 634.02219217 -150.53125 637.5703125 C-152.86441881 638.14831236 -155.19758939 638.72630512 -157.53076172 639.30429077 C-167.92380802 641.87903368 -178.31671369 644.45433874 -188.70902252 647.03205681 C-192.99135561 648.09402933 -197.27390396 649.15513186 -201.5565033 650.21603012 C-203.55925638 650.71237178 -205.56191368 651.20910014 -207.56446838 651.70624161 C-210.33114544 652.39304427 -213.0981514 653.07850674 -215.86523438 653.76367188 C-216.66280655 653.96201818 -217.46037872 654.16036449 -218.28211975 654.3647213 C-219.03863327 654.55176439 -219.79514679 654.73880749 -220.57458496 654.93151855 C-221.29955516 655.11097739 -222.02452536 655.29043623 -222.77146435 655.47533321 C-225.89261015 656.21014826 -229.03554176 656.83473366 -232.18314075 657.44564152 C-234.21485173 657.88944276 -234.21485173 657.88944276 -235.7331543 660.00170898 C-236.03133057 660.84548096 -236.32950684 661.68925293 -236.63671875 662.55859375 C-237.01231934 663.54585449 -237.38791992 664.53311523 -237.77490234 665.55029297 C-238.17918457 666.68869629 -238.5834668 667.82709961 -239 669 C-239.5252829 670.32318732 -240.05772405 671.64354881 -240.59619141 672.96142578 C-242.07000637 676.56970613 -243.50775807 680.19074954 -244.93139648 683.8190918 C-245.82391479 686.0915636 -246.72324084 688.36126475 -247.62304688 690.63085938 C-248.19311404 692.07796524 -248.76279045 693.52522512 -249.33203125 694.97265625 C-249.73504204 695.98816307 -249.73504204 695.98816307 -250.14619446 697.02418518 C-251.53712585 700.41069128 -251.53712585 700.41069128 -252 704 C-242.36054153 704.11130821 -232.83867863 703.79744918 -223.21890259 703.16479492 C-221.78378768 703.07367072 -220.34864785 702.98293817 -218.91348588 702.8925581 C-215.01131191 702.64570084 -211.10950947 702.39336506 -207.20774984 702.14005423 C-202.98457784 701.86686838 -198.76107568 701.59887694 -194.53761292 701.33023071 C-187.23394894 700.86495625 -179.93049846 700.39644563 -172.62718582 699.9256897 C-162.06802907 699.24507378 -151.50855983 698.56941182 -140.9490097 697.89492977 C-123.81376425 696.80029714 -106.67877542 695.70169971 -89.54394531 694.60058594 C-72.90638363 693.53143607 -56.268703 692.46416778 -39.63085938 691.39941406 C-38.60402403 691.33370016 -37.57718868 691.26798626 -36.51923712 691.20028102 C-31.36752338 690.87060081 -26.21580728 690.54095741 -21.06409001 690.21133232 C21.62430663 687.47992996 64.31228821 684.74208339 107 682 C108.09585131 678.71244607 107.96218942 678.13568514 106.91886902 675.00143433 C106.65388107 674.1909967 106.38889313 673.38055908 106.11587524 672.54556274 C105.81619843 671.66024872 105.51652161 670.77493469 105.20776367 669.86279297 C104.7446302 668.46003113 104.7446302 668.46003113 104.2721405 667.02893066 C103.2463797 663.93029146 102.2075459 660.83621628 101.16796875 657.7421875 C100.45331236 655.59671705 99.73923376 653.45105405 99.02571106 651.3052063 C97.52737288 646.80585383 96.02268543 642.30868931 94.51342773 637.81298828 C92.57521542 632.03815181 90.65178049 626.25852354 88.73292065 620.47723198 C87.2603797 616.04545699 85.78059315 611.61612875 84.29851723 607.18753433 C83.58628067 605.05669209 82.87620708 602.92512566 82.16829491 600.79284286 C81.17961984 597.81886663 80.18138877 594.84827509 79.18041992 591.87841797 C78.8868158 590.98905548 78.59321167 590.09969299 78.29071045 589.18338013 C78.01726303 588.37858215 77.74381561 587.57378418 77.46208191 586.74459839 C77.10893055 585.68992024 77.10893055 585.68992024 76.74864483 584.61393547 C75.12205327 581.10731429 72.68231182 582.14175597 69.50523376 582.9355011 Z M-392 645 C-398.66588408 653.01115321 -401.70635014 661.45893147 -401.4140625 671.875 C-400.29132215 680.34851205 -396.41050574 688.31872035 -390 694 C-382.15943806 699.51378378 -373.26153761 703.29550257 -364.56665039 707.23364258 C-362.17133437 708.31983052 -359.78180457 709.41807003 -357.39257812 710.51757812 C-355.85970297 711.21686522 -354.32651095 711.91545822 -352.79296875 712.61328125 C-352.08456345 712.93927811 -351.37615814 713.26527496 -350.64628601 713.60115051 C-347.12174907 715.1885536 -343.83645361 716.45047281 -340 717 C-339.01 714.36 -338.02 711.72 -337 709 C-338.91644918 708.10370149 -340.8331887 707.20802383 -342.75 706.3125 C-343.38744141 706.01287354 -344.02488281 705.71324707 -344.68164062 705.40454102 C-349.43091951 703.17845158 -354.20136916 701.00430023 -358.984375 698.8515625 C-360.86263645 697.99926299 -362.74016444 697.1453741 -364.61730957 696.2906189 C-365.86241822 695.72641264 -367.10939096 695.16630041 -368.35827637 694.61050415 C-384.44429552 687.44526043 -384.44429552 687.44526043 -388.55859375 680.2890625 C-391.47802438 671.43994386 -392.15839885 665.09010578 -388.32421875 656.33203125 C-385.1721025 650.78095926 -380.17425226 647.36801781 -374.1328125 645.484375 C-361.15119616 642.53616909 -349.69614486 649.81691385 -338.2265625 655.13671875 C-337.05416016 655.68038086 -335.88175781 656.22404297 -334.67382812 656.78417969 C-332.32768559 657.87719546 -329.98514775 658.97798581 -327.64648438 660.08691406 C-326.56947266 660.59319336 -325.49246094 661.09947266 -324.3828125 661.62109375 C-323.41746582 662.0792749 -322.45211914 662.53745605 -321.45751953 663.00952148 C-318.97785157 664.18691002 -318.97785157 664.18691002 -316 664 C-315.01 661.36 -314.02 658.72 -313 656 C-322.35153226 651.55842595 -331.77085783 647.26669834 -341.21035767 643.01596069 C-342.52644754 642.42289042 -343.84202223 641.82867553 -345.15707397 641.23330688 C-347.03421696 640.38395771 -348.91330893 639.53907449 -350.79296875 638.6953125 C-351.8914917 638.20047363 -352.99001465 637.70563477 -354.12182617 637.19580078 C-367.36878188 631.69206093 -381.82995323 635.15801925 -392 645 Z M-446 699 C-448.2013866 702.80427492 -448.2013866 702.80427492 -449 707 C-446.89915791 708.00696568 -444.79420511 709.0053589 -442.6875 710 C-441.51574219 710.556875 -440.34398437 711.11375 -439.13671875 711.6875 C-436.10545833 713.19300084 -436.10545833 713.19300084 -433 713 C-432.01 710.36 -431.02 707.72 -430 705 C-432.10084209 703.99303432 -434.20579489 702.9946411 -436.3125 702 C-437.48425781 701.443125 -438.65601563 700.88625 -439.86328125 700.3125 C-442.89454167 698.80699916 -442.89454167 698.80699916 -446 699 Z M-421 710 C-422.62507196 712.8331162 -422.62507196 712.8331162 -424 716 C-423.32306286 719.13237594 -423.32306286 719.13237594 -420.82739258 720.26416016 C-419.85954834 720.68487793 -418.8917041 721.1055957 -417.89453125 721.5390625 C-416.78295654 722.02930908 -415.67138184 722.51955566 -414.52612305 723.0246582 C-413.28828648 723.55819313 -412.050411 724.0916378 -410.8125 724.625 C-409.53961794 725.18269237 -408.26724872 725.74155654 -406.99536133 726.30151367 C-404.20864343 727.52753647 -401.41979946 728.74856059 -398.62988281 729.96728516 C-390.98904932 733.3131083 -383.38405341 736.73976941 -375.77328491 740.15325928 C-371.61442933 742.01772787 -367.45366937 743.87793459 -363.29296875 745.73828125 C-361.8713318 746.37409121 -360.4497003 747.00991333 -359.02807617 747.64575195 C-358.02881104 748.09265381 -357.0295459 748.53955566 -356 749 C-353.47740939 747.02579865 -353.0070192 746.03254358 -352.3125 742.8125 C-352.209375 741.884375 -352.10625 740.95625 -352 740 C-380.45976452 727.06670772 -380.45976452 727.06670772 -409 714.3125 C-410.01118896 713.86221436 -411.02237793 713.41192871 -412.06420898 712.94799805 C-412.97114502 712.5487915 -413.87808105 712.14958496 -414.8125 711.73828125 C-415.58207031 711.39837158 -416.35164062 711.05846191 -417.14453125 710.70825195 C-418.98040936 709.88112874 -418.98040936 709.88112874 -421 710 Z M-435 742 C-435.70492893 743.21925475 -436.38825901 744.4510106 -437.0625 745.6875 C-437.63677734 746.71423828 -437.63677734 746.71423828 -438.22265625 747.76171875 C-439.52977364 751.52542861 -438.32074793 754.31687453 -436.66821289 757.83642578 C-436.1086792 758.8623584 -435.54914551 759.88829102 -434.97265625 760.9453125 C-434.3494751 762.09676758 -433.72629395 763.24822266 -433.08422852 764.43457031 C-432.41037654 765.66474505 -431.73646595 766.89488769 -431.0625 768.125 C-430.38068386 769.38078059 -429.6996169 770.63696823 -429.01928711 771.89355469 C-427.99449575 773.78623724 -426.96929657 775.67868165 -425.94166565 777.56982422 C-422.93457413 783.10511067 -419.98652942 788.67039097 -417.0625 794.25 C-416.64427979 795.04680176 -416.22605957 795.84360352 -415.79516602 796.66455078 C-414.8624486 798.44251202 -413.93104252 800.22116112 -413 802 C-421.18500605 799.57137986 -428.77155443 796.03032074 -436.4987793 792.44750977 C-438.83757715 791.36337565 -441.17909525 790.28533507 -443.52148438 789.20898438 C-447.33321907 787.45693688 -451.14326636 785.7012627 -454.95269775 783.94421387 C-459.63085378 781.78665271 -464.31184646 779.63574927 -469 777.5 C-470.18879761 776.94965088 -470.18879761 776.94965088 -471.40161133 776.38818359 C-475.53116682 774.50460925 -475.53116682 774.50460925 -480 774 C-480.99 776.64 -481.98 779.28 -483 782 C-471.17533792 788.04692488 -459.18044281 793.63073088 -447.0625 799.0625 C-443.36275658 800.72409454 -439.66367711 802.38716196 -435.96484375 804.05078125 C-435.04457397 804.46431854 -434.1243042 804.87785583 -433.17614746 805.30392456 C-427.12014007 808.03017004 -421.08727243 810.80257681 -415.06640625 813.60546875 C-412.80231186 814.65447752 -410.53788893 815.70277421 -408.27340698 816.75094604 C-406.84907043 817.41329218 -405.42661272 818.0796948 -404.00613403 818.75027466 C-402.05298249 819.67198564 -400.09383058 820.5795513 -398.1328125 821.484375 C-397.03855957 821.99709961 -395.94430664 822.50982422 -394.81689453 823.03808594 C-392.13625696 824.1488131 -392.13625696 824.1488131 -389.72607422 823.87988281 C-386.64907681 822.31135401 -386.12267334 819.08735169 -385 816 C-385.845625 815.66871094 -386.69125 815.33742188 -387.5625 814.99609375 C-397.91619553 810.30163407 -401.68323644 804.33113077 -406 794 C-406.33 793.01 -406.66 792.02 -407 791 C-406.01644531 790.78085937 -405.03289062 790.56171875 -404.01953125 790.3359375 C-400.2180953 789.47668021 -396.43096221 788.56412229 -392.64550781 787.63720703 C-390.83285773 787.20060527 -389.01685168 786.77777215 -387.19824219 786.36669922 C-384.35126451 785.71833429 -381.52028877 785.02001831 -378.6875 784.3125 C-377.78684814 784.11769043 -376.88619629 783.92288086 -375.95825195 783.72216797 C-372.2100282 782.74356592 -369.77582987 782.09033535 -367.47509766 778.85693359 C-366.40023024 776.56348517 -365.52840684 774.47722088 -365 772 C-365.495 771.01 -365.495 771.01 -366 770 C-366.53204544 770.15033691 -367.06409088 770.30067383 -367.61225891 770.45556641 C-373.14245712 772.01737787 -378.67416488 773.57375099 -384.20678711 775.12695312 C-386.2722851 775.70758522 -388.33739213 776.28960998 -390.40209961 776.87304688 C-393.36731278 777.71068576 -396.3338889 778.54333118 -399.30078125 779.375 C-400.2258699 779.63748535 -401.15095856 779.8999707 -402.1040802 780.17041016 C-402.96474594 780.41065918 -403.82541168 780.6509082 -404.7121582 780.8984375 C-405.46938675 781.11161621 -406.2266153 781.32479492 -407.00679016 781.54443359 C-409 782 -409 782 -412 782 C-412.62660522 780.82195801 -412.62660522 780.82195801 -413.26586914 779.62011719 C-414.85008375 776.64449566 -416.43644568 773.67003845 -418.02416992 770.69628906 C-418.70469113 769.42069182 -419.3844081 768.14466513 -420.06323242 766.86816406 C-426.69871949 754.24195371 -426.69871949 754.24195371 -434 742 C-434.33 742 -434.66 742 -435 742 Z M-482.2421875 843.55859375 C-489.40831458 853.51154802 -491.0452566 862.94391539 -490 875 C-487.20127814 885.41076277 -481.02414057 894.94972394 -472 901 C-461.13279483 906.71145726 -450.60955394 908.9567168 -438.4765625 906.19921875 C-427.42166419 902.37858287 -419.91060934 895.54388788 -414.15625 885.45703125 C-409.92200514 876.45926092 -409.32218985 866.05074832 -412.5 856.5625 C-412.995 855.386875 -413.49 854.21125 -414 853 C-408.555 854.485 -408.555 854.485 -403 856 C-401.37492804 853.1668838 -401.37492804 853.1668838 -400 850 C-400.73024814 846.68623062 -400.73024814 846.68623062 -404.15185547 845.23828125 C-405.55171021 844.5849719 -406.95730849 843.94388545 -408.3671875 843.3125 C-409.11654572 842.96872314 -409.86590393 842.62494629 -410.63796997 842.27075195 C-412.23126154 841.54291411 -413.82695708 840.82031966 -415.42480469 840.10253906 C-417.8367245 839.01722321 -420.23895414 837.91246561 -422.640625 836.8046875 C-444.11239687 826.99994364 -465.26836611 823.25185602 -482.2421875 843.55859375 Z " fill="#000000" transform="translate(597,0)"/>
<path d="M0 0 C48.51 0 97.02 0 147 0 C147.33 155.43 147.66 310.86 148 471 C157.05204828 459.4848483 157.05204828 459.4848483 166.0625 447.9375 C166.65192383 447.17928955 167.24134766 446.4210791 167.84863281 445.63989258 C172.9212447 439.11018051 177.9667066 432.56005906 183 426 C189.24233341 417.8641588 195.51849483 409.75591816 201.81835938 401.66455078 C206.90460897 395.12924698 211.95892306 388.57020361 217 382 C223.24233341 373.8641588 229.51849483 365.75591816 235.81835938 357.66455078 C240.90460897 351.12924698 245.95892306 344.57020361 251 338 C257.24233341 329.8641588 263.51849483 321.75591816 269.81835938 313.66455078 C274.90460897 307.12924698 279.95892306 300.57020361 285 294 C290.57835595 286.72954274 296.18004605 279.47862419 301.8125 272.25 C306.40465994 266.35565069 310.96908327 260.44155045 315.5 254.5 C320.61771081 247.78896584 325.78436288 241.11754557 330.97167969 234.46020508 C335.20464884 229.02670896 339.41589706 223.57729969 343.609375 218.11328125 C345.32500941 215.87903187 347.04353327 213.64722728 348.765625 211.41796875 C349.22291992 210.82540283 349.68021484 210.23283691 350.15136719 209.62231445 C351.02627597 208.48876591 351.90188523 207.35575753 352.77832031 206.22338867 C354.60293649 203.85730006 356.3414663 201.48780055 358 199 C360.47937965 198.63085651 360.47937965 198.63085651 363.66934204 198.63923645 C364.8753154 198.63511246 366.08128876 198.63098846 367.32380676 198.6267395 C368.66720803 198.6373576 370.01060705 198.64826204 371.35400391 198.65942383 C372.76314781 198.66026969 374.17229303 198.65979576 375.58143616 198.65809631 C379.41395521 198.65723333 383.24619428 198.6749078 387.07864809 198.69581819 C391.08117547 198.7145347 395.08370881 198.71633145 399.08627319 198.71989441 C406.66882729 198.7292297 414.25125209 198.75386346 421.83374918 198.78394288 C430.4648102 198.81744082 439.09587731 198.83396129 447.72698712 198.84902918 C465.48473147 198.88041179 483.24235535 198.93320101 501 199 C501 199.66 501 200.32 501 201 C498.94353059 202.43892017 496.89112164 203.76044029 494.75 205.0625 C480.31660412 214.09230511 467.24234141 224.86095267 454.7890625 236.43359375 C452.46189155 238.57498215 450.09941385 240.64342629 447.6875 242.6875 C444.49098807 245.46565454 441.74499617 248.44624327 439.015625 251.6796875 C437.07396651 253.91485251 435.04597091 256.04591108 432.99487305 258.18017578 C419.87166803 271.96136282 408.86422517 287.76239597 399 304 C398.62214355 304.62197266 398.24428711 305.24394531 397.85498047 305.88476562 C375.59957016 343.00651563 357.44996206 388.80681147 355.74609375 432.515625 C355.17627275 443.91204508 349.05319696 450.29514923 341.94335938 458.65429688 C338.78134371 462.47096101 335.90146595 466.48397659 333 470.5 C327.88894997 477.50233852 322.63226573 484.37120809 317.28076172 491.19091797 C310.66415718 499.65305916 304.3263323 508.31981876 298 517 C300.40091431 521.36084435 303.3598 524.90794027 306.625 528.625 C307.7106191 529.87544875 308.79524606 531.1267595 309.87890625 532.37890625 C310.4114502 532.9939502 310.94399414 533.60899414 311.49267578 534.24267578 C314.3007098 537.51644139 317.00402279 540.874755 319.72265625 544.22265625 C322.28204054 547.34396367 324.88593791 550.4245003 327.5 553.5 C331.62107792 558.34954051 335.66991483 563.25160964 339.6875 568.1875 C342.7243277 571.8809391 345.81960955 575.52298486 348.91625977 579.16625977 C351.7954532 582.55954109 354.63204237 585.98267786 357.4375 589.4375 C361.38720075 594.2916045 365.44871865 599.04028627 369.53417969 603.77978516 C373.55423044 608.45345009 377.47445398 613.19819996 381.35546875 617.98828125 C382.84295825 619.87626649 382.84295825 619.87626649 384 621 C384.00358253 619.73086148 384.00358253 619.73086148 384.00723743 618.43608379 C384.06671662 597.7220894 384.14247212 577.00820818 384.23571491 556.29433727 C384.28042792 546.27672067 384.3198969 536.25913768 384.34643555 526.24145508 C384.3696163 517.49655793 384.40323193 508.75176941 384.44870156 500.00695878 C384.47236719 495.38889776 384.49126838 490.77094249 384.49761391 486.15282249 C384.58057168 432.87751305 392.47294433 381.52326626 418 334 C418.5559082 332.94039063 418.5559082 332.94039063 419.12304688 331.859375 C425.22423719 320.24579476 432.14260027 309.50064864 440 299 C440.4655127 298.37609375 440.93102539 297.7521875 441.41064453 297.109375 C455.54698605 278.30778969 472.32154185 260.31278302 491 246 C491.95390625 245.22914063 492.9078125 244.45828125 493.890625 243.6640625 C503.10343249 236.32622337 512.90508445 230.05258353 523 224 C523.7822998 223.52916992 524.56459961 223.05833984 525.37060547 222.57324219 C560.40879781 201.74445632 601.39483847 189.93731161 642 187 C642.7130127 186.94505371 643.42602539 186.89010742 644.16064453 186.83349609 C683.03972346 183.93232776 722.73338949 187.23575219 760 199 C760.84175781 199.26538574 761.68351562 199.53077148 762.55078125 199.80419922 C804.72776731 213.3529891 842.15032246 237.29338698 873 269 C871.32366297 273.05279129 868.49078433 276.067754 865.625 279.3125 C848.16361763 299.44078833 833.0355532 320.73353788 820 344 C819.27103516 345.30106689 819.27103516 345.30106689 818.52734375 346.62841797 C811.44504017 359.4059936 805.61032273 372.54728135 800.17285156 386.09814453 C798.1580407 391.08316575 796.07736693 396.04079026 794 401 C790.68864802 397.78183397 788.08853432 394.36830244 785.5 390.5625 C780.28678834 383.08053019 774.32817363 376.54513959 768 370 C767.38640625 369.33484375 766.7728125 368.6696875 766.140625 367.984375 C745.07156865 345.66369154 712.28988 330.3476484 681.73706055 328.83886719 C638.77532941 328.30039763 602.74345943 339.04125172 571.19213867 369.45629883 C549.74679772 390.64283994 531.1297471 420.20127284 529.86938947 451.21382225 C529.86673143 452.38108254 529.86407339 453.54834284 529.8613348 454.75097466 C529.85849258 455.40792159 529.85565036 456.06486852 529.85272202 456.74172294 C529.84440817 458.94036676 529.84310942 461.13895766 529.84178162 463.33761597 C529.83721401 464.9308437 529.83221369 466.52407024 529.82681805 468.11729538 C529.81325017 472.4933426 529.80582249 476.86938205 529.79939139 481.24544477 C529.79138153 485.96522906 529.77768576 490.68499722 529.76467896 495.4047699 C529.74292455 503.58144501 529.72477626 511.75812175 529.70907402 519.93481064 C529.68636598 531.75694525 529.65822443 543.57906201 529.62875474 555.40118147 C529.5810903 574.58157404 529.537823 593.7619739 529.49731445 612.94238281 C529.45795369 631.57487557 529.41652607 650.20736184 529.37231445 668.83984375 C529.36822804 670.56246918 529.36822804 670.56246918 529.36405908 672.31989513 C529.35037951 678.08113884 529.33665925 683.84238245 529.32291877 689.60362601 C529.20897202 737.40240381 529.10215867 785.20119566 529 833 C508.79850691 833.210385 488.59723657 833.36901896 468.39487457 833.46630955 C459.01417893 833.51268736 449.63416456 833.57589787 440.25390625 833.67895508 C432.07654914 833.76875354 423.89968544 833.82674565 415.72184896 833.84679645 C411.39274596 833.858515 407.06505431 833.8859857 402.73640442 833.95157051 C398.65824193 834.01285702 394.58206591 834.03146694 390.50348663 834.01796913 C389.01028376 834.02043665 387.5170116 834.03822922 386.02420807 834.07284927 C374.76098095 834.32115234 374.76098095 834.32115234 370.36372375 831.02216911 C368.34277381 828.7747485 366.65148677 826.52626804 365 824 C364.25492188 823.113125 363.50984375 822.22625 362.7421875 821.3125 C362.12601563 820.549375 361.50984375 819.78625 360.875 819 C360.12734375 818.07960938 359.3796875 817.15921875 358.609375 816.2109375 C358.20009766 815.7065918 357.79082031 815.20224609 357.36914062 814.68261719 C354.63314679 811.32019396 351.87914615 807.97255837 349.125 804.625 C348.52526367 803.89595459 347.92552734 803.16690918 347.30761719 802.41577148 C343.16852665 797.39396566 338.98023182 792.41696261 334.76220703 787.46142578 C331.45706789 783.56805276 328.26470718 779.59643365 325.09375 775.59375 C322.61188959 772.51920651 320.06151487 769.50820956 317.5 766.5 C313.60924384 761.93074686 309.82071079 757.29827428 306.09375 752.59375 C303.61188959 749.51920651 301.06151487 746.50820956 298.5 743.5 C294.60924384 738.93074686 290.82071079 734.29827428 287.09375 729.59375 C284.61188959 726.51920651 282.06151487 723.50820956 279.5 720.5 C275.60924384 715.93074686 271.82071079 711.29827428 268.09375 706.59375 C265.61188959 703.51920651 263.06151487 700.50820956 260.5 697.5 C256.60924384 692.93074686 252.82071079 688.29827428 249.09375 683.59375 C246.61188959 680.51920651 244.06151487 677.50820956 241.5 674.5 C237.60924384 669.93074686 233.82071079 665.29827428 230.09375 660.59375 C227.61188597 657.51920203 225.06139453 654.50831703 222.5 651.5 C210.9518745 637.92781175 210.9518745 637.92781175 207 632 C202.0489978 637.35206104 197.46990936 642.89855055 193.06494141 648.70776367 C189.6348458 653.21550145 186.08782527 657.6170917 182.5 662 C178.57363049 666.80155852 174.69809688 671.62986826 170.9375 676.5625 C165.86326949 683.2146418 160.64276683 689.74440067 155.39697266 696.26171875 C154.93597168 696.83535156 154.4749707 697.40898438 154 698 C153.32244659 698.60301437 152.64489319 699.20602875 151.94680786 699.82731628 C148.88649237 704.81466676 149.43006244 709.75996793 149.45410156 715.5012207 C149.44370724 716.79040751 149.43331291 718.07959433 149.42260361 719.4078474 C149.39493763 722.88837797 149.39109051 726.36854989 149.39224243 729.8491745 C149.38969659 733.1177614 149.36558302 736.3861595 149.34326172 739.65466309 C149.29055036 749.20718054 149.27237606 758.75986332 149.25 768.3125 C149.1675 789.659375 149.085 811.00625 149 833 C99.83 833 50.66 833 0 833 C0 558.11 0 283.22 0 0 Z " fill="#000000" transform="translate(888,45)"/>
<path d="M0 0 C4.64133791 4.33543155 9.0999113 8.86265822 13.54248047 13.40039062 C14.25678223 14.1285498 14.97108398 14.85670898 15.70703125 15.60693359 C16.33013184 16.24800049 16.95323242 16.88906738 17.59521484 17.54956055 C19.56441307 19.44988412 21.57090571 21.23531059 23.64306641 23.02001953 C28.23509355 27.0106631 32.52269893 31.26879973 36.80859375 35.58349609 C37.61852783 36.39484512 38.42846191 37.20619415 39.26293945 38.04212952 C41.8222039 40.60694374 44.37794905 43.17523183 46.93359375 45.74365234 C48.67945508 47.49453517 50.42554662 49.24518848 52.171875 50.99560547 C56.42844573 55.2631385 60.68214091 59.533521 64.93359375 63.80615234 C63.30131794 67.94175742 60.30343106 70.71158414 57.20580101 73.78004074 C56.61087416 74.37727528 56.01594731 74.97450982 55.40299237 75.58984238 C53.39597939 77.60217499 51.38187562 79.60725856 49.36776733 81.61248779 C47.91780888 83.06331791 46.4682898 84.51458725 45.01917422 85.96625924 C41.02623247 89.96368622 37.02705898 93.95482816 33.02687311 97.94500422 C28.71787451 102.24538755 24.4146349 106.55152673 20.11070251 110.85697937 C12.64985743 118.31887453 5.18538518 125.77712706 -2.28163528 133.23284149 C-10.1140692 141.05344644 -17.9444361 148.87611144 -25.77204514 156.70154572 C-26.25851538 157.18787848 -26.74498562 157.67421124 -27.24619738 158.17528136 C-29.71666459 160.64507191 -32.18709487 163.11489942 -34.65751092 165.58474115 C-52.16123124 183.08425925 -69.66958522 200.5791346 -87.18066406 218.07128906 C-104.19375257 235.06601256 -121.20474189 252.06283276 -138.21289062 269.0625 C-138.7370412 269.58638752 -139.26119177 270.11027504 -139.80122569 270.65003794 C-145.0648987 275.91107394 -150.32852903 281.17215264 -155.59212809 286.43326262 C-166.31494541 297.15100734 -177.0380476 307.86846702 -187.76132202 318.58575439 C-188.50090007 319.32492057 -188.50090007 319.32492057 -189.25541909 320.0790194 C-222.18764364 352.99283874 -255.12652914 385.89999181 -288.06640625 418.80615234 C-284.41251044 421.67649719 -280.60267032 423.44956727 -276.31640625 425.18115234 C-275.56198242 425.48641846 -274.80755859 425.79168457 -274.03027344 426.10620117 C-256.26514796 433.17330902 -237.26859458 438.24821951 -218.06640625 438.80615234 C-217.01791504 438.84482422 -217.01791504 438.84482422 -215.94824219 438.88427734 C-164.07887045 440.6025174 -116.37139201 423.05613031 -78.37890625 387.86865234 C-62.70197968 373.07267695 -49.4972907 356.6955715 -39.06640625 337.80615234 C-38.54868652 336.87947754 -38.54868652 336.87947754 -38.02050781 335.93408203 C-16.68658981 297.25258376 -14.8359557 252.54837805 -26.49536133 210.54321289 C-29.22186365 201.13267392 -32.31595475 191.88692128 -35.93286133 182.77954102 C-36.21282959 182.06258057 -36.49279785 181.34562012 -36.78125 180.60693359 C-37.15431274 179.68134644 -37.15431274 179.68134644 -37.53491211 178.73706055 C-38.22386022 176.23412505 -38.33858127 174.40333056 -38.06640625 171.80615234 C-36.44778633 169.56670666 -36.44778633 169.56670666 -34.13162231 167.25663757 C-32.82334976 165.93371956 -32.82334976 165.93371956 -31.48864746 164.58407593 C-30.5097589 163.61969304 -29.53062461 162.65555952 -28.55126953 161.69165039 C-27.52883617 160.66735323 -26.50748945 159.64197042 -25.4871521 158.61558533 C-22.71329123 155.8317397 -19.92409474 153.06373867 -17.13164377 150.29855704 C-14.21474183 147.40545783 -11.31120549 144.49900358 -8.40597534 141.5941925 C-3.5265949 136.7194415 1.36220049 131.85430053 6.25732422 126.99536133 C11.92312826 121.37132658 17.5767336 115.73526876 23.22334087 110.09196442 C29.22792003 104.09097972 35.24010289 98.09766224 41.25520182 92.10722375 C42.99166768 90.37699683 44.72682654 88.64546773 46.46175766 86.91370201 C49.18358602 84.19775826 51.910543 81.48706963 54.64162827 78.78043556 C55.64552891 77.78399837 56.64773079 76.78584647 57.64813995 75.78590393 C59.00908474 74.42620948 60.37677194 73.07327342 61.74484253 71.7207489 C62.89247479 70.5800924 62.89247479 70.5800924 64.06329155 69.41639233 C65.93359375 67.80615234 65.93359375 67.80615234 67.93359375 67.80615234 C93.05274271 117.5671791 114.09412877 166.00465584 120.93359375 221.80615234 C121.03816895 222.62164551 121.14274414 223.43713867 121.25048828 224.27734375 C122.35090195 234.23618592 122.1775506 244.29981576 122.18359375 254.30615234 C122.18460587 255.81080551 122.18460587 255.81080551 122.18563843 257.34585571 C122.16855644 273.3593445 121.53465885 288.97391314 118.93359375 304.80615234 C118.67618408 306.40499268 118.67618408 306.40499268 118.41357422 308.03613281 C108.34075251 368.82412656 82.08044415 425.84562488 40.93359375 471.80615234 C40.08925781 472.76134766 39.24492187 473.71654297 38.375 474.70068359 C26.80171541 487.57750405 14.68654344 500.25368961 0.93359375 510.80615234 C-0.40138981 511.87831958 -1.73456868 512.95273592 -3.06640625 514.02880859 C-57.03463442 557.3061195 -124.5745399 578.43092116 -193.25390625 580.43115234 C-194.0017337 580.45294556 -194.74956116 580.47473877 -195.52005005 580.49719238 C-249.37652699 581.99561307 -302.52612613 572.62901974 -351.2109375 549.04443359 C-352.26140259 548.53867798 -353.31186768 548.03292236 -354.39416504 547.51184082 C-356.95294306 546.27940521 -359.51031078 545.04413937 -362.06640625 543.80615234 C-368.79051507 508.12926799 -373.18462454 472.29973792 -375.61310369 436.08687395 C-375.75342847 434.0007552 -375.89764387 431.91492752 -376.04192495 429.82907915 C-380.85129006 359.14629983 -373.26824074 300.54942964 -325.74699032 245.51899531 C-302.94591618 219.42763466 -278.14727635 195.39436226 -252.62890625 171.99365234 C-251.30836471 170.78004817 -249.98788047 169.56638163 -248.66745329 168.35265303 C-218.92634646 141.04100103 -188.50717693 114.57481696 -157.08906078 89.20756817 C-155.66563254 88.05778728 -155.66563254 88.05778728 -154.21344817 86.8847785 C-152.45467575 85.46741039 -150.692834 84.0538392 -148.92738664 82.64479399 C-148.16253627 82.03023832 -147.3976859 81.41568265 -146.60965824 80.78250408 C-145.94476794 80.25188545 -145.27987764 79.72126682 -144.59483916 79.17456883 C-142.94165999 77.86338492 -142.94165999 77.86338492 -142.06640625 75.80615234 C-142.69675781 75.70044922 -143.32710937 75.59474609 -143.9765625 75.48583984 C-147.3541507 74.74285584 -150.60282353 73.76019472 -153.90429688 72.73681641 C-197.7792888 59.13919494 -247.08335378 60.21487979 -288.46166992 81.76318359 C-290.33641205 82.76598045 -292.20132804 83.78552485 -294.06640625 84.80615234 C-295.23300781 85.42103516 -296.39960938 86.03591797 -297.6015625 86.66943359 C-310.13053712 93.49186284 -321.48850951 102.09091136 -331.91796875 111.81005859 C-333.87681497 113.63000481 -335.889365 115.34332608 -337.94140625 117.05615234 C-366.44822075 142.06414253 -389.6524595 182.30197231 -393.41330099 220.31215858 C-393.909832 228.68997829 -393.89357258 237.07304 -393.84734297 245.46188211 C-393.83351228 249.19980069 -393.85488756 252.93756122 -393.87156677 256.67544556 C-393.89570831 263.12159284 -393.89850577 269.5674496 -393.88598251 276.0136261 C-393.86790919 285.33316428 -393.88330576 294.65242238 -393.90636183 303.97193879 C-393.94290026 319.09931616 -393.9531001 334.22658842 -393.94628906 349.35400391 C-393.93973789 364.03177456 -393.94586928 378.70945148 -393.96875 393.38720703 C-393.97086598 394.74877996 -393.97086598 394.74877996 -393.97302471 396.1378594 C-393.98018016 400.69249033 -393.9875817 405.24712081 -393.9951055 409.80175114 C-394.05701233 447.46989508 -394.07598609 485.13796205 -394.06640625 522.80615234 C-418.48060465 513.59688243 -445.37485258 483.40855425 -461.04296875 463.38818359 C-463.24354872 460.58010762 -465.55603264 457.88872899 -467.87890625 455.18115234 C-523.36192231 388.53282346 -544.08947921 299.30515584 -536.8203125 214.12255859 C-530.90336272 152.88088007 -509.55417049 95.07719133 -471.06640625 46.80615234 C-470.27492188 45.80068359 -469.4834375 44.79521484 -468.66796875 43.75927734 C-455.26120766 27.01292594 -439.9823613 10.99446318 -423.06640625 -2.19384766 C-421.97400659 -3.09570858 -420.88431841 -4.0008605 -419.796875 -4.90869141 C-339.70610066 -71.30220488 -227.97883287 -90.36717039 0 0 Z " fill="#000000" transform="translate(3393.06640625,307.19384765625)"/>
<path d="M0 0 C0.94794434 0.31807617 1.89588867 0.63615234 2.87255859 0.96386719 C10.12340451 3.52442513 17.06582271 6.65560713 24.05322266 9.85620117 C25.58079948 10.55336369 25.58079948 10.55336369 27.13923645 11.26461029 C29.63521234 12.40400595 32.13043993 13.54500877 34.625 14.6875 C41.5583715 48.58595025 46.05181162 82.61579582 48.542768 117.12622124 C48.68699448 119.1180187 48.83529811 121.10951954 48.98361588 123.10101652 C53.97428525 192.01404145 45.10116179 247.82271103 -0.94667053 301.38456726 C-24.30951426 328.20825757 -49.72594255 353.01612621 -75.84517127 377.12623864 C-77.88085692 379.0054066 -79.91452752 380.8867367 -81.94798803 382.76831198 C-117.0935614 415.26115914 -153.20010602 446.53960646 -190.375 476.6875 C-187.80557771 477.98283636 -185.23504385 479.27587881 -182.66381836 480.56762695 C-181.93941307 480.93311897 -181.21500778 481.29861099 -180.46865082 481.67517853 C-175.7179934 484.05900853 -171.0114609 486.26189104 -165.9375 487.875 C-165.22070068 488.10856201 -164.50390137 488.34212402 -163.76538086 488.58276367 C-117.47156199 502.93943094 -65.49083901 498.7205413 -22.33349609 476.53833008 C-14.6499164 472.43943404 -7.39748454 467.83169563 -0.375 462.6875 C0.20411133 462.26388184 0.78322266 461.84026367 1.37988281 461.40380859 C11.84891691 453.64972456 22.82140001 445.02561117 30.9296875 434.7734375 C31.76886719 433.74089844 31.76886719 433.74089844 32.625 432.6875 C33.285 432.6875 33.945 432.6875 34.625 432.6875 C34.625 490.7675 34.625 548.8475 34.625 608.6875 C27.35023126 612.32488437 20.63524309 615.36884375 13.0625 618.0625 C11.9789624 618.44825195 10.8954248 618.83400391 9.77905273 619.23144531 C-74.04738775 648.55586777 -171.70450763 645.8355918 -252.375 607.75 C-278.93461986 594.86054905 -303.17747619 578.08481056 -325.375 558.6875 C-326.30441406 557.88183594 -327.23382812 557.07617188 -328.19140625 556.24609375 C-333.01024187 552.00178399 -337.26694242 547.6147316 -341.375 542.6875 C-340.71757812 541.91792969 -340.06015625 541.14835938 -339.3828125 540.35546875 C-301.45490713 494.95918675 -273.12551704 435.94206748 -266.421875 376.84375 C-266.34333282 376.17266708 -266.26479065 375.50158417 -266.18386841 374.81016541 C-265.79993106 371.50426983 -265.45165806 368.20468774 -265.15771484 364.88891602 C-264.95976318 363.07411743 -264.95976318 363.07411743 -264.7578125 361.22265625 C-264.65871582 360.154104 -264.55961914 359.08555176 -264.45751953 357.98461914 C-261.95239981 350.35456912 -254.23591631 344.4032401 -248.6396637 338.82518005 C-247.89203717 338.07599353 -247.14441064 337.32680701 -246.37412876 336.55491787 C-243.88793103 334.06475647 -241.3982043 331.57815502 -238.90844727 329.09155273 C-237.11725511 327.29900448 -235.32627552 325.50624379 -233.53549194 323.71328735 C-229.18757102 319.36128867 -224.83732446 315.01162692 -220.48591179 310.66311985 C-216.94740808 307.12688052 -213.40988893 303.58965905 -209.87306023 300.05174446 C-209.36842733 299.54695833 -208.86379444 299.04217221 -208.34386964 298.52208953 C-207.318513 297.49641315 -206.2931586 296.47073453 -205.2678064 295.4450537 C-195.66768178 285.84208199 -186.06450239 276.24216982 -176.4602645 266.64331216 C-168.23113144 258.41864644 -160.00462365 250.1913625 -151.7800293 241.9621582 C-142.21398281 232.39075234 -132.64630608 222.82098091 -123.07604641 213.25378758 C-122.0542807 212.2323404 -121.03251707 211.21089114 -120.01075554 210.18943977 C-119.50811397 209.68695248 -119.0054724 209.18446519 -118.48759927 208.66675101 C-114.95672313 205.13673593 -111.42700381 201.60556669 -107.8977375 198.07394218 C-103.1419494 193.31504603 -98.3834982 188.55882829 -93.62327194 183.80437088 C-91.87935679 182.06177503 -90.13628657 180.31833311 -88.39413643 178.5739727 C-86.0108422 176.18793433 -83.62447023 173.80501595 -81.23731995 171.4228363 C-80.55335398 170.73663961 -79.86938801 170.05044292 -79.1646958 169.34345239 C-75.27814332 165.47251472 -71.28558172 161.78379276 -67.12398762 158.2095657 C-64.66001935 156.06528431 -62.34584901 153.78802715 -60.03515625 151.48046875 C-59.11798828 150.56458984 -58.20082031 149.64871094 -57.25585938 148.70507812 C-55.86077148 147.30418945 -55.86077148 147.30418945 -54.4375 145.875 C-53.47087098 144.91194087 -52.5040751 143.94904919 -51.53710938 142.98632812 C-50.62896484 142.07689453 -49.72082031 141.16746094 -48.78515625 140.23046875 C-47.96152588 139.40571045 -47.13789551 138.58095215 -46.28930664 137.73120117 C-44.3289448 135.83294066 -44.3289448 135.83294066 -43.375 133.6875 C-44.22707031 133.57019531 -45.07914063 133.45289063 -45.95703125 133.33203125 C-49.5108531 132.66188199 -52.66337838 131.60446952 -56.0625 130.375 C-98.39184023 115.77849269 -147.37897079 119.14357419 -187.56982422 138.60375977 C-204.441989 146.98773046 -219.5954154 156.82494555 -233.375 169.6875 C-234.7247286 170.85929827 -236.0786933 172.02624084 -237.4375 173.1875 C-270.81941783 202.41343609 -289.45178623 242.44324682 -296.375 285.6875 C-296.56964844 286.89792969 -296.76429688 288.10835937 -296.96484375 289.35546875 C-297.71723659 295.78646443 -297.61268733 302.28406298 -297.625 308.75 C-297.63000015 309.81386932 -297.63000015 309.81386932 -297.63510132 310.89923096 C-297.66108359 319.92610629 -297.17888366 328.64203719 -295.6875 337.5625 C-286.83737972 393.46138504 -319.88822103 460.42722295 -351.546875 504.7265625 C-369.58076471 529.14471244 -390.3139003 553.07289565 -414.375 571.6875 C-415.53752871 572.6570694 -416.69607976 573.63141925 -417.8515625 574.609375 C-461.36082021 611.22795073 -516.07477807 635.15345957 -572.375 642.6875 C-573.00132324 642.77363556 -573.62764648 642.85977112 -574.27294922 642.94851685 C-587.78074328 644.75446232 -601.20832053 645.02848128 -614.82373047 645.00317383 C-618.34244265 645.0000291 -621.86029805 645.02351616 -625.37890625 645.04882812 C-646.4539664 645.10855714 -667.44572454 643.47806218 -688.0625 638.9375 C-689.25907227 638.68000977 -690.45564453 638.42251953 -691.68847656 638.15722656 C-708.09614451 634.53283319 -723.93016378 629.86074942 -739.5625 623.6875 C-740.5534668 623.2965918 -741.54443359 622.90568359 -742.56542969 622.50292969 C-750.23163583 619.37224115 -756.9806885 615.66905234 -764.375 611.6875 C-764.375 550.6375 -764.375 489.5875 -764.375 426.6875 C-761.1602029 429.9022971 -758.51246656 432.6600269 -755.8125 436.1875 C-726.54277474 473.15978454 -686.04335309 496.66150935 -639.15771484 502.2109375 C-634.71328047 502.69576633 -630.31979164 502.86348196 -625.8515625 502.890625 C-625.07198181 502.89768463 -624.29240112 502.90474426 -623.48919678 502.91201782 C-600.24324715 503.29639258 -600.24324715 503.29639258 -577.375 499.6875 C-576.57046387 499.48350586 -575.76592773 499.27951172 -574.93701172 499.06933594 C-544.98791251 491.23868659 -519.57513824 476.14349953 -497.375 454.6875 C-496.45203125 453.81609375 -495.5290625 452.9446875 -494.578125 452.046875 C-487.94871779 445.64219345 -482.21590904 438.81509541 -476.69824219 431.44628906 C-475.44456251 429.7799591 -474.16610792 428.1357419 -472.8828125 426.4921875 C-457.71936996 406.65098309 -447.98459087 382.89014902 -442.375 358.6875 C-442.10276611 357.53008301 -441.83053223 356.37266602 -441.55004883 355.18017578 C-438.81263832 341.86216417 -439.10485159 328.73256576 -439.3125 315.1875 C-439.61945413 293.22254128 -439.14460385 271.4198356 -435.625 249.6875 C-435.45436035 248.62176758 -435.2837207 247.55603516 -435.10791016 246.45800781 C-426.00743816 191.88730459 -402.99969371 135.66433216 -364.53515625 94.98828125 C-362.72847788 93.0639891 -361.0104265 91.10424726 -359.29296875 89.1015625 C-355.07612511 84.26553676 -350.58797899 79.71439898 -346.05175781 75.17895508 C-344.63580053 73.76081716 -343.22801711 72.33453335 -341.8203125 70.90820312 C-335.65186231 64.7268662 -329.23470418 59.0872307 -322.375 53.6875 C-321.67036621 53.12361572 -320.96573242 52.55973145 -320.23974609 51.97875977 C-302.49438877 37.84409281 -283.51401828 26.0937254 -263.375 15.6875 C-262.59366699 15.28047852 -261.81233398 14.87345703 -261.00732422 14.45410156 C-224.92397817 -4.13688606 -183.71256968 -14.18657233 -143.375 -17.3125 C-142.70629883 -17.36889648 -142.03759766 -17.42529297 -141.34863281 -17.48339844 C-93.78311143 -21.41424104 -45.16968951 -15.2894549 0 0 Z " fill="#000000" transform="translate(2639.375,249.3125)"/>
<path d="M0 0 C47.19 0 94.38 0 143 0 C143.40303034 48.86966805 143.40303034 48.86966805 143.48828125 69.33007812 C143.5476458 83.46431712 143.61747647 97.59796053 143.75439453 111.73168945 C143.85405946 122.02477124 143.9185802 132.31737043 143.94088495 142.61092132 C143.95392396 148.06171815 143.98456788 153.5111344 144.05730057 158.96148872 C144.12521908 164.09269394 144.146109 169.22195128 144.13107681 174.35356331 C144.13382629 176.23581026 144.15369916 178.11812281 144.19205475 179.99998093 C144.46763779 194.21944077 144.46763779 194.21944077 140.85041428 198.60790825 C138.29656843 200.42574686 135.85411841 201.72115549 133 203 C131.53317806 203.93720281 130.07942207 204.89565928 128.6484375 205.88671875 C127.60175903 206.57229858 127.60175903 206.57229858 126.53393555 207.27172852 C108.459869 219.12421205 91.95701139 232.44229576 76 247 C74.98745685 247.908085 73.97441282 248.81561172 72.9609375 249.72265625 C67.96734459 254.21301286 63.13415369 258.71451149 58.81640625 263.875 C56.58882855 266.48102638 54.22875564 268.94488972 51.875 271.4375 C45.00177164 278.8376918 39.00217685 286.89004173 33 295 C32.54737793 295.60602051 32.09475586 296.21204102 31.62841797 296.83642578 C19.2290833 313.48320211 9.23681544 331.44129749 0 350 C-0.60690674 351.20849609 -0.60690674 351.20849609 -1.22607422 352.44140625 C-11.34799782 372.8492761 -17.92124947 395.09764259 -24 417 C-24.66 417 -25.32 417 -26 417 C-27.59979527 414.58972243 -29.09278706 412.17552001 -30.5625 409.6875 C-37.35289862 398.53105561 -45.6755018 388.94152861 -54.61914062 379.46435547 C-55.9359278 378.06794644 -57.24169916 376.66117406 -58.546875 375.25390625 C-80.68986645 352.13796518 -109.83994023 336.70080885 -141 330 C-142.08063721 329.75443359 -142.08063721 329.75443359 -143.18310547 329.50390625 C-185.91002244 320.14016262 -234.77152527 328.22482298 -272 351 C-293.28857408 364.64729121 -312.02023529 381.61960527 -327 402 C-327.78117187 403.05960937 -328.56234375 404.11921875 -329.3671875 405.2109375 C-344.33290566 426.18365672 -353.5380282 448.85632449 -359 474 C-359.17934082 474.81919922 -359.35868164 475.63839844 -359.54345703 476.48242188 C-362.06707938 488.68201829 -362.27848531 500.90397467 -362.3125 513.3125 C-362.31626648 514.07009613 -362.32003296 514.82769226 -362.32391357 515.60824585 C-362.32953755 517.8393606 -362.31828227 520.06973721 -362.30078125 522.30078125 C-362.29216064 523.59153564 -362.28354004 524.88229004 -362.2746582 526.2121582 C-362.14290663 530.06041067 -361.57887367 533.76338163 -360.99702454 537.5677948 C-359.34042539 549.87677346 -359.73754179 562.31079944 -359.77294922 574.703125 C-359.77463293 577.48377592 -359.77328287 580.2644235 -359.77206421 583.04507446 C-359.77102191 589.00237848 -359.77722937 594.95963826 -359.78853989 600.91693115 C-359.80488167 609.52988097 -359.81001171 618.14280967 -359.81251587 626.75577331 C-359.81687945 640.73400418 -359.83015203 654.71221155 -359.84912109 668.69042969 C-359.86751466 682.2587879 -359.88163113 695.82713966 -359.89013672 709.39550781 C-359.89067271 710.24215571 -359.89120871 711.0888036 -359.89176095 711.96110749 C-359.89592045 718.58369308 -359.89983407 725.2062788 -359.90367007 731.82886457 C-359.92249437 764.21926464 -359.96274111 796.60960576 -360 829 C-407.19 829 -454.38 829 -503 829 C-503.04898437 810.09074219 -503.09796875 791.18148437 -503.1484375 771.69921875 C-503.18382921 759.70898001 -503.21970076 747.71874557 -503.2578125 735.72851562 C-503.2778176 729.42683965 -503.29770156 723.12516332 -503.31738281 716.82348633 C-503.31985425 716.03377978 -503.32232569 715.24407324 -503.32487202 714.43043619 C-503.364486 701.71612552 -503.39727456 689.00180607 -503.42749982 676.28747001 C-503.45872102 663.2187587 -503.49737514 650.15008428 -503.54279006 637.08141452 C-503.57053601 629.03098603 -503.5926285 620.98058422 -503.60726251 612.93012104 C-503.61914794 606.73518386 -503.64142344 600.54032174 -503.66738319 594.34542847 C-503.67638611 591.82009153 -503.68213197 589.29474033 -503.68421364 586.7693882 C-503.69659373 574.02182741 -503.95213798 561.48076974 -505.5332737 548.82143879 C-506.14377653 543.82279353 -506.43875472 538.84210018 -506.625 533.8125 C-506.66149658 532.8836499 -506.69799316 531.9547998 -506.7355957 530.99780273 C-506.83393369 528.3320833 -506.91950564 525.66631001 -507 523 C-507.04253906 521.72640625 -507.08507813 520.4528125 -507.12890625 519.140625 C-507.98769681 466.69714814 -496.50709724 413.89724375 -473 367 C-472.61634277 366.22317871 -472.23268555 365.44635742 -471.83740234 364.64599609 C-458.8740301 338.55342109 -441.64241959 314.56122096 -421.953125 293.13671875 C-420.21103887 291.23087653 -418.54045187 289.28496698 -416.875 287.3125 C-408.67388561 277.90138513 -399.57455181 269.0031559 -390 261 C-389.09765625 260.20851563 -388.1953125 259.41703125 -387.265625 258.6015625 C-335.45139441 213.37991521 -267.01130712 185.27283946 -198 184 C-197.01950684 183.97953613 -196.03901367 183.95907227 -195.02880859 183.93798828 C-123.42729647 182.66745258 -59.8761701 202.08048943 0 241 C0 161.47 0 81.94 0 0 Z " fill="#000000" transform="translate(2202,49)"/>
<path d="M0 0 C48.51 0 97.02 0 147 0 C147.22085635 45.80153026 147.40534186 91.60255435 147.51065329 137.40446555 C147.52315891 142.82368109 147.53610227 148.24289551 147.54931641 153.66210938 C147.55193951 154.74088247 147.55456261 155.81965556 147.55726521 156.93111874 C147.60066361 174.35071942 147.67944512 191.76998681 147.77152796 209.18939041 C147.86536455 227.0911516 147.92065529 244.99273941 147.94088495 262.89473641 C147.95454017 273.92284082 147.99751214 284.95000289 148.07916467 295.97781689 C148.13242259 303.56151313 148.14791231 311.14472917 148.13501377 318.7285984 C148.12866921 323.09083762 148.13771031 327.45144205 148.19205475 331.8133831 C148.43073588 351.96695728 146.92556078 367.65301195 138.22217059 386.22017312 C127.51884364 410.56488913 123.22221921 438.81544114 120 465 C119.88140625 465.9276416 119.7628125 466.8552832 119.640625 467.81103516 C115.76832959 499.4059693 116.73572434 532.50042065 121 564 C121.13921875 565.04913574 121.2784375 566.09827148 121.421875 567.17919922 C125.08078743 593.77830681 131.04552656 624.15778224 143.20690823 648.40646458 C147.35821162 657.06172875 147.6957089 665.02131311 147.59936523 674.41577148 C147.60123343 676.03549576 147.60527896 677.65521875 147.61131287 679.27493286 C147.62123019 683.64611501 147.6001968 688.01664118 147.57283282 692.38772845 C147.54879943 697.0012336 147.551946 701.61473015 147.55152893 706.22828674 C147.54690849 713.99125056 147.52334421 721.75396839 147.48706055 729.5168457 C147.44558197 738.41316181 147.42775955 747.3092558 147.4244408 756.20566314 C147.42079668 765.76206811 147.40183866 775.31839629 147.37732053 784.8747685 C147.37117782 787.58401284 147.36748764 790.29325128 147.36428642 793.00250053 C147.2855937 845.49832886 146.90541377 905.45164708 110 947 C109.55720703 947.50305664 109.11441406 948.00611328 108.65820312 948.52441406 C103.13944247 954.77462336 97.54520859 960.80453983 91 966 C90.46842285 966.42748535 89.9368457 966.8549707 89.38916016 967.29541016 C54.6986952 994.99341717 14.21797831 1004.57146414 -28.55895996 1012.44250488 C-31.26734523 1012.94266425 -33.97445706 1013.44953933 -36.6815958 1013.95639515 C-39.93417546 1014.56451239 -43.18781192 1015.16686573 -46.44140625 1015.76953125 C-47.64543594 1015.99445755 -48.84946564 1016.21938385 -50.08998108 1016.4511261 C-51.2031218 1016.65521591 -52.31626251 1016.85930573 -53.46313477 1017.06958008 C-54.92699364 1017.34007927 -54.92699364 1017.34007927 -56.42042542 1017.61604309 C-59 1018 -59 1018 -63 1018 C-63 969.49 -63 920.98 -63 871 C-60.05359545 869.52679772 -57.21705802 869.60560708 -53.9375 869.3515625 C-52.48564538 869.23215566 -51.03382347 869.11235057 -49.58203125 868.9921875 C-47.30288649 868.80790585 -45.02363103 868.62680007 -42.74365234 868.453125 C-24.09818084 867.10350684 -24.09818084 867.10350684 -8.97265625 856.91015625 C-5.62463651 852.93972841 -4.5951339 849.22465306 -3.6875 844.1875 C-3.45450195 843.0727832 -3.45450195 843.0727832 -3.21679688 841.93554688 C-1.14547232 831.61448333 -0.85305576 821.38764314 -0.8613348 810.88519096 C-0.85888347 809.46655711 -0.85599845 808.04792396 -0.85272202 806.62929177 C-0.84498358 802.73702142 -0.84338164 798.84476928 -0.8427946 794.95249218 C-0.84106075 790.71582038 -0.8335727 786.47915807 -0.82681805 782.24249184 C-0.81577391 774.8194057 -0.8083943 767.39632295 -0.80341911 759.97323036 C-0.79600458 748.93538209 -0.78291945 737.89754563 -0.76867336 726.85970432 C-0.74486912 708.29182719 -0.72566229 689.72394795 -0.70907402 671.15606308 C-0.69263412 652.7710631 -0.67415183 634.38606705 -0.65294075 616.00107193 C-0.65162314 614.85802323 -0.65030554 613.71497454 -0.648948 612.537288 C-0.64224593 606.7323405 -0.63550736 600.92739304 -0.62875474 595.1224456 C-0.58098944 554.00416025 -0.53780506 512.88587123 -0.49731445 471.76757812 C-0.45796748 431.82128635 -0.41654565 391.87499761 -0.37231445 351.92871094 C-0.37095192 350.69743007 -0.36958939 349.46614921 -0.36818558 348.1975568 C-0.35450022 335.83254802 -0.34077268 323.46753928 -0.32701423 311.10253058 C-0.29898756 285.91349763 -0.27124245 260.72446436 -0.2436676 235.53543091 C-0.2423994 234.37727545 -0.2411312 233.21911998 -0.23982458 232.0258689 C-0.17422842 172.09874632 -0.11281269 112.17161954 -0.05235291 52.24449158 C-0.05107708 50.97994947 -0.05107708 50.97994947 -0.04977548 49.68986105 C-0.03307194 33.12657415 -0.01655366 16.56328706 0 0 Z " fill="#000000" transform="translate(2706,45)"/>
<path d="M0 0 C47.52 0 95.04 0 144 0 C144 66 144 132 144 200 C96.48 200 48.96 200 0 200 C0 134 0 68 0 0 Z " fill="#000000" transform="translate(2855,0)"/>
<path d="M0 0 C47.19 0 94.38 0 143 0 C143 66 143 132 143 200 C95.81 200 48.62 200 0 200 C0 134 0 68 0 0 Z " fill="#000000" transform="translate(1274,0)"/>
<path d="M0 0 C2.76475711 2.76475711 3.95592553 4.56498037 5.64453125 7.98828125 C6.4015332 9.49648438 6.4015332 9.49648438 7.17382812 11.03515625 C7.71458984 12.11667969 8.25535156 13.19820312 8.8125 14.3125 C18.45443817 33.18237221 29.80018649 50.4475556 43 67 C43.71542969 67.91652344 44.43085938 68.83304688 45.16796875 69.77734375 C47.08135645 72.21148851 49.03405033 74.60815794 51 77 C52.10794922 78.38638672 52.10794922 78.38638672 53.23828125 79.80078125 C60.31754741 88.47533659 68.17024029 96.38658044 76.0625 104.3125 C76.6168573 104.87203369 77.1712146 105.43156738 77.74237061 106.00805664 C84.83840681 113.15621373 92.09879345 119.74023839 100 126 C101.02774726 126.86315348 102.05115448 127.73155827 103.06640625 128.609375 C108.80993722 133.53496964 114.73741265 138.08008601 120.875 142.5 C121.6373999 143.05163818 122.3997998 143.60327637 123.18530273 144.17163086 C126.82830785 146.7902463 130.49182238 149.34263437 134.265625 151.76953125 C134.91934082 152.20136719 135.57305664 152.63320313 136.24658203 153.078125 C137.46151737 153.87650205 138.69120687 154.65304803 139.93701172 155.40234375 C141.5703125 156.48828125 141.5703125 156.48828125 144 159 C144 161.64 144 164.28 144 167 C96.48 167 48.96 167 0 167 C0 111.89 0 56.78 0 0 Z " fill="#000000" transform="translate(2855,711)"/>
<path d="M0 0 C47.52 0 95.04 0 144 0 C142.77657378 3.67027867 141.75855719 4.06899527 138.5390625 6.08203125 C137.60175293 6.67725586 136.66444336 7.27248047 135.69873047 7.88574219 C134.68439941 8.52157227 133.67006836 9.15740234 132.625 9.8125 C116.93302093 19.85087691 101.93394314 30.61784163 88 43 C87.27256592 43.64130859 86.54513184 44.28261719 85.7956543 44.94335938 C79.301587 50.71814099 73.0837967 56.73298644 66.9375 62.875 C65.5443457 64.24978516 65.5443457 64.24978516 64.12304688 65.65234375 C57.97319909 71.78924448 52.40410079 78.20304817 47 85 C46.02346182 86.17385396 45.04356981 87.34493596 44.05859375 88.51171875 C29.61432796 105.88490051 17.84285913 125.23134849 7 145 C5.96484375 146.875 5.96484375 146.875 4.9296875 148.75 C3.60761676 151.16047315 2.29491698 153.57487039 1 156 C0.67 156 0.34 156 0 156 C0 104.52 0 53.04 0 0 Z " fill="#000000" transform="translate(2855,244)"/>
<path d="M0 0 C6.8105154 4.67663909 10.50235754 10.78522268 12.70703125 18.6796875 C13.6856306 27.95062868 13.41488695 36.04143778 7.70703125 43.6796875 C1.85788122 50.39777999 -5.03395544 54.01435578 -13.84375 55.12890625 C-24.1380347 55.60208583 -31.90714022 53.41189606 -39.70703125 46.55859375 C-47.35466019 38.53553575 -49.01120999 31.53007225 -48.76953125 20.51171875 C-47.83825355 13.02333 -44.54282385 6.4463044 -39.10546875 1.1796875 C-26.99947858 -7.81333377 -12.70041299 -7.31301463 0 0 Z " fill="#000000" transform="translate(293.29296875,558.3203125)"/>
<path d="M0 0 C6.28441565 4.8496717 10.81111479 11.63666176 12.14990234 19.54443359 C13.06815155 28.29616803 12.27688904 36.39763696 6.8203125 43.59765625 C0.98516582 50.42292963 -6.3367925 53.86445985 -15.19921875 54.9765625 C-24.92613448 55.3636413 -32.85736164 52.35551694 -40.42578125 46.30078125 C-45.63395409 41.24340184 -48.72906891 34.72658006 -49.515625 27.51953125 C-49.64634542 16.90503281 -47.47299326 9.12359464 -40.11328125 1.2890625 C-28.91347068 -8.50794352 -12.01824652 -7.73216936 0 0 Z " fill="#000000" transform="translate(165.1796875,843.40234375)"/>
<path d="M0 0 C-0.65362202 4.58310242 -2.441178 8.49948678 -4.38671875 12.65234375 C-4.72621048 13.38892715 -5.06570221 14.12551056 -5.41548157 14.88441467 C-6.50112426 17.23780755 -7.5939009 19.58779524 -8.6875 21.9375 C-10.11076481 25.00787416 -11.5308892 28.07968692 -12.94921875 31.15234375 C-13.29387177 31.89809662 -13.63852478 32.64384949 -13.99362183 33.41220093 C-17.12742477 40.21999568 -20.09622839 47.09112201 -23 54 C-27 54 -27 54 -29.03515625 52.34765625 C-35.83175948 44.6867451 -38.67959706 38.15106073 -38.34765625 27.83203125 C-37.2403471 18.81181626 -33.23188205 10.25497461 -26.1171875 4.46875 C-18.52862416 -0.64981037 -8.8687204 -2.95624013 0 0 Z " fill="#000000" transform="translate(325,458)"/>
<path d="M0 0 C0.70189453 0.00451172 1.40378906 0.00902344 2.12695312 0.01367188 C3.85550538 0.02543073 5.58401365 0.04336546 7.3125 0.0625 C6.64528295 4.67919342 4.86515174 8.6837917 2.9609375 12.8984375 C2.62381744 13.65484528 2.28669739 14.41125305 1.93936157 15.19058228 C0.86016973 17.60838318 -0.22619107 20.02288981 -1.3125 22.4375 C-2.01997184 24.02193876 -2.72700707 25.60657255 -3.43359375 27.19140625 C-7.75378187 36.86139858 -12.17535936 46.4806585 -16.6875 56.0625 C-23.4417655 51.69051308 -27.02601922 47.14068009 -30.0625 39.6875 C-31.82959939 29.43832356 -30.9648806 20.24199012 -24.921875 11.51171875 C-18.09951911 3.30608991 -10.66286803 -0.1294279 0 0 Z " fill="#000000" transform="translate(388.6875,299.9375)"/>
</svg>
